<svg width="538" height="136" viewBox="0 0 538 136" fill="none" xmlns="http://www.w3.org/2000/svg">
<mask id="path-1-outside-1_188_2" maskUnits="userSpaceOnUse" x="0" y="0" width="538" height="136" fill="black">
<rect fill="white" width="538" height="136"/>
<path d="M75.4434 105.281H37.0352L29.4766 132H3.46094L45.3848 4.03125H67.7969L108.93 132H82.9141L75.4434 105.281ZM43.0996 84.2754H69.6426L56.5469 37.166L43.0996 84.2754ZM126.068 4.03125H200.072V23.9824H175.111V112.137H200.072V132H126.068V112.137H150.414V23.9824H126.068V4.03125ZM272.143 84.1875H253.422V132H228.725V4.03125H271.615C278.705 4.03125 285.121 4.88086 290.863 6.58008C296.605 8.2207 301.527 10.6523 305.629 13.875C309.672 17.0977 312.777 21.1113 314.945 25.916C317.172 30.7207 318.285 36.2871 318.285 42.6152C318.285 47.1855 317.729 51.3164 316.615 55.0078C315.561 58.6406 314.037 61.8926 312.045 64.7637C309.994 67.6934 307.533 70.2422 304.662 72.4102C301.85 74.5781 298.686 76.4531 295.17 78.0352L322.68 130.857V132H296.225L272.143 84.1875ZM253.422 64.1484H271.703C275.512 64.1484 278.852 63.6211 281.723 62.5664C284.652 61.4531 287.025 59.8711 288.842 57.8203C290.365 56.1797 291.508 54.2168 292.27 51.9316C293.09 49.6465 293.5 47.0977 293.5 44.2852C293.5 40.8867 292.973 37.8984 291.918 35.3203C290.922 32.6836 289.398 30.5156 287.348 28.8164C285.531 27.293 283.305 26.1211 280.668 25.3008C278.031 24.4805 275.014 24.0703 271.615 24.0703H253.422V64.1484ZM342.279 4.03125H416.283V23.9824H391.322V112.137H416.283V132H342.279V112.137H366.625V23.9824H342.279V4.03125ZM511.381 98.6016C511.381 96.3164 510.971 94.1777 510.15 92.1855C509.389 90.1934 508.07 88.3184 506.195 86.5605C504.262 84.8613 501.742 83.3086 498.637 81.9023C495.59 80.4375 491.781 79.0898 487.211 77.8594C480.121 75.9258 473.881 73.582 468.49 70.8281C463.158 68.0742 458.793 65.0566 455.395 61.7754C451.996 58.4941 449.418 54.8613 447.66 50.877C445.961 46.8926 445.111 42.5566 445.111 37.8691C445.111 32.4785 446.254 27.5859 448.539 23.1914C450.824 18.7969 453.988 15.0469 458.031 11.9414C462.074 8.83594 466.85 6.46289 472.357 4.82227C477.865 3.12305 483.842 2.27344 490.287 2.27344C496.967 2.27344 503.061 3.24023 508.568 5.17383C514.135 7.10742 518.91 9.80273 522.895 13.2598C526.879 16.7754 529.984 20.9355 532.211 25.7402C534.438 30.5449 535.551 35.8184 535.551 41.5605H511.469C511.352 38.6895 510.824 36.0527 509.887 33.6504C509.008 31.248 507.689 29.168 505.932 27.4102C504.115 25.7109 501.859 24.3926 499.164 23.4551C496.527 22.459 493.422 21.9609 489.848 21.9609C486.566 21.9609 483.637 22.3711 481.059 23.1914C478.539 23.9531 476.4 25.0371 474.643 26.4434C472.885 27.9082 471.537 29.6367 470.6 31.6289C469.721 33.5625 469.281 35.6719 469.281 37.957C469.281 40.3594 469.867 42.5273 471.039 44.4609C472.27 46.3945 474.027 48.123 476.312 49.6465C478.598 51.2285 481.352 52.6641 484.574 53.9531C487.855 55.2422 491.547 56.4434 495.648 57.5566C500.043 58.7871 504.232 60.2812 508.217 62.0391C512.201 63.7969 515.863 65.8184 519.203 68.1035C524.242 71.8535 528.256 76.2188 531.244 81.1992C534.232 86.1797 535.727 91.9219 535.727 98.4258C535.727 104.051 534.584 109.061 532.299 113.455C530.072 117.791 526.967 121.453 522.982 124.441C518.998 127.488 514.252 129.803 508.744 131.385C503.236 132.908 497.23 133.67 490.727 133.67C484.34 133.67 478.012 132.732 471.742 130.857C465.531 128.924 460.111 126.111 455.482 122.42C451.088 118.787 447.602 114.51 445.023 109.588C442.504 104.666 441.244 98.8945 441.244 92.2734H465.502C465.619 96.1406 466.293 99.4512 467.523 102.205C468.754 104.959 470.482 107.215 472.709 108.973C474.877 110.73 477.484 112.02 480.531 112.84C483.637 113.66 487.035 114.07 490.727 114.07C494.008 114.07 496.908 113.689 499.428 112.928C502.006 112.166 504.174 111.111 505.932 109.764C507.689 108.416 509.037 106.805 509.975 104.93C510.912 102.996 511.381 100.887 511.381 98.6016Z"/>
</mask>
<path d="M75.4434 105.281H37.0352L29.4766 132H3.46094L45.3848 4.03125H67.7969L108.93 132H82.9141L75.4434 105.281ZM43.0996 84.2754H69.6426L56.5469 37.166L43.0996 84.2754ZM126.068 4.03125H200.072V23.9824H175.111V112.137H200.072V132H126.068V112.137H150.414V23.9824H126.068V4.03125ZM272.143 84.1875H253.422V132H228.725V4.03125H271.615C278.705 4.03125 285.121 4.88086 290.863 6.58008C296.605 8.2207 301.527 10.6523 305.629 13.875C309.672 17.0977 312.777 21.1113 314.945 25.916C317.172 30.7207 318.285 36.2871 318.285 42.6152C318.285 47.1855 317.729 51.3164 316.615 55.0078C315.561 58.6406 314.037 61.8926 312.045 64.7637C309.994 67.6934 307.533 70.2422 304.662 72.4102C301.85 74.5781 298.686 76.4531 295.17 78.0352L322.68 130.857V132H296.225L272.143 84.1875ZM253.422 64.1484H271.703C275.512 64.1484 278.852 63.6211 281.723 62.5664C284.652 61.4531 287.025 59.8711 288.842 57.8203C290.365 56.1797 291.508 54.2168 292.27 51.9316C293.09 49.6465 293.5 47.0977 293.5 44.2852C293.5 40.8867 292.973 37.8984 291.918 35.3203C290.922 32.6836 289.398 30.5156 287.348 28.8164C285.531 27.293 283.305 26.1211 280.668 25.3008C278.031 24.4805 275.014 24.0703 271.615 24.0703H253.422V64.1484ZM342.279 4.03125H416.283V23.9824H391.322V112.137H416.283V132H342.279V112.137H366.625V23.9824H342.279V4.03125ZM511.381 98.6016C511.381 96.3164 510.971 94.1777 510.15 92.1855C509.389 90.1934 508.07 88.3184 506.195 86.5605C504.262 84.8613 501.742 83.3086 498.637 81.9023C495.59 80.4375 491.781 79.0898 487.211 77.8594C480.121 75.9258 473.881 73.582 468.49 70.8281C463.158 68.0742 458.793 65.0566 455.395 61.7754C451.996 58.4941 449.418 54.8613 447.66 50.877C445.961 46.8926 445.111 42.5566 445.111 37.8691C445.111 32.4785 446.254 27.5859 448.539 23.1914C450.824 18.7969 453.988 15.0469 458.031 11.9414C462.074 8.83594 466.85 6.46289 472.357 4.82227C477.865 3.12305 483.842 2.27344 490.287 2.27344C496.967 2.27344 503.061 3.24023 508.568 5.17383C514.135 7.10742 518.91 9.80273 522.895 13.2598C526.879 16.7754 529.984 20.9355 532.211 25.7402C534.438 30.5449 535.551 35.8184 535.551 41.5605H511.469C511.352 38.6895 510.824 36.0527 509.887 33.6504C509.008 31.248 507.689 29.168 505.932 27.4102C504.115 25.7109 501.859 24.3926 499.164 23.4551C496.527 22.459 493.422 21.9609 489.848 21.9609C486.566 21.9609 483.637 22.3711 481.059 23.1914C478.539 23.9531 476.4 25.0371 474.643 26.4434C472.885 27.9082 471.537 29.6367 470.6 31.6289C469.721 33.5625 469.281 35.6719 469.281 37.957C469.281 40.3594 469.867 42.5273 471.039 44.4609C472.27 46.3945 474.027 48.123 476.312 49.6465C478.598 51.2285 481.352 52.6641 484.574 53.9531C487.855 55.2422 491.547 56.4434 495.648 57.5566C500.043 58.7871 504.232 60.2812 508.217 62.0391C512.201 63.7969 515.863 65.8184 519.203 68.1035C524.242 71.8535 528.256 76.2188 531.244 81.1992C534.232 86.1797 535.727 91.9219 535.727 98.4258C535.727 104.051 534.584 109.061 532.299 113.455C530.072 117.791 526.967 121.453 522.982 124.441C518.998 127.488 514.252 129.803 508.744 131.385C503.236 132.908 497.23 133.67 490.727 133.67C484.34 133.67 478.012 132.732 471.742 130.857C465.531 128.924 460.111 126.111 455.482 122.42C451.088 118.787 447.602 114.51 445.023 109.588C442.504 104.666 441.244 98.8945 441.244 92.2734H465.502C465.619 96.1406 466.293 99.4512 467.523 102.205C468.754 104.959 470.482 107.215 472.709 108.973C474.877 110.73 477.484 112.02 480.531 112.84C483.637 113.66 487.035 114.07 490.727 114.07C494.008 114.07 496.908 113.689 499.428 112.928C502.006 112.166 504.174 111.111 505.932 109.764C507.689 108.416 509.037 106.805 509.975 104.93C510.912 102.996 511.381 100.887 511.381 98.6016Z" fill="url(#paint0_linear_188_2)"/>
<path d="M75.4434 105.281L77.3695 104.743L76.9609 103.281H75.4434V105.281ZM37.0352 105.281V103.281H35.5225L35.1107 104.737L37.0352 105.281ZM29.4766 132V134H30.9893L31.401 132.544L29.4766 132ZM3.46094 132L1.56033 131.377L0.701124 134H3.46094V132ZM45.3848 4.03125V2.03125H43.9354L43.4842 3.40859L45.3848 4.03125ZM67.7969 4.03125L69.7009 3.41923L69.2548 2.03125H67.7969V4.03125ZM108.93 132V134H111.673L110.834 131.388L108.93 132ZM82.9141 132L80.9879 132.539L81.3966 134H82.9141V132ZM43.0996 84.2754L41.1764 83.7264L40.4488 86.2754H43.0996V84.2754ZM69.6426 84.2754V86.2754H72.2744L71.5695 83.7397L69.6426 84.2754ZM56.5469 37.166L58.4738 36.6304L56.5724 29.7903L54.6237 36.617L56.5469 37.166ZM75.4434 103.281H37.0352V107.281H75.4434V103.281ZM35.1107 104.737L27.5521 131.456L31.401 132.544L38.9596 105.826L35.1107 104.737ZM29.4766 130H3.46094V134H29.4766V130ZM5.36154 132.623L47.2854 4.65391L43.4842 3.40859L1.56033 131.377L5.36154 132.623ZM45.3848 6.03125H67.7969V2.03125H45.3848V6.03125ZM65.8928 4.64327L107.026 132.612L110.834 131.388L69.7009 3.41923L65.8928 4.64327ZM108.93 130H82.9141V134H108.93V130ZM84.8402 131.461L77.3695 104.743L73.5172 105.82L80.9879 132.539L84.8402 131.461ZM43.0996 86.2754H69.6426V82.2754H43.0996V86.2754ZM71.5695 83.7397L58.4738 36.6304L54.6199 37.7017L67.7156 84.811L71.5695 83.7397ZM54.6237 36.617L41.1764 83.7264L45.0228 84.8244L58.4701 37.715L54.6237 36.617ZM126.068 4.03125V2.03125H124.068V4.03125H126.068ZM200.072 4.03125H202.072V2.03125H200.072V4.03125ZM200.072 23.9824V25.9824H202.072V23.9824H200.072ZM175.111 23.9824V21.9824H173.111V23.9824H175.111ZM175.111 112.137H173.111V114.137H175.111V112.137ZM200.072 112.137H202.072V110.137H200.072V112.137ZM200.072 132V134H202.072V132H200.072ZM126.068 132H124.068V134H126.068V132ZM126.068 112.137V110.137H124.068V112.137H126.068ZM150.414 112.137V114.137H152.414V112.137H150.414ZM150.414 23.9824H152.414V21.9824H150.414V23.9824ZM126.068 23.9824H124.068V25.9824H126.068V23.9824ZM126.068 6.03125H200.072V2.03125H126.068V6.03125ZM198.072 4.03125V23.9824H202.072V4.03125H198.072ZM200.072 21.9824H175.111V25.9824H200.072V21.9824ZM173.111 23.9824V112.137H177.111V23.9824H173.111ZM175.111 114.137H200.072V110.137H175.111V114.137ZM198.072 112.137V132H202.072V112.137H198.072ZM200.072 130H126.068V134H200.072V130ZM128.068 132V112.137H124.068V132H128.068ZM126.068 114.137H150.414V110.137H126.068V114.137ZM152.414 112.137V23.9824H148.414V112.137H152.414ZM150.414 21.9824H126.068V25.9824H150.414V21.9824ZM128.068 23.9824V4.03125H124.068V23.9824H128.068ZM272.143 84.1875L273.929 83.2878L273.375 82.1875H272.143V84.1875ZM253.422 84.1875V82.1875H251.422V84.1875H253.422ZM253.422 132V134H255.422V132H253.422ZM228.725 132H226.725V134H228.725V132ZM228.725 4.03125V2.03125H226.725V4.03125H228.725ZM290.863 6.58008L290.296 8.49787L290.305 8.50054L290.314 8.50313L290.863 6.58008ZM305.629 13.875L306.876 12.311L306.865 12.3024L305.629 13.875ZM314.945 25.916L313.122 26.7386L313.126 26.7478L313.131 26.7569L314.945 25.916ZM316.615 55.0078L314.7 54.4303L314.697 54.4402L314.695 54.4502L316.615 55.0078ZM312.045 64.7637L313.683 65.9106L313.688 65.9038L312.045 64.7637ZM304.662 72.4102L303.457 70.8141L303.449 70.8201L303.441 70.8261L304.662 72.4102ZM295.17 78.0352L294.349 76.2113L292.418 77.0805L293.396 78.959L295.17 78.0352ZM322.68 130.857H324.68V130.368L324.454 129.934L322.68 130.857ZM322.68 132V134H324.68V132H322.68ZM296.225 132L294.438 132.9L294.993 134H296.225V132ZM253.422 64.1484H251.422V66.1484H253.422V64.1484ZM281.723 62.5664L282.412 64.4437L282.423 64.4399L282.433 64.436L281.723 62.5664ZM288.842 57.8203L287.376 56.4594L287.36 56.4766L287.345 56.4942L288.842 57.8203ZM292.27 51.9316L290.387 51.2559L290.379 51.2775L290.372 51.2992L292.27 51.9316ZM291.918 35.3203L290.047 36.0271L290.057 36.0525L290.067 36.0776L291.918 35.3203ZM287.348 28.8164L286.062 30.3488L286.072 30.3564L287.348 28.8164ZM253.422 24.0703V22.0703H251.422V24.0703H253.422ZM272.143 82.1875H253.422V86.1875H272.143V82.1875ZM251.422 84.1875V132H255.422V84.1875H251.422ZM253.422 130H228.725V134H253.422V130ZM230.725 132V4.03125H226.725V132H230.725ZM228.725 6.03125H271.615V2.03125H228.725V6.03125ZM271.615 6.03125C278.547 6.03125 284.768 6.86211 290.296 8.49787L291.431 4.66228C285.474 2.89961 278.863 2.03125 271.615 2.03125V6.03125ZM290.314 8.50313C295.843 10.0828 300.523 12.4067 304.393 15.4476L306.865 12.3024C302.532 8.89802 297.368 6.35865 291.413 4.65703L290.314 8.50313ZM304.382 15.4389C308.172 18.4598 311.082 22.2174 313.122 26.7386L316.768 25.0934C314.472 20.0053 311.172 15.7356 306.876 12.3111L304.382 15.4389ZM313.131 26.7569C315.214 31.2517 316.285 36.5217 316.285 42.6152H320.285C320.285 36.0525 319.13 30.1897 316.76 25.0751L313.131 26.7569ZM316.285 42.6152C316.285 47.0251 315.748 50.9571 314.7 54.4303L318.53 55.5853C319.709 51.6757 320.285 47.346 320.285 42.6152H316.285ZM314.695 54.4502C313.695 57.8922 312.261 60.9444 310.402 63.6235L313.688 65.9038C315.813 62.8408 317.426 59.389 318.536 55.5654L314.695 54.4502ZM310.406 63.6167C308.476 66.3739 306.162 68.7715 303.457 70.8141L305.867 74.0062C308.904 71.7129 311.512 69.0128 313.683 65.9106L310.406 63.6167ZM303.441 70.8261C300.762 72.8911 297.735 74.6879 294.349 76.2113L295.991 79.859C299.637 78.2183 302.937 76.2652 305.883 73.9942L303.441 70.8261ZM293.396 78.959L320.906 131.781L324.454 129.934L296.944 77.1113L293.396 78.959ZM320.68 130.857V132H324.68V130.857H320.68ZM322.68 130H296.225V134H322.68V130ZM298.011 131.1L273.929 83.2878L270.356 85.0872L294.438 132.9L298.011 131.1ZM253.422 66.1484H271.703V62.1484H253.422V66.1484ZM271.703 66.1484C275.692 66.1484 279.274 65.5967 282.412 64.4437L281.033 60.6891C278.429 61.6455 275.332 62.1484 271.703 62.1484V66.1484ZM282.433 64.436C285.621 63.2245 288.279 61.4721 290.339 59.1464L287.345 56.4942C285.772 58.2701 283.683 59.6818 281.012 60.6968L282.433 64.436ZM290.307 59.1812C292.04 57.3158 293.322 55.0992 294.167 52.5641L290.372 51.2992C289.694 53.3344 288.691 55.0435 287.376 56.4594L290.307 59.1812ZM294.152 52.6074C295.061 50.0741 295.5 47.2922 295.5 44.2852H291.5C291.5 46.9032 291.118 49.2189 290.387 51.2559L294.152 52.6074ZM295.5 44.2852C295.5 40.6826 294.941 37.4281 293.769 34.563L290.067 36.0776C291.004 38.3688 291.5 41.0908 291.5 44.2852H295.5ZM293.789 34.6135C292.678 31.6718 290.957 29.21 288.624 27.2764L286.072 30.3564C287.839 31.8212 289.166 33.6954 290.047 36.0271L293.789 34.6135ZM288.633 27.284C286.583 25.5646 284.111 24.2773 281.262 23.3911L280.074 27.2105C282.499 27.9649 284.48 29.0214 286.062 30.3488L288.633 27.284ZM281.262 23.3911C278.395 22.499 275.171 22.0703 271.615 22.0703V26.0703C274.857 26.0703 277.668 26.462 280.074 27.2105L281.262 23.3911ZM271.615 22.0703H253.422V26.0703H271.615V22.0703ZM251.422 24.0703V64.1484H255.422V24.0703H251.422ZM342.279 4.03125V2.03125H340.279V4.03125H342.279ZM416.283 4.03125H418.283V2.03125H416.283V4.03125ZM416.283 23.9824V25.9824H418.283V23.9824H416.283ZM391.322 23.9824V21.9824H389.322V23.9824H391.322ZM391.322 112.137H389.322V114.137H391.322V112.137ZM416.283 112.137H418.283V110.137H416.283V112.137ZM416.283 132V134H418.283V132H416.283ZM342.279 132H340.279V134H342.279V132ZM342.279 112.137V110.137H340.279V112.137H342.279ZM366.625 112.137V114.137H368.625V112.137H366.625ZM366.625 23.9824H368.625V21.9824H366.625V23.9824ZM342.279 23.9824H340.279V25.9824H342.279V23.9824ZM342.279 6.03125H416.283V2.03125H342.279V6.03125ZM414.283 4.03125V23.9824H418.283V4.03125H414.283ZM416.283 21.9824H391.322V25.9824H416.283V21.9824ZM389.322 23.9824V112.137H393.322V23.9824H389.322ZM391.322 114.137H416.283V110.137H391.322V114.137ZM414.283 112.137V132H418.283V112.137H414.283ZM416.283 130H342.279V134H416.283V130ZM344.279 132V112.137H340.279V132H344.279ZM342.279 114.137H366.625V110.137H342.279V114.137ZM368.625 112.137V23.9824H364.625V112.137H368.625ZM366.625 21.9824H342.279V25.9824H366.625V21.9824ZM344.279 23.9824V4.03125H340.279V23.9824H344.279ZM510.15 92.1855L508.282 92.8998L508.291 92.9236L508.301 92.947L510.15 92.1855ZM506.195 86.5605L507.563 85.1015L507.54 85.0795L507.516 85.0582L506.195 86.5605ZM498.637 81.9023L497.77 83.7048L497.791 83.7148L497.812 83.7243L498.637 81.9023ZM487.211 77.8594L486.685 79.7889L486.691 79.7906L487.211 77.8594ZM468.49 70.8281L467.572 72.6051L467.58 72.6092L468.49 70.8281ZM447.66 50.877L445.82 51.6615L445.825 51.6729L445.83 51.6842L447.66 50.877ZM472.357 4.82227L472.928 6.73904L472.938 6.73626L472.947 6.73338L472.357 4.82227ZM508.568 5.17383L507.906 7.06093L507.912 7.06309L508.568 5.17383ZM522.895 13.2598L524.218 11.7601L524.212 11.7546L524.205 11.7491L522.895 13.2598ZM535.551 41.5605V43.5605H537.551V41.5605H535.551ZM511.469 41.5605L509.47 41.6421L509.549 43.5605H511.469V41.5605ZM509.887 33.6504L508.008 34.3376L508.016 34.3576L508.024 34.3775L509.887 33.6504ZM505.932 27.4102L507.346 25.9959L507.322 25.9724L507.298 25.9496L505.932 27.4102ZM499.164 23.4551L498.457 25.326L498.482 25.3354L498.507 25.3441L499.164 23.4551ZM481.059 23.1914L481.637 25.1058L481.651 25.1016L481.665 25.0973L481.059 23.1914ZM474.643 26.4434L473.393 24.8816L473.378 24.8941L473.362 24.9069L474.643 26.4434ZM470.6 31.6289L468.79 30.7773L468.784 30.7893L468.779 30.8013L470.6 31.6289ZM471.039 44.4609L469.329 45.4975L469.34 45.5162L469.352 45.5347L471.039 44.4609ZM476.312 49.6465L477.451 48.0021L477.436 47.9921L477.422 47.9824L476.312 49.6465ZM484.574 53.9531L483.831 55.8101L483.843 55.8146L484.574 53.9531ZM495.648 57.5566L496.188 55.6307L496.18 55.6286L496.172 55.6265L495.648 57.5566ZM519.203 68.1035L520.397 66.499L520.365 66.4753L520.332 66.4529L519.203 68.1035ZM532.299 113.455L530.524 112.532L530.52 112.541L532.299 113.455ZM522.982 124.441L521.782 122.841L521.775 122.847L521.768 122.853L522.982 124.441ZM508.744 131.385L509.277 133.312L509.287 133.31L509.296 133.307L508.744 131.385ZM471.742 130.857L471.148 132.767L471.158 132.77L471.169 132.774L471.742 130.857ZM455.482 122.42L454.208 123.961L454.222 123.973L454.235 123.984L455.482 122.42ZM445.023 109.588L443.243 110.499L443.247 110.508L443.252 110.516L445.023 109.588ZM441.244 92.2734V90.2734H439.244V92.2734H441.244ZM465.502 92.2734L467.501 92.2129L467.442 90.2734H465.502V92.2734ZM472.709 108.973L473.969 107.419L473.958 107.411L473.948 107.403L472.709 108.973ZM480.531 112.84L480.011 114.771L480.02 114.774L480.531 112.84ZM499.428 112.928L498.861 111.01L498.849 111.013L499.428 112.928ZM509.975 104.93L511.763 105.824L511.769 105.813L511.774 105.802L509.975 104.93ZM513.381 98.6016C513.381 96.0712 512.925 93.6722 512 91.424L508.301 92.947C509.016 94.6833 509.381 96.5616 509.381 98.6016H513.381ZM512.018 91.4713C511.129 89.144 509.614 87.0246 507.563 85.1015L504.827 88.0196C506.526 89.6122 507.649 91.2427 508.282 92.8998L512.018 91.4713ZM507.516 85.0582C505.394 83.1942 502.693 81.5434 499.462 80.0804L497.812 83.7243C500.792 85.0737 503.129 86.5285 504.875 88.0629L507.516 85.0582ZM499.503 80.0998C496.311 78.565 492.377 77.1791 487.731 75.9281L486.691 79.7906C491.185 81.0006 494.869 82.31 497.77 83.7048L499.503 80.0998ZM487.737 75.9298C480.753 74.025 474.646 71.7268 469.4 69.0471L467.58 72.6092C473.116 75.4372 479.489 77.8265 486.685 79.7889L487.737 75.9298ZM469.408 69.0511C464.204 66.3636 460.01 63.4521 456.784 60.3366L454.005 63.2142C457.575 66.6612 462.112 69.7849 467.572 72.6051L469.408 69.0511ZM456.784 60.3366C453.556 57.22 451.135 53.7976 449.49 50.0697L445.83 51.6842C447.701 55.9251 450.436 59.7683 454.005 63.2142L456.784 60.3366ZM449.5 50.0924C447.915 46.3758 447.111 42.3094 447.111 37.8691H443.111C443.111 42.8039 444.007 47.4093 445.82 51.6615L449.5 50.0924ZM447.111 37.8691C447.111 32.7708 448.189 28.199 450.313 24.1141L446.765 22.2687C444.318 26.9729 443.111 32.1863 443.111 37.8691H447.111ZM450.313 24.1141C452.46 19.9863 455.431 16.4604 459.25 13.5275L456.813 10.3553C452.545 13.6333 449.189 17.6074 446.765 22.2687L450.313 24.1141ZM459.25 13.5275C463.076 10.5886 467.625 8.31873 472.928 6.73904L471.786 2.90549C466.074 4.60706 461.073 7.08327 456.813 10.3553L459.25 13.5275ZM472.947 6.73338C478.243 5.09959 484.018 4.27344 490.287 4.27344V0.273438C483.665 0.273438 477.488 1.14651 471.768 2.91115L472.947 6.73338ZM490.287 4.27344C496.773 4.27344 502.639 5.21199 507.906 7.06092L509.231 3.28674C503.482 1.26848 497.16 0.273438 490.287 0.273438V4.27344ZM507.912 7.06309C513.266 8.92298 517.813 11.4985 521.584 14.7704L524.205 11.7491C520.008 8.107 515.003 5.29186 509.225 3.28457L507.912 7.06309ZM521.571 14.7594C525.349 18.0925 528.287 22.0286 530.396 26.5812L534.026 24.8993C531.682 19.8425 528.409 15.4583 524.218 11.7601L521.571 14.7594ZM530.396 26.5812C532.491 31.1007 533.551 36.084 533.551 41.5605H537.551C537.551 35.5528 536.384 29.9892 534.026 24.8993L530.396 26.5812ZM535.551 39.5605H511.469V43.5605H535.551V39.5605ZM513.467 41.479C513.342 38.4118 512.776 35.554 511.75 32.9233L508.024 34.3775C508.872 36.5515 509.361 38.9671 509.47 41.6421L513.467 41.479ZM511.765 32.9632C510.789 30.2958 509.315 27.9655 507.346 25.9959L504.517 28.8244C506.063 30.3704 507.227 32.2003 508.008 34.3376L511.765 32.9632ZM507.298 25.9496C505.25 24.0335 502.741 22.5819 499.821 21.5661L498.507 25.3441C500.977 26.2033 502.981 27.3884 504.565 28.8707L507.298 25.9496ZM499.871 21.5841C496.957 20.4833 493.601 19.9609 489.848 19.9609V23.9609C493.242 23.9609 496.098 24.4347 498.457 25.326L499.871 21.5841ZM489.848 19.9609C486.403 19.9609 483.263 20.3912 480.452 21.2856L481.665 25.0973C484.01 24.351 486.73 23.9609 489.848 23.9609V19.9609ZM480.48 21.277C477.757 22.1002 475.381 23.2916 473.393 24.8816L475.892 28.0051C477.42 26.7826 479.321 25.8061 481.637 25.1058L480.48 21.277ZM473.362 24.9069C471.389 26.5511 469.857 28.5105 468.79 30.7773L472.409 32.4805C473.218 30.7629 474.38 29.2653 475.923 27.9798L473.362 24.9069ZM468.779 30.8013C467.773 33.0141 467.281 35.4084 467.281 37.957H471.281C471.281 35.9354 471.668 34.1109 472.42 32.4565L468.779 30.8013ZM467.281 37.957C467.281 40.7011 467.955 43.2316 469.329 45.4975L472.749 43.4243C471.779 41.8231 471.281 40.0177 471.281 37.957H467.281ZM469.352 45.5347C470.758 47.7449 472.731 49.6628 475.203 51.3106L477.422 47.9824C475.323 46.5833 473.781 45.0441 472.726 43.3872L469.352 45.5347ZM475.174 51.2909C477.609 52.9764 480.502 54.4784 483.831 55.8101L485.317 52.0962C482.201 50.8497 479.587 49.4806 477.451 48.0021L475.174 51.2909ZM483.843 55.8146C487.204 57.1351 490.966 58.3582 495.125 59.4868L496.172 55.6265C492.127 54.5286 488.507 53.3493 485.306 52.0916L483.843 55.8146ZM495.109 59.4826C499.417 60.6886 503.516 62.1512 507.41 63.8689L509.024 60.2092C504.949 58.4113 500.669 56.8856 496.188 55.6307L495.109 59.4826ZM507.41 63.8689C511.29 65.5807 514.843 67.5435 518.074 69.7541L520.332 66.4529C516.884 64.0932 513.113 62.013 509.024 60.2092L507.41 63.8689ZM518.009 69.708C522.856 73.3148 526.686 77.4894 529.529 82.2282L532.959 80.1702C529.826 74.9481 525.629 70.3922 520.397 66.499L518.009 69.708ZM529.529 82.2282C532.309 86.8618 533.727 92.2398 533.727 98.4258H537.727C537.727 91.6039 536.156 85.4976 532.959 80.1702L529.529 82.2282ZM533.727 98.4258C533.727 103.774 532.642 108.459 530.524 112.532L534.073 114.378C536.526 109.662 537.727 104.328 537.727 98.4258H533.727ZM530.52 112.541C528.435 116.602 525.53 120.031 521.782 122.841L524.182 126.041C528.404 122.875 531.71 118.98 534.078 114.369L530.52 112.541ZM521.768 122.853C518.007 125.728 513.494 127.94 508.192 129.462L509.296 133.307C515.01 131.666 519.989 129.249 524.197 126.03L521.768 122.853ZM508.211 129.457C502.899 130.926 497.075 131.67 490.727 131.67V135.67C497.386 135.67 503.574 134.89 509.277 133.312L508.211 129.457ZM490.727 131.67C484.539 131.67 478.403 130.762 472.315 128.941L471.169 132.774C477.62 134.703 484.141 135.67 490.727 135.67V131.67ZM472.337 128.948C466.339 127.081 461.146 124.378 456.729 120.856L454.235 123.984C459.077 127.844 464.723 130.767 471.148 132.767L472.337 128.948ZM456.757 120.878C452.562 117.41 449.247 113.34 446.795 108.66L443.252 110.516C445.957 115.68 449.614 120.164 454.208 123.961L456.757 120.878ZM446.804 108.677C444.454 104.087 443.244 98.6397 443.244 92.2734H439.244C439.244 99.1494 440.553 105.245 443.243 110.499L446.804 108.677ZM441.244 94.2734H465.502V90.2734H441.244V94.2734ZM463.503 92.334C463.626 96.3913 464.335 99.9721 465.697 103.021L469.349 101.389C468.251 98.9303 467.612 95.8899 467.501 92.2129L463.503 92.334ZM465.697 103.021C467.051 106.051 468.974 108.572 471.47 110.542L473.948 107.403C471.991 105.858 470.457 103.867 469.349 101.389L465.697 103.021ZM471.449 110.526C473.861 112.482 476.729 113.887 480.011 114.771L481.051 110.909C478.239 110.152 475.892 108.979 473.969 107.419L471.449 110.526ZM480.02 114.774C483.315 115.644 486.888 116.07 490.727 116.07V112.07C487.182 112.07 483.958 111.676 481.042 110.906L480.02 114.774ZM490.727 116.07C494.158 116.07 497.26 115.673 500.007 114.842L498.849 111.013C496.557 111.706 493.858 112.07 490.727 112.07V116.07ZM499.994 114.846C502.759 114.029 505.159 112.876 507.149 111.351L504.715 108.176C503.188 109.347 501.253 110.303 498.861 111.01L499.994 114.846ZM507.149 111.351C509.133 109.829 510.683 107.986 511.763 105.824L508.186 104.035C507.392 105.624 506.246 107.003 504.715 108.176L507.149 111.351ZM511.774 105.802C512.852 103.58 513.381 101.169 513.381 98.6016H509.381C509.381 100.604 508.972 102.413 508.175 104.057L511.774 105.802Z" fill="#454545" mask="url(#path-1-outside-1_188_2)"/>
<defs>
<linearGradient id="paint0_linear_188_2" x1="1" y1="62.5" x2="542" y2="62.5" gradientUnits="userSpaceOnUse">
<stop stop-color="#212121"/>
<stop offset="0.475348" stop-color="#292929"/>
<stop offset="0.945" stop-color="#212121"/>
</linearGradient>
</defs>
</svg>
