<svg width="300" height="76" viewBox="0 0 300 76" fill="none" xmlns="http://www.w3.org/2000/svg">
<mask id="path-1-outside-1_192_21" maskUnits="userSpaceOnUse" x="0" y="0" width="300" height="76" fill="black">
<rect fill="white" width="300" height="76"/>
<path d="M42.3574 59.1562H21.0195L16.8203 74H2.36719L25.6582 2.90625H38.1094L60.9609 74H46.5078L42.3574 59.1562ZM24.3887 47.4863H39.1348L31.8594 21.3145L24.3887 47.4863ZM70.4824 2.90625H111.596V13.9902H97.7285V62.9648H111.596V74H70.4824V62.9648H84.0078V13.9902H70.4824V2.90625ZM151.635 47.4375H141.234V74H127.514V2.90625H151.342C155.281 2.90625 158.845 3.37826 162.035 4.32227C165.225 5.23372 167.96 6.58464 170.238 8.375C172.484 10.1654 174.21 12.3952 175.414 15.0645C176.651 17.7337 177.27 20.8262 177.27 24.3418C177.27 26.8809 176.96 29.1758 176.342 31.2266C175.756 33.2448 174.91 35.0514 173.803 36.6465C172.663 38.2741 171.296 39.6901 169.701 40.8945C168.139 42.099 166.381 43.1406 164.428 44.0195L179.711 73.3652V74H165.014L151.635 47.4375ZM141.234 36.3047H151.391C153.507 36.3047 155.362 36.0117 156.957 35.4258C158.585 34.8073 159.903 33.9284 160.912 32.7891C161.758 31.8776 162.393 30.7871 162.816 29.5176C163.272 28.248 163.5 26.832 163.5 25.2695C163.5 23.3815 163.207 21.7214 162.621 20.2891C162.068 18.8242 161.221 17.6198 160.082 16.6758C159.073 15.8294 157.836 15.1784 156.371 14.7227C154.906 14.2669 153.23 14.0391 151.342 14.0391H141.234V36.3047ZM190.6 2.90625H231.713V13.9902H217.846V62.9648H231.713V74H190.6V62.9648H204.125V13.9902H190.6V2.90625ZM284.545 55.4453C284.545 54.1758 284.317 52.9876 283.861 51.8809C283.438 50.7741 282.706 49.7324 281.664 48.7559C280.59 47.8118 279.19 46.9492 277.465 46.168C275.772 45.3542 273.656 44.6055 271.117 43.9219C267.178 42.8477 263.712 41.5456 260.717 40.0156C257.755 38.4857 255.329 36.8092 253.441 34.9863C251.553 33.1634 250.121 31.1452 249.145 28.9316C248.201 26.7181 247.729 24.3092 247.729 21.7051C247.729 18.7103 248.363 15.9922 249.633 13.5508C250.902 11.1094 252.66 9.02604 254.906 7.30078C257.152 5.57552 259.805 4.25716 262.865 3.3457C265.925 2.40169 269.245 1.92969 272.826 1.92969C276.537 1.92969 279.923 2.4668 282.982 3.54102C286.075 4.61523 288.728 6.11263 290.941 8.0332C293.155 9.98633 294.88 12.2975 296.117 14.9668C297.354 17.6361 297.973 20.5658 297.973 23.7559H284.594C284.529 22.1608 284.236 20.696 283.715 19.3613C283.227 18.0267 282.494 16.8711 281.518 15.8945C280.508 14.9505 279.255 14.2181 277.758 13.6973C276.293 13.1439 274.568 12.8672 272.582 12.8672C270.759 12.8672 269.132 13.0951 267.699 13.5508C266.299 13.974 265.111 14.5762 264.135 15.3574C263.158 16.1712 262.41 17.1315 261.889 18.2383C261.4 19.3125 261.156 20.4844 261.156 21.7539C261.156 23.0885 261.482 24.293 262.133 25.3672C262.816 26.4414 263.793 27.4017 265.062 28.248C266.332 29.127 267.862 29.9245 269.652 30.6406C271.475 31.3568 273.526 32.0241 275.805 32.6426C278.246 33.3262 280.574 34.1562 282.787 35.1328C285.001 36.1094 287.035 37.2324 288.891 38.502C291.69 40.5853 293.92 43.0104 295.58 45.7773C297.24 48.5443 298.07 51.7344 298.07 55.3477C298.07 58.4727 297.436 61.2559 296.166 63.6973C294.929 66.1061 293.204 68.1406 290.99 69.8008C288.777 71.4935 286.14 72.7793 283.08 73.6582C280.02 74.5046 276.684 74.9277 273.07 74.9277C269.522 74.9277 266.007 74.4069 262.523 73.3652C259.073 72.291 256.062 70.7285 253.49 68.6777C251.049 66.6595 249.112 64.2832 247.68 61.5488C246.28 58.8145 245.58 55.6081 245.58 51.9297H259.057C259.122 54.0781 259.496 55.9173 260.18 57.4473C260.863 58.9772 261.824 60.2305 263.061 61.207C264.265 62.1836 265.714 62.8997 267.406 63.3555C269.132 63.8112 271.02 64.0391 273.07 64.0391C274.893 64.0391 276.505 63.8275 277.904 63.4043C279.337 62.9811 280.541 62.3952 281.518 61.6465C282.494 60.8978 283.243 60.0026 283.764 58.9609C284.285 57.8867 284.545 56.7148 284.545 55.4453Z"/>
</mask>
<path d="M42.3574 59.1562L43.3205 58.887L43.1162 58.1562H42.3574V59.1562ZM21.0195 59.1562V58.1562H20.2632L20.0573 58.884L21.0195 59.1562ZM16.8203 74V75H17.5767L17.7825 74.2722L16.8203 74ZM2.36719 74L1.41689 73.6887L0.987281 75H2.36719V74ZM25.6582 2.90625V1.90625H24.9335L24.7079 2.59492L25.6582 2.90625ZM38.1094 2.90625L39.0614 2.60024L38.8383 1.90625H38.1094V2.90625ZM60.9609 74V75H62.3328L61.913 73.694L60.9609 74ZM46.5078 74L45.5447 74.2693L45.7491 75H46.5078V74ZM24.3887 47.4863L23.4271 47.2118L23.0633 48.4863H24.3887V47.4863ZM39.1348 47.4863V48.4863H40.4507L40.0982 47.2185L39.1348 47.4863ZM31.8594 21.3145L32.8228 21.0466L31.8721 17.6266L30.8978 21.04L31.8594 21.3145ZM42.3574 58.1562H21.0195V60.1562H42.3574V58.1562ZM20.0573 58.884L15.8581 73.7278L17.7825 74.2722L21.9818 59.4285L20.0573 58.884ZM16.8203 73H2.36719V75H16.8203V73ZM3.31749 74.3113L26.6085 3.21758L24.7079 2.59492L1.41689 73.6887L3.31749 74.3113ZM25.6582 3.90625H38.1094V1.90625H25.6582V3.90625ZM37.1573 3.21226L60.0089 74.306L61.913 73.694L39.0614 2.60024L37.1573 3.21226ZM60.9609 73H46.5078V75H60.9609V73ZM47.4709 73.7307L43.3205 58.887L41.3944 59.4255L45.5447 74.2693L47.4709 73.7307ZM24.3887 48.4863H39.1348V46.4863H24.3887V48.4863ZM40.0982 47.2185L32.8228 21.0466L30.8959 21.5823L38.1713 47.7542L40.0982 47.2185ZM30.8978 21.04L23.4271 47.2118L25.3503 47.7608L32.821 21.5889L30.8978 21.04ZM70.4824 2.90625V1.90625H69.4824V2.90625H70.4824ZM111.596 2.90625H112.596V1.90625H111.596V2.90625ZM111.596 13.9902V14.9902H112.596V13.9902H111.596ZM97.7285 13.9902V12.9902H96.7285V13.9902H97.7285ZM97.7285 62.9648H96.7285V63.9648H97.7285V62.9648ZM111.596 62.9648H112.596V61.9648H111.596V62.9648ZM111.596 74V75H112.596V74H111.596ZM70.4824 74H69.4824V75H70.4824V74ZM70.4824 62.9648V61.9648H69.4824V62.9648H70.4824ZM84.0078 62.9648V63.9648H85.0078V62.9648H84.0078ZM84.0078 13.9902H85.0078V12.9902H84.0078V13.9902ZM70.4824 13.9902H69.4824V14.9902H70.4824V13.9902ZM70.4824 3.90625H111.596V1.90625H70.4824V3.90625ZM110.596 2.90625V13.9902H112.596V2.90625H110.596ZM111.596 12.9902H97.7285V14.9902H111.596V12.9902ZM96.7285 13.9902V62.9648H98.7285V13.9902H96.7285ZM97.7285 63.9648H111.596V61.9648H97.7285V63.9648ZM110.596 62.9648V74H112.596V62.9648H110.596ZM111.596 73H70.4824V75H111.596V73ZM71.4824 74V62.9648H69.4824V74H71.4824ZM70.4824 63.9648H84.0078V61.9648H70.4824V63.9648ZM85.0078 62.9648V13.9902H83.0078V62.9648H85.0078ZM84.0078 12.9902H70.4824V14.9902H84.0078V12.9902ZM71.4824 13.9902V2.90625H69.4824V13.9902H71.4824ZM151.635 47.4375L152.528 46.9877L152.251 46.4375H151.635V47.4375ZM141.234 47.4375V46.4375H140.234V47.4375H141.234ZM141.234 74V75H142.234V74H141.234ZM127.514 74H126.514V75H127.514V74ZM127.514 2.90625V1.90625H126.514V2.90625H127.514ZM162.035 4.32227L161.751 5.2812L161.76 5.28379L162.035 4.32227ZM170.238 8.375L170.862 7.59301L170.856 7.58868L170.238 8.375ZM175.414 15.0645L174.503 15.4758L174.507 15.4849L175.414 15.0645ZM176.342 31.2266L175.384 30.9378L175.381 30.9478L176.342 31.2266ZM173.803 36.6465L174.622 37.22L174.624 37.2166L173.803 36.6465ZM169.701 40.8945L169.099 40.0965L169.091 40.1025L169.701 40.8945ZM164.428 44.0195L164.017 43.1076L163.052 43.5422L163.541 44.4814L164.428 44.0195ZM179.711 73.3652H180.711V73.1204L180.598 72.9033L179.711 73.3652ZM179.711 74V75H180.711V74H179.711ZM165.014 74L164.121 74.4498L164.398 75H165.014V74ZM141.234 36.3047H140.234V37.3047H141.234V36.3047ZM156.957 35.4258L157.302 36.3645L157.312 36.3606L156.957 35.4258ZM160.912 32.7891L160.179 32.1086L160.171 32.1172L160.164 32.126L160.912 32.7891ZM162.816 29.5176L161.875 29.1797L161.871 29.1905L161.868 29.2014L162.816 29.5176ZM162.621 20.2891L161.686 20.6425L161.69 20.6551L161.696 20.6677L162.621 20.2891ZM160.082 16.6758L159.439 17.442L159.444 17.4458L160.082 16.6758ZM141.234 14.0391V13.0391H140.234V14.0391H141.234ZM151.635 46.4375H141.234V48.4375H151.635V46.4375ZM140.234 47.4375V74H142.234V47.4375H140.234ZM141.234 73H127.514V75H141.234V73ZM128.514 74V2.90625H126.514V74H128.514ZM127.514 3.90625H151.342V1.90625H127.514V3.90625ZM151.342 3.90625C155.202 3.90625 158.669 4.36888 161.751 5.28116L162.319 3.36337C159.022 2.38763 155.36 1.90625 151.342 1.90625V3.90625ZM161.76 5.28379C164.844 6.16475 167.457 7.4618 169.62 9.16132L170.856 7.58868C168.462 5.70747 165.607 4.3027 162.31 3.36074L161.76 5.28379ZM169.615 9.15697C171.734 10.8464 173.362 12.9482 174.503 15.4757L176.326 14.6532C175.057 11.8421 173.234 9.48432 170.862 7.59303L169.615 9.15697ZM174.507 15.4849C175.672 17.9992 176.27 20.9435 176.27 24.3418H178.27C178.27 20.7089 177.63 17.4682 176.321 14.644L174.507 15.4849ZM176.27 24.3418C176.27 26.8006 175.97 28.9961 175.384 30.9378L177.299 31.5153C177.951 29.3554 178.27 26.9611 178.27 24.3418H176.27ZM175.381 30.9478C174.823 32.8706 174.021 34.5773 172.981 36.0764L174.624 37.2166C175.798 35.5255 176.689 33.619 177.302 31.5054L175.381 30.9478ZM172.984 36.073C171.905 37.6144 170.611 38.9547 169.099 40.0965L170.304 41.6926C171.982 40.4255 173.422 38.9338 174.622 37.2199L172.984 36.073ZM169.091 40.1025C167.595 41.2554 165.905 42.258 164.017 43.1076L164.838 44.9315C166.856 44.0232 168.682 42.9425 170.312 41.6865L169.091 40.1025ZM163.541 44.4814L178.824 73.8271L180.598 72.9033L165.315 43.5576L163.541 44.4814ZM178.711 73.3652V74H180.711V73.3652H178.711ZM179.711 73H165.014V75H179.711V73ZM165.907 73.5502L152.528 46.9877L150.742 47.8873L164.121 74.4498L165.907 73.5502ZM141.234 37.3047H151.391V35.3047H141.234V37.3047ZM151.391 37.3047C153.596 37.3047 155.573 36.9995 157.302 36.3645L156.612 34.4871C155.151 35.0239 153.417 35.3047 151.391 35.3047V37.3047ZM157.312 36.3606C159.069 35.693 160.53 34.7289 161.661 33.4521L160.164 32.126C159.276 33.1279 158.1 33.9216 156.602 34.491L157.312 36.3606ZM161.645 33.4695C162.596 32.4457 163.3 31.2283 163.765 29.8338L161.868 29.2014C161.486 30.3459 160.921 31.3095 160.179 32.1086L161.645 33.4695ZM163.758 29.8554C164.258 28.4618 164.5 26.9293 164.5 25.2695H162.5C162.5 26.7348 162.286 28.0342 161.875 29.1797L163.758 29.8554ZM164.5 25.2695C164.5 23.2795 164.191 21.4862 163.547 19.9104L161.696 20.6677C162.223 21.9565 162.5 23.4836 162.5 25.2695H164.5ZM163.557 19.9357C162.946 18.3183 162.001 16.967 160.72 15.9058L159.444 17.4458C160.442 18.2726 161.19 19.3301 161.686 20.6425L163.557 19.9357ZM160.725 15.9096C159.599 14.9652 158.239 14.2565 156.668 13.7678L156.074 15.6775C157.433 16.1003 158.547 16.6936 159.439 17.442L160.725 15.9096ZM156.668 13.7678C155.088 13.2762 153.308 13.0391 151.342 13.0391V15.0391C153.151 15.0391 154.725 15.2577 156.074 15.6775L156.668 13.7678ZM151.342 13.0391H141.234V15.0391H151.342V13.0391ZM140.234 14.0391V36.3047H142.234V14.0391H140.234ZM190.6 2.90625V1.90625H189.6V2.90625H190.6ZM231.713 2.90625H232.713V1.90625H231.713V2.90625ZM231.713 13.9902V14.9902H232.713V13.9902H231.713ZM217.846 13.9902V12.9902H216.846V13.9902H217.846ZM217.846 62.9648H216.846V63.9648H217.846V62.9648ZM231.713 62.9648H232.713V61.9648H231.713V62.9648ZM231.713 74V75H232.713V74H231.713ZM190.6 74H189.6V75H190.6V74ZM190.6 62.9648V61.9648H189.6V62.9648H190.6ZM204.125 62.9648V63.9648H205.125V62.9648H204.125ZM204.125 13.9902H205.125V12.9902H204.125V13.9902ZM190.6 13.9902H189.6V14.9902H190.6V13.9902ZM190.6 3.90625H231.713V1.90625H190.6V3.90625ZM230.713 2.90625V13.9902H232.713V2.90625H230.713ZM231.713 12.9902H217.846V14.9902H231.713V12.9902ZM216.846 13.9902V62.9648H218.846V13.9902H216.846ZM217.846 63.9648H231.713V61.9648H217.846V63.9648ZM230.713 62.9648V74H232.713V62.9648H230.713ZM231.713 73H190.6V75H231.713V73ZM191.6 74V62.9648H189.6V74H191.6ZM190.6 63.9648H204.125V61.9648H190.6V63.9648ZM205.125 62.9648V13.9902H203.125V62.9648H205.125ZM204.125 12.9902H190.6V14.9902H204.125V12.9902ZM191.6 13.9902V2.90625H189.6V13.9902H191.6ZM283.861 51.8809L282.927 52.238L282.932 52.2499L282.937 52.2616L283.861 51.8809ZM281.664 48.7559L282.348 48.0263L282.336 48.0153L282.324 48.0047L281.664 48.7559ZM277.465 46.168L277.032 47.0692L277.042 47.0742L277.052 47.0789L277.465 46.168ZM271.117 43.9219L270.854 44.8866L270.857 44.8875L271.117 43.9219ZM260.717 40.0156L260.258 40.9041L260.262 40.9061L260.717 40.0156ZM253.441 34.9863L252.747 35.7057L253.441 34.9863ZM249.145 28.9316L248.225 29.324L248.23 29.3353L249.145 28.9316ZM262.865 3.3457L263.151 4.30413L263.16 4.30126L262.865 3.3457ZM282.982 3.54102L282.651 4.48457L282.654 4.48565L282.982 3.54102ZM290.941 8.0332L291.603 7.28334L291.597 7.27788L290.941 8.0332ZM297.973 23.7559V24.7559H298.973V23.7559H297.973ZM284.594 23.7559L283.595 23.7966L283.634 24.7559H284.594V23.7559ZM283.715 19.3613L282.776 19.7049L282.779 19.7149L282.783 19.7249L283.715 19.3613ZM281.518 15.8945L282.225 15.1874L282.213 15.1756L282.201 15.1643L281.518 15.8945ZM277.758 13.6973L277.404 14.6327L277.417 14.6374L277.429 14.6418L277.758 13.6973ZM267.699 13.5508L267.989 14.508L267.996 14.5059L268.002 14.5037L267.699 13.5508ZM264.135 15.3574L263.51 14.5766L263.502 14.5828L263.495 14.5892L264.135 15.3574ZM261.889 18.2383L260.984 17.8124L260.978 17.8245L261.889 18.2383ZM262.133 25.3672L261.278 25.8855L261.283 25.8948L261.289 25.9041L262.133 25.3672ZM265.062 28.248L265.632 27.4259L265.624 27.4209L265.617 27.416L265.062 28.248ZM269.652 30.6406L269.281 31.5691L269.287 31.5714L269.652 30.6406ZM275.805 32.6426L276.074 31.6796L276.067 31.6775L275.805 32.6426ZM288.891 38.502L289.488 37.6997L289.472 37.6879L289.455 37.6766L288.891 38.502ZM296.166 63.6973L295.279 63.2359L295.276 63.2405L296.166 63.6973ZM290.99 69.8008L290.39 69.0007L290.383 69.0064L290.99 69.8008ZM283.08 73.6582L283.347 74.6221L283.356 74.6193L283.08 73.6582ZM262.523 73.3652L262.226 74.3201L262.237 74.3233L262.523 73.3652ZM253.49 68.6777L252.853 69.4485L252.86 69.4541L252.867 69.4596L253.49 68.6777ZM247.68 61.5488L246.79 62.0045L246.794 62.0128L247.68 61.5488ZM245.58 51.9297V50.9297H244.58V51.9297H245.58ZM259.057 51.9297L260.056 51.8994L260.027 50.9297H259.057V51.9297ZM263.061 61.207L263.69 60.4302L263.68 60.4221L263.061 61.207ZM267.406 63.3555L267.146 64.3211L267.151 64.3223L267.406 63.3555ZM277.904 63.4043L277.621 62.4453L277.615 62.4471L277.904 63.4043ZM281.518 61.6465L280.909 60.8529L281.518 61.6465ZM283.764 58.9609L284.658 59.4082L284.663 59.3972L283.764 58.9609ZM285.545 55.4453C285.545 54.0532 285.294 52.7349 284.786 51.5001L282.937 52.2616C283.34 53.2404 283.545 54.2984 283.545 55.4453H285.545ZM284.795 51.5237C284.308 50.2494 283.478 49.0855 282.348 48.0263L280.98 49.4854C281.934 50.3793 282.568 51.2988 282.927 52.238L284.795 51.5237ZM282.324 48.0047C281.156 46.9783 279.665 46.0666 277.877 45.257L277.052 47.0789C278.715 47.8318 280.023 48.6454 281.004 49.507L282.324 48.0047ZM277.898 45.2667C276.133 44.4179 273.954 43.6501 271.377 42.9563L270.857 44.8875C273.358 45.5609 275.412 46.2904 277.032 47.0692L277.898 45.2667ZM271.38 42.9571C267.494 41.8973 264.094 40.618 261.172 39.1251L260.262 40.9061C263.329 42.4732 266.862 43.798 270.854 44.8866L271.38 42.9571ZM261.176 39.1271C258.278 37.6304 255.938 36.007 254.136 34.2669L252.747 35.7057C254.721 37.6115 257.231 39.341 260.258 40.9041L261.176 39.1271ZM254.136 34.2669C252.333 32.5263 250.979 30.6133 250.059 28.528L248.23 29.3353C249.263 31.6771 250.774 33.8005 252.747 35.7057L254.136 34.2669ZM250.064 28.5394C249.177 26.4597 248.729 24.1856 248.729 21.7051H246.729C246.729 24.4329 247.224 26.9765 248.225 29.3239L250.064 28.5394ZM248.729 21.7051C248.729 18.8564 249.331 16.2987 250.52 14.0121L248.746 13.0894C247.396 15.6857 246.729 18.5642 246.729 21.7051H248.729ZM250.52 14.0121C251.72 11.7041 253.382 9.73283 255.515 8.09383L254.297 6.50773C251.939 8.31926 250.084 10.5146 248.746 13.0894L250.52 14.0121ZM255.515 8.09383C257.653 6.45185 260.193 5.18508 263.151 4.30409L262.58 2.38732C259.418 3.32924 256.652 4.69919 254.297 6.50773L255.515 8.09383ZM263.16 4.30126C266.114 3.38996 269.334 2.92969 272.826 2.92969V0.929688C269.157 0.929688 265.736 1.41342 262.57 2.39014L263.16 4.30126ZM272.826 2.92969C276.44 2.92969 279.712 3.45267 282.651 4.48456L283.314 2.59747C280.133 1.48092 276.634 0.929688 272.826 0.929688V2.92969ZM282.654 4.48565C285.641 5.52301 288.179 6.9605 290.286 8.78853L291.597 7.27788C289.277 5.26476 286.509 3.70745 283.311 2.59638L282.654 4.48565ZM290.28 8.78304C292.39 10.6449 294.031 12.844 295.21 15.3873L297.024 14.5463C295.729 11.751 293.92 9.32777 291.603 7.28337L290.28 8.78304ZM295.21 15.3873C296.381 17.9139 296.973 20.6986 296.973 23.7559H298.973C298.973 20.433 298.328 17.3582 297.024 14.5463L295.21 15.3873ZM297.973 22.7559H284.594V24.7559H297.973V22.7559ZM285.593 23.7151C285.524 22.022 285.212 20.4466 284.646 18.9978L282.783 19.7249C283.26 20.9453 283.533 22.2996 283.595 23.7966L285.593 23.7151ZM284.654 19.0177C284.117 17.5506 283.307 16.2699 282.225 15.1874L280.81 16.6016C281.681 17.4723 282.336 18.5028 282.776 19.7049L284.654 19.0177ZM282.201 15.1643C281.076 14.1118 279.696 13.3127 278.086 12.7528L277.429 14.6418C278.814 15.1235 279.941 15.7892 280.834 16.6248L282.201 15.1643ZM278.111 12.7618C276.508 12.156 274.657 11.8672 272.582 11.8672V13.8672C274.478 13.8672 276.078 14.1317 277.404 14.6327L278.111 12.7618ZM272.582 11.8672C270.677 11.8672 268.945 12.1051 267.396 12.5979L268.002 14.5037C269.318 14.085 270.841 13.8672 272.582 13.8672V11.8672ZM267.41 12.5936C265.908 13.0475 264.601 13.7034 263.51 14.5766L264.759 16.1383C265.621 15.4489 266.691 14.9004 267.989 14.508L267.41 12.5936ZM263.495 14.5892C262.41 15.4927 261.569 16.5684 260.984 17.8125L262.793 18.6641C263.25 17.6946 263.906 16.8498 264.775 16.1256L263.495 14.5892ZM260.978 17.8245C260.427 19.0383 260.156 20.3526 260.156 21.7539H262.156C262.156 20.6161 262.374 19.5867 262.799 18.6521L260.978 17.8245ZM260.156 21.7539C260.156 23.2594 260.526 24.6451 261.278 25.8855L262.988 24.8489C262.438 23.9408 262.156 22.9177 262.156 21.7539H260.156ZM261.289 25.9041C262.061 27.1166 263.145 28.1716 264.508 29.0801L265.617 27.416C264.441 26.6318 263.572 25.7662 262.976 24.8303L261.289 25.9041ZM264.493 29.0702C265.838 30.0009 267.437 30.8316 269.281 31.5691L270.024 29.7121C268.287 29.0173 266.826 28.253 265.632 27.4259L264.493 29.0702ZM269.287 31.5714C271.15 32.3032 273.236 32.9815 275.543 33.6077L276.067 31.6775C273.816 31.0667 271.801 30.4103 270.018 29.7099L269.287 31.5714ZM275.535 33.6055C277.933 34.2769 280.215 35.0912 282.383 36.0477L283.191 34.2179C280.932 33.2213 278.559 32.3754 276.074 31.6796L275.535 33.6055ZM282.383 36.0477C284.545 37.0013 286.525 38.095 288.326 39.3273L289.455 37.6766C287.545 36.3698 285.456 35.2174 283.191 34.2179L282.383 36.0477ZM288.294 39.3042C290.997 41.3159 293.135 43.6458 294.723 46.2918L296.438 45.2628C294.705 42.3751 292.383 39.8546 289.488 37.6997L288.294 39.3042ZM294.723 46.2918C296.279 48.8853 297.07 51.8934 297.07 55.3477H299.07C299.07 51.5754 298.202 48.2032 296.438 45.2628L294.723 46.2918ZM297.07 55.3477C297.07 58.334 296.465 60.9553 295.279 63.2359L297.053 64.1586C298.406 61.5564 299.07 58.6113 299.07 55.3477H297.07ZM295.276 63.2405C294.11 65.5114 292.485 67.4295 290.39 69.0008L291.59 70.6008C293.922 68.8517 295.748 66.7008 297.056 64.1541L295.276 63.2405ZM290.383 69.0064C288.281 70.6134 285.761 71.8477 282.804 72.6971L283.356 74.6193C286.519 73.7109 289.272 72.3736 291.598 70.5951L290.383 69.0064ZM282.813 72.6944C279.851 73.5137 276.606 73.9277 273.07 73.9277V75.9277C276.762 75.9277 280.189 75.4954 283.347 74.622L282.813 72.6944ZM273.07 73.9277C269.622 73.9277 266.202 73.4217 262.81 72.4072L262.237 74.3233C265.811 75.3921 269.423 75.9277 273.07 75.9277V73.9277ZM262.821 72.4104C259.477 71.3695 256.579 69.862 254.114 67.8959L252.867 69.4596C255.545 71.5951 258.669 73.2126 262.226 74.32L262.821 72.4104ZM254.127 67.907C251.786 65.9712 249.934 63.6983 248.566 61.0848L246.794 62.0128C248.289 64.8681 250.312 67.3478 252.853 69.4485L254.127 67.907ZM248.57 61.0932C247.255 58.5251 246.58 55.4807 246.58 51.9297H244.58C244.58 55.7355 245.305 59.1038 246.79 62.0045L248.57 61.0932ZM245.58 52.9297H259.057V50.9297H245.58V52.9297ZM258.057 51.96C258.125 54.2035 258.517 56.1778 259.267 57.8552L261.093 57.0393C260.475 55.6569 260.118 53.9528 260.056 51.8994L258.057 51.96ZM259.267 57.8552C260.012 59.5231 261.069 60.9089 262.441 61.9919L263.68 60.4221C262.578 59.552 261.715 58.4314 261.093 57.0393L259.267 57.8552ZM262.431 61.9838C263.757 63.0593 265.336 63.8337 267.146 64.3211L267.666 62.3899C266.091 61.9658 264.773 61.3079 263.69 60.4303L262.431 61.9838ZM267.151 64.3223C268.971 64.803 270.946 65.0391 273.07 65.0391V63.0391C271.093 63.0391 269.292 62.8194 267.662 62.3886L267.151 64.3223ZM273.07 65.0391C274.968 65.0391 276.68 64.819 278.194 64.3615L277.615 62.4471C276.329 62.8359 274.818 63.0391 273.07 63.0391V65.0391ZM278.188 64.3633C279.713 63.9126 281.034 63.2774 282.126 62.4401L280.909 60.8529C280.048 61.5129 278.96 62.0496 277.621 62.4453L278.188 64.3633ZM282.126 62.4401C283.216 61.6045 284.066 60.5931 284.658 59.4082L282.869 58.5137C282.42 59.4121 281.772 60.1911 280.909 60.8529L282.126 62.4401ZM284.663 59.3972C285.254 58.1785 285.545 56.8562 285.545 55.4453H283.545C283.545 56.5735 283.315 57.595 282.864 58.5247L284.663 59.3972Z" fill="#565656" mask="url(#path-1-outside-1_192_21)"/>
<path d="M42.3574 59.1562L43.3205 58.887L43.1162 58.1562H42.3574V59.1562ZM21.0195 59.1562V58.1562H20.2632L20.0573 58.884L21.0195 59.1562ZM16.8203 74V75H17.5767L17.7825 74.2722L16.8203 74ZM2.36719 74L1.41689 73.6887L0.987281 75H2.36719V74ZM25.6582 2.90625V1.90625H24.9335L24.7079 2.59492L25.6582 2.90625ZM38.1094 2.90625L39.0614 2.60024L38.8383 1.90625H38.1094V2.90625ZM60.9609 74V75H62.3328L61.913 73.694L60.9609 74ZM46.5078 74L45.5447 74.2693L45.7491 75H46.5078V74ZM24.3887 47.4863L23.4271 47.2118L23.0633 48.4863H24.3887V47.4863ZM39.1348 47.4863V48.4863H40.4507L40.0982 47.2185L39.1348 47.4863ZM31.8594 21.3145L32.8228 21.0466L31.8721 17.6266L30.8978 21.04L31.8594 21.3145ZM42.3574 58.1562H21.0195V60.1562H42.3574V58.1562ZM20.0573 58.884L15.8581 73.7278L17.7825 74.2722L21.9818 59.4285L20.0573 58.884ZM16.8203 73H2.36719V75H16.8203V73ZM3.31749 74.3113L26.6085 3.21758L24.7079 2.59492L1.41689 73.6887L3.31749 74.3113ZM25.6582 3.90625H38.1094V1.90625H25.6582V3.90625ZM37.1573 3.21226L60.0089 74.306L61.913 73.694L39.0614 2.60024L37.1573 3.21226ZM60.9609 73H46.5078V75H60.9609V73ZM47.4709 73.7307L43.3205 58.887L41.3944 59.4255L45.5447 74.2693L47.4709 73.7307ZM24.3887 48.4863H39.1348V46.4863H24.3887V48.4863ZM40.0982 47.2185L32.8228 21.0466L30.8959 21.5823L38.1713 47.7542L40.0982 47.2185ZM30.8978 21.04L23.4271 47.2118L25.3503 47.7608L32.821 21.5889L30.8978 21.04ZM70.4824 2.90625V1.90625H69.4824V2.90625H70.4824ZM111.596 2.90625H112.596V1.90625H111.596V2.90625ZM111.596 13.9902V14.9902H112.596V13.9902H111.596ZM97.7285 13.9902V12.9902H96.7285V13.9902H97.7285ZM97.7285 62.9648H96.7285V63.9648H97.7285V62.9648ZM111.596 62.9648H112.596V61.9648H111.596V62.9648ZM111.596 74V75H112.596V74H111.596ZM70.4824 74H69.4824V75H70.4824V74ZM70.4824 62.9648V61.9648H69.4824V62.9648H70.4824ZM84.0078 62.9648V63.9648H85.0078V62.9648H84.0078ZM84.0078 13.9902H85.0078V12.9902H84.0078V13.9902ZM70.4824 13.9902H69.4824V14.9902H70.4824V13.9902ZM70.4824 3.90625H111.596V1.90625H70.4824V3.90625ZM110.596 2.90625V13.9902H112.596V2.90625H110.596ZM111.596 12.9902H97.7285V14.9902H111.596V12.9902ZM96.7285 13.9902V62.9648H98.7285V13.9902H96.7285ZM97.7285 63.9648H111.596V61.9648H97.7285V63.9648ZM110.596 62.9648V74H112.596V62.9648H110.596ZM111.596 73H70.4824V75H111.596V73ZM71.4824 74V62.9648H69.4824V74H71.4824ZM70.4824 63.9648H84.0078V61.9648H70.4824V63.9648ZM85.0078 62.9648V13.9902H83.0078V62.9648H85.0078ZM84.0078 12.9902H70.4824V14.9902H84.0078V12.9902ZM71.4824 13.9902V2.90625H69.4824V13.9902H71.4824ZM151.635 47.4375L152.528 46.9877L152.251 46.4375H151.635V47.4375ZM141.234 47.4375V46.4375H140.234V47.4375H141.234ZM141.234 74V75H142.234V74H141.234ZM127.514 74H126.514V75H127.514V74ZM127.514 2.90625V1.90625H126.514V2.90625H127.514ZM162.035 4.32227L161.751 5.2812L161.76 5.28379L162.035 4.32227ZM170.238 8.375L170.862 7.59301L170.856 7.58868L170.238 8.375ZM175.414 15.0645L174.503 15.4758L174.507 15.4849L175.414 15.0645ZM176.342 31.2266L175.384 30.9378L175.381 30.9478L176.342 31.2266ZM173.803 36.6465L174.622 37.22L174.624 37.2166L173.803 36.6465ZM169.701 40.8945L169.099 40.0965L169.091 40.1025L169.701 40.8945ZM164.428 44.0195L164.017 43.1076L163.052 43.5422L163.541 44.4814L164.428 44.0195ZM179.711 73.3652H180.711V73.1204L180.598 72.9033L179.711 73.3652ZM179.711 74V75H180.711V74H179.711ZM165.014 74L164.121 74.4498L164.398 75H165.014V74ZM141.234 36.3047H140.234V37.3047H141.234V36.3047ZM156.957 35.4258L157.302 36.3645L157.312 36.3606L156.957 35.4258ZM160.912 32.7891L160.179 32.1086L160.171 32.1172L160.164 32.126L160.912 32.7891ZM162.816 29.5176L161.875 29.1797L161.871 29.1905L161.868 29.2014L162.816 29.5176ZM162.621 20.2891L161.686 20.6425L161.69 20.6551L161.696 20.6677L162.621 20.2891ZM160.082 16.6758L159.439 17.442L159.444 17.4458L160.082 16.6758ZM141.234 14.0391V13.0391H140.234V14.0391H141.234ZM151.635 46.4375H141.234V48.4375H151.635V46.4375ZM140.234 47.4375V74H142.234V47.4375H140.234ZM141.234 73H127.514V75H141.234V73ZM128.514 74V2.90625H126.514V74H128.514ZM127.514 3.90625H151.342V1.90625H127.514V3.90625ZM151.342 3.90625C155.202 3.90625 158.669 4.36888 161.751 5.28116L162.319 3.36337C159.022 2.38763 155.36 1.90625 151.342 1.90625V3.90625ZM161.76 5.28379C164.844 6.16475 167.457 7.4618 169.62 9.16132L170.856 7.58868C168.462 5.70747 165.607 4.3027 162.31 3.36074L161.76 5.28379ZM169.615 9.15697C171.734 10.8464 173.362 12.9482 174.503 15.4757L176.326 14.6532C175.057 11.8421 173.234 9.48432 170.862 7.59303L169.615 9.15697ZM174.507 15.4849C175.672 17.9992 176.27 20.9435 176.27 24.3418H178.27C178.27 20.7089 177.63 17.4682 176.321 14.644L174.507 15.4849ZM176.27 24.3418C176.27 26.8006 175.97 28.9961 175.384 30.9378L177.299 31.5153C177.951 29.3554 178.27 26.9611 178.27 24.3418H176.27ZM175.381 30.9478C174.823 32.8706 174.021 34.5773 172.981 36.0764L174.624 37.2166C175.798 35.5255 176.689 33.619 177.302 31.5054L175.381 30.9478ZM172.984 36.073C171.905 37.6144 170.611 38.9547 169.099 40.0965L170.304 41.6926C171.982 40.4255 173.422 38.9338 174.622 37.2199L172.984 36.073ZM169.091 40.1025C167.595 41.2554 165.905 42.258 164.017 43.1076L164.838 44.9315C166.856 44.0232 168.682 42.9425 170.312 41.6865L169.091 40.1025ZM163.541 44.4814L178.824 73.8271L180.598 72.9033L165.315 43.5576L163.541 44.4814ZM178.711 73.3652V74H180.711V73.3652H178.711ZM179.711 73H165.014V75H179.711V73ZM165.907 73.5502L152.528 46.9877L150.742 47.8873L164.121 74.4498L165.907 73.5502ZM141.234 37.3047H151.391V35.3047H141.234V37.3047ZM151.391 37.3047C153.596 37.3047 155.573 36.9995 157.302 36.3645L156.612 34.4871C155.151 35.0239 153.417 35.3047 151.391 35.3047V37.3047ZM157.312 36.3606C159.069 35.693 160.53 34.7289 161.661 33.4521L160.164 32.126C159.276 33.1279 158.1 33.9216 156.602 34.491L157.312 36.3606ZM161.645 33.4695C162.596 32.4457 163.3 31.2283 163.765 29.8338L161.868 29.2014C161.486 30.3459 160.921 31.3095 160.179 32.1086L161.645 33.4695ZM163.758 29.8554C164.258 28.4618 164.5 26.9293 164.5 25.2695H162.5C162.5 26.7348 162.286 28.0342 161.875 29.1797L163.758 29.8554ZM164.5 25.2695C164.5 23.2795 164.191 21.4862 163.547 19.9104L161.696 20.6677C162.223 21.9565 162.5 23.4836 162.5 25.2695H164.5ZM163.557 19.9357C162.946 18.3183 162.001 16.967 160.72 15.9058L159.444 17.4458C160.442 18.2726 161.19 19.3301 161.686 20.6425L163.557 19.9357ZM160.725 15.9096C159.599 14.9652 158.239 14.2565 156.668 13.7678L156.074 15.6775C157.433 16.1003 158.547 16.6936 159.439 17.442L160.725 15.9096ZM156.668 13.7678C155.088 13.2762 153.308 13.0391 151.342 13.0391V15.0391C153.151 15.0391 154.725 15.2577 156.074 15.6775L156.668 13.7678ZM151.342 13.0391H141.234V15.0391H151.342V13.0391ZM140.234 14.0391V36.3047H142.234V14.0391H140.234ZM190.6 2.90625V1.90625H189.6V2.90625H190.6ZM231.713 2.90625H232.713V1.90625H231.713V2.90625ZM231.713 13.9902V14.9902H232.713V13.9902H231.713ZM217.846 13.9902V12.9902H216.846V13.9902H217.846ZM217.846 62.9648H216.846V63.9648H217.846V62.9648ZM231.713 62.9648H232.713V61.9648H231.713V62.9648ZM231.713 74V75H232.713V74H231.713ZM190.6 74H189.6V75H190.6V74ZM190.6 62.9648V61.9648H189.6V62.9648H190.6ZM204.125 62.9648V63.9648H205.125V62.9648H204.125ZM204.125 13.9902H205.125V12.9902H204.125V13.9902ZM190.6 13.9902H189.6V14.9902H190.6V13.9902ZM190.6 3.90625H231.713V1.90625H190.6V3.90625ZM230.713 2.90625V13.9902H232.713V2.90625H230.713ZM231.713 12.9902H217.846V14.9902H231.713V12.9902ZM216.846 13.9902V62.9648H218.846V13.9902H216.846ZM217.846 63.9648H231.713V61.9648H217.846V63.9648ZM230.713 62.9648V74H232.713V62.9648H230.713ZM231.713 73H190.6V75H231.713V73ZM191.6 74V62.9648H189.6V74H191.6ZM190.6 63.9648H204.125V61.9648H190.6V63.9648ZM205.125 62.9648V13.9902H203.125V62.9648H205.125ZM204.125 12.9902H190.6V14.9902H204.125V12.9902ZM191.6 13.9902V2.90625H189.6V13.9902H191.6ZM283.861 51.8809L282.927 52.238L282.932 52.2499L282.937 52.2616L283.861 51.8809ZM281.664 48.7559L282.348 48.0263L282.336 48.0153L282.324 48.0047L281.664 48.7559ZM277.465 46.168L277.032 47.0692L277.042 47.0742L277.052 47.0789L277.465 46.168ZM271.117 43.9219L270.854 44.8866L270.857 44.8875L271.117 43.9219ZM260.717 40.0156L260.258 40.9041L260.262 40.9061L260.717 40.0156ZM253.441 34.9863L252.747 35.7057L253.441 34.9863ZM249.145 28.9316L248.225 29.324L248.23 29.3353L249.145 28.9316ZM262.865 3.3457L263.151 4.30413L263.16 4.30126L262.865 3.3457ZM282.982 3.54102L282.651 4.48457L282.654 4.48565L282.982 3.54102ZM290.941 8.0332L291.603 7.28334L291.597 7.27788L290.941 8.0332ZM297.973 23.7559V24.7559H298.973V23.7559H297.973ZM284.594 23.7559L283.595 23.7966L283.634 24.7559H284.594V23.7559ZM283.715 19.3613L282.776 19.7049L282.779 19.7149L282.783 19.7249L283.715 19.3613ZM281.518 15.8945L282.225 15.1874L282.213 15.1756L282.201 15.1643L281.518 15.8945ZM277.758 13.6973L277.404 14.6327L277.417 14.6374L277.429 14.6418L277.758 13.6973ZM267.699 13.5508L267.989 14.508L267.996 14.5059L268.002 14.5037L267.699 13.5508ZM264.135 15.3574L263.51 14.5766L263.502 14.5828L263.495 14.5892L264.135 15.3574ZM261.889 18.2383L260.984 17.8124L260.978 17.8245L261.889 18.2383ZM262.133 25.3672L261.278 25.8855L261.283 25.8948L261.289 25.9041L262.133 25.3672ZM265.062 28.248L265.632 27.4259L265.624 27.4209L265.617 27.416L265.062 28.248ZM269.652 30.6406L269.281 31.5691L269.287 31.5714L269.652 30.6406ZM275.805 32.6426L276.074 31.6796L276.067 31.6775L275.805 32.6426ZM288.891 38.502L289.488 37.6997L289.472 37.6879L289.455 37.6766L288.891 38.502ZM296.166 63.6973L295.279 63.2359L295.276 63.2405L296.166 63.6973ZM290.99 69.8008L290.39 69.0007L290.383 69.0064L290.99 69.8008ZM283.08 73.6582L283.347 74.6221L283.356 74.6193L283.08 73.6582ZM262.523 73.3652L262.226 74.3201L262.237 74.3233L262.523 73.3652ZM253.49 68.6777L252.853 69.4485L252.86 69.4541L252.867 69.4596L253.49 68.6777ZM247.68 61.5488L246.79 62.0045L246.794 62.0128L247.68 61.5488ZM245.58 51.9297V50.9297H244.58V51.9297H245.58ZM259.057 51.9297L260.056 51.8994L260.027 50.9297H259.057V51.9297ZM263.061 61.207L263.69 60.4302L263.68 60.4221L263.061 61.207ZM267.406 63.3555L267.146 64.3211L267.151 64.3223L267.406 63.3555ZM277.904 63.4043L277.621 62.4453L277.615 62.4471L277.904 63.4043ZM281.518 61.6465L280.909 60.8529L281.518 61.6465ZM283.764 58.9609L284.658 59.4082L284.663 59.3972L283.764 58.9609ZM285.545 55.4453C285.545 54.0532 285.294 52.7349 284.786 51.5001L282.937 52.2616C283.34 53.2404 283.545 54.2984 283.545 55.4453H285.545ZM284.795 51.5237C284.308 50.2494 283.478 49.0855 282.348 48.0263L280.98 49.4854C281.934 50.3793 282.568 51.2988 282.927 52.238L284.795 51.5237ZM282.324 48.0047C281.156 46.9783 279.665 46.0666 277.877 45.257L277.052 47.0789C278.715 47.8318 280.023 48.6454 281.004 49.507L282.324 48.0047ZM277.898 45.2667C276.133 44.4179 273.954 43.6501 271.377 42.9563L270.857 44.8875C273.358 45.5609 275.412 46.2904 277.032 47.0692L277.898 45.2667ZM271.38 42.9571C267.494 41.8973 264.094 40.618 261.172 39.1251L260.262 40.9061C263.329 42.4732 266.862 43.798 270.854 44.8866L271.38 42.9571ZM261.176 39.1271C258.278 37.6304 255.938 36.007 254.136 34.2669L252.747 35.7057C254.721 37.6115 257.231 39.341 260.258 40.9041L261.176 39.1271ZM254.136 34.2669C252.333 32.5263 250.979 30.6133 250.059 28.528L248.23 29.3353C249.263 31.6771 250.774 33.8005 252.747 35.7057L254.136 34.2669ZM250.064 28.5394C249.177 26.4597 248.729 24.1856 248.729 21.7051H246.729C246.729 24.4329 247.224 26.9765 248.225 29.3239L250.064 28.5394ZM248.729 21.7051C248.729 18.8564 249.331 16.2987 250.52 14.0121L248.746 13.0894C247.396 15.6857 246.729 18.5642 246.729 21.7051H248.729ZM250.52 14.0121C251.72 11.7041 253.382 9.73283 255.515 8.09383L254.297 6.50773C251.939 8.31926 250.084 10.5146 248.746 13.0894L250.52 14.0121ZM255.515 8.09383C257.653 6.45185 260.193 5.18508 263.151 4.30409L262.58 2.38732C259.418 3.32924 256.652 4.69919 254.297 6.50773L255.515 8.09383ZM263.16 4.30126C266.114 3.38996 269.334 2.92969 272.826 2.92969V0.929688C269.157 0.929688 265.736 1.41342 262.57 2.39014L263.16 4.30126ZM272.826 2.92969C276.44 2.92969 279.712 3.45267 282.651 4.48456L283.314 2.59747C280.133 1.48092 276.634 0.929688 272.826 0.929688V2.92969ZM282.654 4.48565C285.641 5.52301 288.179 6.9605 290.286 8.78853L291.597 7.27788C289.277 5.26476 286.509 3.70745 283.311 2.59638L282.654 4.48565ZM290.28 8.78304C292.39 10.6449 294.031 12.844 295.21 15.3873L297.024 14.5463C295.729 11.751 293.92 9.32777 291.603 7.28337L290.28 8.78304ZM295.21 15.3873C296.381 17.9139 296.973 20.6986 296.973 23.7559H298.973C298.973 20.433 298.328 17.3582 297.024 14.5463L295.21 15.3873ZM297.973 22.7559H284.594V24.7559H297.973V22.7559ZM285.593 23.7151C285.524 22.022 285.212 20.4466 284.646 18.9978L282.783 19.7249C283.26 20.9453 283.533 22.2996 283.595 23.7966L285.593 23.7151ZM284.654 19.0177C284.117 17.5506 283.307 16.2699 282.225 15.1874L280.81 16.6016C281.681 17.4723 282.336 18.5028 282.776 19.7049L284.654 19.0177ZM282.201 15.1643C281.076 14.1118 279.696 13.3127 278.086 12.7528L277.429 14.6418C278.814 15.1235 279.941 15.7892 280.834 16.6248L282.201 15.1643ZM278.111 12.7618C276.508 12.156 274.657 11.8672 272.582 11.8672V13.8672C274.478 13.8672 276.078 14.1317 277.404 14.6327L278.111 12.7618ZM272.582 11.8672C270.677 11.8672 268.945 12.1051 267.396 12.5979L268.002 14.5037C269.318 14.085 270.841 13.8672 272.582 13.8672V11.8672ZM267.41 12.5936C265.908 13.0475 264.601 13.7034 263.51 14.5766L264.759 16.1383C265.621 15.4489 266.691 14.9004 267.989 14.508L267.41 12.5936ZM263.495 14.5892C262.41 15.4927 261.569 16.5684 260.984 17.8125L262.793 18.6641C263.25 17.6946 263.906 16.8498 264.775 16.1256L263.495 14.5892ZM260.978 17.8245C260.427 19.0383 260.156 20.3526 260.156 21.7539H262.156C262.156 20.6161 262.374 19.5867 262.799 18.6521L260.978 17.8245ZM260.156 21.7539C260.156 23.2594 260.526 24.6451 261.278 25.8855L262.988 24.8489C262.438 23.9408 262.156 22.9177 262.156 21.7539H260.156ZM261.289 25.9041C262.061 27.1166 263.145 28.1716 264.508 29.0801L265.617 27.416C264.441 26.6318 263.572 25.7662 262.976 24.8303L261.289 25.9041ZM264.493 29.0702C265.838 30.0009 267.437 30.8316 269.281 31.5691L270.024 29.7121C268.287 29.0173 266.826 28.253 265.632 27.4259L264.493 29.0702ZM269.287 31.5714C271.15 32.3032 273.236 32.9815 275.543 33.6077L276.067 31.6775C273.816 31.0667 271.801 30.4103 270.018 29.7099L269.287 31.5714ZM275.535 33.6055C277.933 34.2769 280.215 35.0912 282.383 36.0477L283.191 34.2179C280.932 33.2213 278.559 32.3754 276.074 31.6796L275.535 33.6055ZM282.383 36.0477C284.545 37.0013 286.525 38.095 288.326 39.3273L289.455 37.6766C287.545 36.3698 285.456 35.2174 283.191 34.2179L282.383 36.0477ZM288.294 39.3042C290.997 41.3159 293.135 43.6458 294.723 46.2918L296.438 45.2628C294.705 42.3751 292.383 39.8546 289.488 37.6997L288.294 39.3042ZM294.723 46.2918C296.279 48.8853 297.07 51.8934 297.07 55.3477H299.07C299.07 51.5754 298.202 48.2032 296.438 45.2628L294.723 46.2918ZM297.07 55.3477C297.07 58.334 296.465 60.9553 295.279 63.2359L297.053 64.1586C298.406 61.5564 299.07 58.6113 299.07 55.3477H297.07ZM295.276 63.2405C294.11 65.5114 292.485 67.4295 290.39 69.0008L291.59 70.6008C293.922 68.8517 295.748 66.7008 297.056 64.1541L295.276 63.2405ZM290.383 69.0064C288.281 70.6134 285.761 71.8477 282.804 72.6971L283.356 74.6193C286.519 73.7109 289.272 72.3736 291.598 70.5951L290.383 69.0064ZM282.813 72.6944C279.851 73.5137 276.606 73.9277 273.07 73.9277V75.9277C276.762 75.9277 280.189 75.4954 283.347 74.622L282.813 72.6944ZM273.07 73.9277C269.622 73.9277 266.202 73.4217 262.81 72.4072L262.237 74.3233C265.811 75.3921 269.423 75.9277 273.07 75.9277V73.9277ZM262.821 72.4104C259.477 71.3695 256.579 69.862 254.114 67.8959L252.867 69.4596C255.545 71.5951 258.669 73.2126 262.226 74.32L262.821 72.4104ZM254.127 67.907C251.786 65.9712 249.934 63.6983 248.566 61.0848L246.794 62.0128C248.289 64.8681 250.312 67.3478 252.853 69.4485L254.127 67.907ZM248.57 61.0932C247.255 58.5251 246.58 55.4807 246.58 51.9297H244.58C244.58 55.7355 245.305 59.1038 246.79 62.0045L248.57 61.0932ZM245.58 52.9297H259.057V50.9297H245.58V52.9297ZM258.057 51.96C258.125 54.2035 258.517 56.1778 259.267 57.8552L261.093 57.0393C260.475 55.6569 260.118 53.9528 260.056 51.8994L258.057 51.96ZM259.267 57.8552C260.012 59.5231 261.069 60.9089 262.441 61.9919L263.68 60.4221C262.578 59.552 261.715 58.4314 261.093 57.0393L259.267 57.8552ZM262.431 61.9838C263.757 63.0593 265.336 63.8337 267.146 64.3211L267.666 62.3899C266.091 61.9658 264.773 61.3079 263.69 60.4303L262.431 61.9838ZM267.151 64.3223C268.971 64.803 270.946 65.0391 273.07 65.0391V63.0391C271.093 63.0391 269.292 62.8194 267.662 62.3886L267.151 64.3223ZM273.07 65.0391C274.968 65.0391 276.68 64.819 278.194 64.3615L277.615 62.4471C276.329 62.8359 274.818 63.0391 273.07 63.0391V65.0391ZM278.188 64.3633C279.713 63.9126 281.034 63.2774 282.126 62.4401L280.909 60.8529C280.048 61.5129 278.96 62.0496 277.621 62.4453L278.188 64.3633ZM282.126 62.4401C283.216 61.6045 284.066 60.5931 284.658 59.4082L282.869 58.5137C282.42 59.4121 281.772 60.1911 280.909 60.8529L282.126 62.4401ZM284.663 59.3972C285.254 58.1785 285.545 56.8562 285.545 55.4453H283.545C283.545 56.5735 283.315 57.595 282.864 58.5247L284.663 59.3972Z" fill="black" fill-opacity="0.2" mask="url(#path-1-outside-1_192_21)"/>
</svg>
