<svg width="485" height="1451" viewBox="0 0 485 1451" fill="none" xmlns="http://www.w3.org/2000/svg">
<mask id="mask0_117_331" style="mask-type:alpha" maskUnits="userSpaceOnUse" x="0" y="0" width="485" height="1428">
<path d="M0 760C0 762.761 2.23858 765 5 765C7.76142 765 10 762.761 10 760C10 757.239 7.76142 755 5 755C2.23858 755 0 757.239 0 760Z" fill="#D9D9D9"/>
<path d="M0 37C0 39.7614 2.23858 42 5 42C7.76142 42 10 39.7614 10 37C10 34.2386 7.76142 32 5 32C2.23858 32 0 34.2386 0 37Z" fill="#D9D9D9"/>
<path d="M0 1122C0 1124.76 2.23858 1127 5 1127C7.76142 1127 10 1124.76 10 1122C10 1119.24 7.76142 1117 5 1117C2.23858 1117 0 1119.24 0 1122Z" fill="#D9D9D9"/>
<path d="M0 398.5C0 401.538 2.23858 404 5 404C7.76142 404 10 401.538 10 398.5C10 395.462 7.76142 393 5 393C2.23858 393 0 395.462 0 398.5Z" fill="#D9D9D9"/>
<path d="M0 941C0 943.761 2.23858 946 5 946C7.76142 946 10 943.761 10 941C10 938.239 7.76142 936 5 936C2.23858 936 0 938.239 0 941Z" fill="#D9D9D9"/>
<path d="M0 218C0 220.761 2.23858 223 5 223C7.76142 223 10 220.761 10 218C10 215.239 7.76142 213 5 213C2.23858 213 0 215.239 0 218Z" fill="#D9D9D9"/>
<path d="M0 1302.5C0 1305.54 2.23858 1308 5 1308C7.76142 1308 10 1305.54 10 1302.5C10 1299.46 7.76142 1297 5 1297C2.23858 1297 0 1299.46 0 1302.5Z" fill="#D9D9D9"/>
<path d="M0 579C0 581.761 2.23858 584 5 584C7.76142 584 10 581.761 10 579C10 576.239 7.76142 574 5 574C2.23858 574 0 576.239 0 579Z" fill="#D9D9D9"/>
<path d="M0 820.5C0 823.538 2.23858 826 5 826C7.76142 826 10 823.538 10 820.5C10 817.462 7.76142 815 5 815C2.23858 815 0 817.462 0 820.5Z" fill="#D9D9D9"/>
<path d="M0 97C0 99.7614 2.23858 102 5 102C7.76142 102 10 99.7614 10 97C10 94.2386 7.76142 92 5 92C2.23858 92 0 94.2386 0 97Z" fill="#D9D9D9"/>
<path d="M0 1182C0 1184.76 2.23858 1187 5 1187C7.76142 1187 10 1184.76 10 1182C10 1179.24 7.76142 1177 5 1177C2.23858 1177 0 1179.24 0 1182Z" fill="#D9D9D9"/>
<path d="M0 459C0 461.761 2.23858 464 5 464C7.76142 464 10 461.761 10 459C10 456.239 7.76142 454 5 454C2.23858 454 0 456.239 0 459Z" fill="#D9D9D9"/>
<path d="M0 1001C0 1003.76 2.23858 1006 5 1006C7.76142 1006 10 1003.76 10 1001C10 998.239 7.76142 996 5 996C2.23858 996 0 998.239 0 1001Z" fill="#D9D9D9"/>
<path d="M0 278C0 280.761 2.23858 283 5 283C7.76142 283 10 280.761 10 278C10 275.239 7.76142 273 5 273C2.23858 273 0 275.239 0 278Z" fill="#D9D9D9"/>
<path d="M0 1363C0 1365.76 2.23858 1368 5 1368C7.76142 1368 10 1365.76 10 1363C10 1360.24 7.76142 1358 5 1358C2.23858 1358 0 1360.24 0 1363Z" fill="#D9D9D9"/>
<path d="M0 639.5C0 642.538 2.23858 645 5 645C7.76142 645 10 642.538 10 639.5C10 636.462 7.76142 634 5 634C2.23858 634 0 636.462 0 639.5Z" fill="#D9D9D9"/>
<path d="M0 881C0 883.761 2.23858 886 5 886C7.76142 886 10 883.761 10 881C10 878.239 7.76142 876 5 876C2.23858 876 0 878.239 0 881Z" fill="#D9D9D9"/>
<path d="M0 157.5C0 160.538 2.23858 163 5 163C7.76142 163 10 160.538 10 157.5C10 154.462 7.76142 152 5 152C2.23858 152 0 154.462 0 157.5Z" fill="#D9D9D9"/>
<path d="M0 1242C0 1244.76 2.23858 1247 5 1247C7.76142 1247 10 1244.76 10 1242C10 1239.24 7.76142 1237 5 1237C2.23858 1237 0 1239.24 0 1242Z" fill="#D9D9D9"/>
<path d="M0 519C0 521.761 2.23858 524 5 524C7.76142 524 10 521.761 10 519C10 516.239 7.76142 514 5 514C2.23858 514 0 516.239 0 519Z" fill="#D9D9D9"/>
<path d="M0 1061.5C0 1064.54 2.23858 1067 5 1067C7.76142 1067 10 1064.54 10 1061.5C10 1058.46 7.76142 1056 5 1056C2.23858 1056 0 1058.46 0 1061.5Z" fill="#D9D9D9"/>
<path d="M0 338C0 340.761 2.23858 343 5 343C7.76142 343 10 340.761 10 338C10 335.239 7.76142 333 5 333C2.23858 333 0 335.239 0 338Z" fill="#D9D9D9"/>
<path d="M0 1423C0 1425.76 2.23858 1428 5 1428C7.76142 1428 10 1425.76 10 1423C10 1420.24 7.76142 1418 5 1418C2.23858 1418 0 1420.24 0 1423Z" fill="#D9D9D9"/>
<path d="M0 700C0 702.761 2.23858 705 5 705C7.76142 705 10 702.761 10 700C10 697.239 7.76142 695 5 695C2.23858 695 0 697.239 0 700Z" fill="#D9D9D9"/>
<path d="M43 728C43 730.761 45.2386 733 48 733C50.7614 733 53 730.761 53 728C53 725.239 50.7614 723 48 723C45.2386 723 43 725.239 43 728Z" fill="#D9D9D9"/>
<path d="M43 5C43 7.76142 45.2386 10 48 10C50.7614 10 53 7.76142 53 5C53 2.23858 50.7614 0 48 0C45.2386 0 43 2.23858 43 5Z" fill="#D9D9D9"/>
<path d="M43 1090C43 1092.76 45.2386 1095 48 1095C50.7614 1095 53 1092.76 53 1090C53 1087.24 50.7614 1085 48 1085C45.2386 1085 43 1087.24 43 1090Z" fill="#D9D9D9"/>
<path d="M43 366.5C43 369.538 45.2386 372 48 372C50.7614 372 53 369.538 53 366.5C53 363.462 50.7614 361 48 361C45.2386 361 43 363.462 43 366.5Z" fill="#D9D9D9"/>
<path d="M43 909C43 911.761 45.2386 914 48 914C50.7614 914 53 911.761 53 909C53 906.239 50.7614 904 48 904C45.2386 904 43 906.239 43 909Z" fill="#D9D9D9"/>
<path d="M43 186C43 188.761 45.2386 191 48 191C50.7614 191 53 188.761 53 186C53 183.239 50.7614 181 48 181C45.2386 181 43 183.239 43 186Z" fill="#D9D9D9"/>
<path d="M43 1270.5C43 1273.54 45.2386 1276 48 1276C50.7614 1276 53 1273.54 53 1270.5C53 1267.46 50.7614 1265 48 1265C45.2386 1265 43 1267.46 43 1270.5Z" fill="#D9D9D9"/>
<path d="M43 547C43 549.761 45.2386 552 48 552C50.7614 552 53 549.761 53 547C53 544.239 50.7614 542 48 542C45.2386 542 43 544.239 43 547Z" fill="#D9D9D9"/>
<path d="M43 788.5C43 791.538 45.2386 794 48 794C50.7614 794 53 791.538 53 788.5C53 785.462 50.7614 783 48 783C45.2386 783 43 785.462 43 788.5Z" fill="#D9D9D9"/>
<path d="M43 65C43 67.7614 45.2386 70 48 70C50.7614 70 53 67.7614 53 65C53 62.2386 50.7614 60 48 60C45.2386 60 43 62.2386 43 65Z" fill="#D9D9D9"/>
<path d="M43 1150C43 1152.76 45.2386 1155 48 1155C50.7614 1155 53 1152.76 53 1150C53 1147.24 50.7614 1145 48 1145C45.2386 1145 43 1147.24 43 1150Z" fill="#D9D9D9"/>
<path d="M43 427C43 429.761 45.2386 432 48 432C50.7614 432 53 429.761 53 427C53 424.239 50.7614 422 48 422C45.2386 422 43 424.239 43 427Z" fill="#D9D9D9"/>
<path d="M43 969C43 971.761 45.2386 974 48 974C50.7614 974 53 971.761 53 969C53 966.239 50.7614 964 48 964C45.2386 964 43 966.239 43 969Z" fill="#D9D9D9"/>
<path d="M43 246C43 248.761 45.2386 251 48 251C50.7614 251 53 248.761 53 246C53 243.239 50.7614 241 48 241C45.2386 241 43 243.239 43 246Z" fill="#D9D9D9"/>
<path d="M43 1331C43 1333.76 45.2386 1336 48 1336C50.7614 1336 53 1333.76 53 1331C53 1328.24 50.7614 1326 48 1326C45.2386 1326 43 1328.24 43 1331Z" fill="#D9D9D9"/>
<path d="M43 607.5C43 610.538 45.2386 613 48 613C50.7614 613 53 610.538 53 607.5C53 604.462 50.7614 602 48 602C45.2386 602 43 604.462 43 607.5Z" fill="#D9D9D9"/>
<path d="M43 849C43 851.761 45.2386 854 48 854C50.7614 854 53 851.761 53 849C53 846.239 50.7614 844 48 844C45.2386 844 43 846.239 43 849Z" fill="#D9D9D9"/>
<path d="M43 125.5C43 128.538 45.2386 131 48 131C50.7614 131 53 128.538 53 125.5C53 122.462 50.7614 120 48 120C45.2386 120 43 122.462 43 125.5Z" fill="#D9D9D9"/>
<path d="M43 1210C43 1212.76 45.2386 1215 48 1215C50.7614 1215 53 1212.76 53 1210C53 1207.24 50.7614 1205 48 1205C45.2386 1205 43 1207.24 43 1210Z" fill="#D9D9D9"/>
<path d="M43 487C43 489.761 45.2386 492 48 492C50.7614 492 53 489.761 53 487C53 484.239 50.7614 482 48 482C45.2386 482 43 484.239 43 487Z" fill="#D9D9D9"/>
<path d="M43 1029.5C43 1032.54 45.2386 1035 48 1035C50.7614 1035 53 1032.54 53 1029.5C53 1026.46 50.7614 1024 48 1024C45.2386 1024 43 1026.46 43 1029.5Z" fill="#D9D9D9"/>
<path d="M43 306C43 308.761 45.2386 311 48 311C50.7614 311 53 308.761 53 306C53 303.239 50.7614 301 48 301C45.2386 301 43 303.239 43 306Z" fill="#D9D9D9"/>
<path d="M43 1391C43 1393.76 45.2386 1396 48 1396C50.7614 1396 53 1393.76 53 1391C53 1388.24 50.7614 1386 48 1386C45.2386 1386 43 1388.24 43 1391Z" fill="#D9D9D9"/>
<path d="M43 668C43 670.761 45.2386 673 48 673C50.7614 673 53 670.761 53 668C53 665.239 50.7614 663 48 663C45.2386 663 43 665.239 43 668Z" fill="#D9D9D9"/>
<path d="M86 760C86 762.761 88.2386 765 91 765C93.7614 765 96 762.761 96 760C96 757.239 93.7614 755 91 755C88.2386 755 86 757.239 86 760Z" fill="#D9D9D9"/>
<path d="M86 37C86 39.7614 88.2386 42 91 42C93.7614 42 96 39.7614 96 37C96 34.2386 93.7614 32 91 32C88.2386 32 86 34.2386 86 37Z" fill="#D9D9D9"/>
<path d="M86 1122C86 1124.76 88.2386 1127 91 1127C93.7614 1127 96 1124.76 96 1122C96 1119.24 93.7614 1117 91 1117C88.2386 1117 86 1119.24 86 1122Z" fill="#D9D9D9"/>
<path d="M86 398.5C86 401.538 88.2386 404 91 404C93.7614 404 96 401.538 96 398.5C96 395.462 93.7614 393 91 393C88.2386 393 86 395.462 86 398.5Z" fill="#D9D9D9"/>
<path d="M86 941C86 943.761 88.2386 946 91 946C93.7614 946 96 943.761 96 941C96 938.239 93.7614 936 91 936C88.2386 936 86 938.239 86 941Z" fill="#D9D9D9"/>
<path d="M86 218C86 220.761 88.2386 223 91 223C93.7614 223 96 220.761 96 218C96 215.239 93.7614 213 91 213C88.2386 213 86 215.239 86 218Z" fill="#D9D9D9"/>
<path d="M86 1302.5C86 1305.54 88.2386 1308 91 1308C93.7614 1308 96 1305.54 96 1302.5C96 1299.46 93.7614 1297 91 1297C88.2386 1297 86 1299.46 86 1302.5Z" fill="#D9D9D9"/>
<path d="M86 579C86 581.761 88.2386 584 91 584C93.7614 584 96 581.761 96 579C96 576.239 93.7614 574 91 574C88.2386 574 86 576.239 86 579Z" fill="#D9D9D9"/>
<path d="M86 820.5C86 823.538 88.2386 826 91 826C93.7614 826 96 823.538 96 820.5C96 817.462 93.7614 815 91 815C88.2386 815 86 817.462 86 820.5Z" fill="#D9D9D9"/>
<path d="M86 97C86 99.7614 88.2386 102 91 102C93.7614 102 96 99.7614 96 97C96 94.2386 93.7614 92 91 92C88.2386 92 86 94.2386 86 97Z" fill="#D9D9D9"/>
<path d="M86 1182C86 1184.76 88.2386 1187 91 1187C93.7614 1187 96 1184.76 96 1182C96 1179.24 93.7614 1177 91 1177C88.2386 1177 86 1179.24 86 1182Z" fill="#D9D9D9"/>
<path d="M86 459C86 461.761 88.2386 464 91 464C93.7614 464 96 461.761 96 459C96 456.239 93.7614 454 91 454C88.2386 454 86 456.239 86 459Z" fill="#D9D9D9"/>
<path d="M86 1001C86 1003.76 88.2386 1006 91 1006C93.7614 1006 96 1003.76 96 1001C96 998.239 93.7614 996 91 996C88.2386 996 86 998.239 86 1001Z" fill="#D9D9D9"/>
<path d="M86 278C86 280.761 88.2386 283 91 283C93.7614 283 96 280.761 96 278C96 275.239 93.7614 273 91 273C88.2386 273 86 275.239 86 278Z" fill="#D9D9D9"/>
<path d="M86 1363C86 1365.76 88.2386 1368 91 1368C93.7614 1368 96 1365.76 96 1363C96 1360.24 93.7614 1358 91 1358C88.2386 1358 86 1360.24 86 1363Z" fill="#D9D9D9"/>
<path d="M86 639.5C86 642.538 88.2386 645 91 645C93.7614 645 96 642.538 96 639.5C96 636.462 93.7614 634 91 634C88.2386 634 86 636.462 86 639.5Z" fill="#D9D9D9"/>
<path d="M86 881C86 883.761 88.2386 886 91 886C93.7614 886 96 883.761 96 881C96 878.239 93.7614 876 91 876C88.2386 876 86 878.239 86 881Z" fill="#D9D9D9"/>
<path d="M86 157.5C86 160.538 88.2386 163 91 163C93.7614 163 96 160.538 96 157.5C96 154.462 93.7614 152 91 152C88.2386 152 86 154.462 86 157.5Z" fill="#D9D9D9"/>
<path d="M86 1242C86 1244.76 88.2386 1247 91 1247C93.7614 1247 96 1244.76 96 1242C96 1239.24 93.7614 1237 91 1237C88.2386 1237 86 1239.24 86 1242Z" fill="#D9D9D9"/>
<path d="M86 519C86 521.761 88.2386 524 91 524C93.7614 524 96 521.761 96 519C96 516.239 93.7614 514 91 514C88.2386 514 86 516.239 86 519Z" fill="#D9D9D9"/>
<path d="M86 1061.5C86 1064.54 88.2386 1067 91 1067C93.7614 1067 96 1064.54 96 1061.5C96 1058.46 93.7614 1056 91 1056C88.2386 1056 86 1058.46 86 1061.5Z" fill="#D9D9D9"/>
<path d="M86 338C86 340.761 88.2386 343 91 343C93.7614 343 96 340.761 96 338C96 335.239 93.7614 333 91 333C88.2386 333 86 335.239 86 338Z" fill="#D9D9D9"/>
<path d="M86 1423C86 1425.76 88.2386 1428 91 1428C93.7614 1428 96 1425.76 96 1423C96 1420.24 93.7614 1418 91 1418C88.2386 1418 86 1420.24 86 1423Z" fill="#D9D9D9"/>
<path d="M86 700C86 702.761 88.2386 705 91 705C93.7614 705 96 702.761 96 700C96 697.239 93.7614 695 91 695C88.2386 695 86 697.239 86 700Z" fill="#D9D9D9"/>
<path d="M129 728C129 730.761 131.239 733 134 733C136.761 733 139 730.761 139 728C139 725.239 136.761 723 134 723C131.239 723 129 725.239 129 728Z" fill="#D9D9D9"/>
<path d="M129 5C129 7.76142 131.239 10 134 10C136.761 10 139 7.76142 139 5C139 2.23858 136.761 0 134 0C131.239 0 129 2.23858 129 5Z" fill="#D9D9D9"/>
<path d="M129 1090C129 1092.76 131.239 1095 134 1095C136.761 1095 139 1092.76 139 1090C139 1087.24 136.761 1085 134 1085C131.239 1085 129 1087.24 129 1090Z" fill="#D9D9D9"/>
<path d="M129 366.5C129 369.538 131.239 372 134 372C136.761 372 139 369.538 139 366.5C139 363.462 136.761 361 134 361C131.239 361 129 363.462 129 366.5Z" fill="#D9D9D9"/>
<path d="M129 909C129 911.761 131.239 914 134 914C136.761 914 139 911.761 139 909C139 906.239 136.761 904 134 904C131.239 904 129 906.239 129 909Z" fill="#D9D9D9"/>
<path d="M129 186C129 188.761 131.239 191 134 191C136.761 191 139 188.761 139 186C139 183.239 136.761 181 134 181C131.239 181 129 183.239 129 186Z" fill="#D9D9D9"/>
<path d="M129 1270.5C129 1273.54 131.239 1276 134 1276C136.761 1276 139 1273.54 139 1270.5C139 1267.46 136.761 1265 134 1265C131.239 1265 129 1267.46 129 1270.5Z" fill="#D9D9D9"/>
<path d="M129 547C129 549.761 131.239 552 134 552C136.761 552 139 549.761 139 547C139 544.239 136.761 542 134 542C131.239 542 129 544.239 129 547Z" fill="#D9D9D9"/>
<path d="M129 788.5C129 791.538 131.239 794 134 794C136.761 794 139 791.538 139 788.5C139 785.462 136.761 783 134 783C131.239 783 129 785.462 129 788.5Z" fill="#D9D9D9"/>
<path d="M129 65C129 67.7614 131.239 70 134 70C136.761 70 139 67.7614 139 65C139 62.2386 136.761 60 134 60C131.239 60 129 62.2386 129 65Z" fill="#D9D9D9"/>
<path d="M129 1150C129 1152.76 131.239 1155 134 1155C136.761 1155 139 1152.76 139 1150C139 1147.24 136.761 1145 134 1145C131.239 1145 129 1147.24 129 1150Z" fill="#D9D9D9"/>
<path d="M129 427C129 429.761 131.239 432 134 432C136.761 432 139 429.761 139 427C139 424.239 136.761 422 134 422C131.239 422 129 424.239 129 427Z" fill="#D9D9D9"/>
<path d="M129 969C129 971.761 131.239 974 134 974C136.761 974 139 971.761 139 969C139 966.239 136.761 964 134 964C131.239 964 129 966.239 129 969Z" fill="#D9D9D9"/>
<path d="M129 246C129 248.761 131.239 251 134 251C136.761 251 139 248.761 139 246C139 243.239 136.761 241 134 241C131.239 241 129 243.239 129 246Z" fill="#D9D9D9"/>
<path d="M129 1331C129 1333.76 131.239 1336 134 1336C136.761 1336 139 1333.76 139 1331C139 1328.24 136.761 1326 134 1326C131.239 1326 129 1328.24 129 1331Z" fill="#D9D9D9"/>
<path d="M129 607.5C129 610.538 131.239 613 134 613C136.761 613 139 610.538 139 607.5C139 604.462 136.761 602 134 602C131.239 602 129 604.462 129 607.5Z" fill="#D9D9D9"/>
<path d="M129 849C129 851.761 131.239 854 134 854C136.761 854 139 851.761 139 849C139 846.239 136.761 844 134 844C131.239 844 129 846.239 129 849Z" fill="#D9D9D9"/>
<path d="M129 125.5C129 128.538 131.239 131 134 131C136.761 131 139 128.538 139 125.5C139 122.462 136.761 120 134 120C131.239 120 129 122.462 129 125.5Z" fill="#D9D9D9"/>
<path d="M129 1210C129 1212.76 131.239 1215 134 1215C136.761 1215 139 1212.76 139 1210C139 1207.24 136.761 1205 134 1205C131.239 1205 129 1207.24 129 1210Z" fill="#D9D9D9"/>
<path d="M129 487C129 489.761 131.239 492 134 492C136.761 492 139 489.761 139 487C139 484.239 136.761 482 134 482C131.239 482 129 484.239 129 487Z" fill="#D9D9D9"/>
<path d="M129 1029.5C129 1032.54 131.239 1035 134 1035C136.761 1035 139 1032.54 139 1029.5C139 1026.46 136.761 1024 134 1024C131.239 1024 129 1026.46 129 1029.5Z" fill="#D9D9D9"/>
<path d="M129 306C129 308.761 131.239 311 134 311C136.761 311 139 308.761 139 306C139 303.239 136.761 301 134 301C131.239 301 129 303.239 129 306Z" fill="#D9D9D9"/>
<path d="M129 1391C129 1393.76 131.239 1396 134 1396C136.761 1396 139 1393.76 139 1391C139 1388.24 136.761 1386 134 1386C131.239 1386 129 1388.24 129 1391Z" fill="#D9D9D9"/>
<path d="M129 668C129 670.761 131.239 673 134 673C136.761 673 139 670.761 139 668C139 665.239 136.761 663 134 663C131.239 663 129 665.239 129 668Z" fill="#D9D9D9"/>
<path d="M346 760C346 762.761 348.239 765 351 765C353.761 765 356 762.761 356 760C356 757.239 353.761 755 351 755C348.239 755 346 757.239 346 760Z" fill="#D9D9D9"/>
<path d="M346 37C346 39.7614 348.239 42 351 42C353.761 42 356 39.7614 356 37C356 34.2386 353.761 32 351 32C348.239 32 346 34.2386 346 37Z" fill="#D9D9D9"/>
<path d="M346 1122C346 1124.76 348.239 1127 351 1127C353.761 1127 356 1124.76 356 1122C356 1119.24 353.761 1117 351 1117C348.239 1117 346 1119.24 346 1122Z" fill="#D9D9D9"/>
<path d="M346 398.5C346 401.538 348.239 404 351 404C353.761 404 356 401.538 356 398.5C356 395.462 353.761 393 351 393C348.239 393 346 395.462 346 398.5Z" fill="#D9D9D9"/>
<path d="M346 941C346 943.761 348.239 946 351 946C353.761 946 356 943.761 356 941C356 938.239 353.761 936 351 936C348.239 936 346 938.239 346 941Z" fill="#D9D9D9"/>
<path d="M346 218C346 220.761 348.239 223 351 223C353.761 223 356 220.761 356 218C356 215.239 353.761 213 351 213C348.239 213 346 215.239 346 218Z" fill="#D9D9D9"/>
<path d="M346 1302.5C346 1305.54 348.239 1308 351 1308C353.761 1308 356 1305.54 356 1302.5C356 1299.46 353.761 1297 351 1297C348.239 1297 346 1299.46 346 1302.5Z" fill="#D9D9D9"/>
<path d="M346 579C346 581.761 348.239 584 351 584C353.761 584 356 581.761 356 579C356 576.239 353.761 574 351 574C348.239 574 346 576.239 346 579Z" fill="#D9D9D9"/>
<path d="M346 820.5C346 823.538 348.239 826 351 826C353.761 826 356 823.538 356 820.5C356 817.462 353.761 815 351 815C348.239 815 346 817.462 346 820.5Z" fill="#D9D9D9"/>
<path d="M346 97C346 99.7614 348.239 102 351 102C353.761 102 356 99.7614 356 97C356 94.2386 353.761 92 351 92C348.239 92 346 94.2386 346 97Z" fill="#D9D9D9"/>
<path d="M346 1182C346 1184.76 348.239 1187 351 1187C353.761 1187 356 1184.76 356 1182C356 1179.24 353.761 1177 351 1177C348.239 1177 346 1179.24 346 1182Z" fill="#D9D9D9"/>
<path d="M346 459C346 461.761 348.239 464 351 464C353.761 464 356 461.761 356 459C356 456.239 353.761 454 351 454C348.239 454 346 456.239 346 459Z" fill="#D9D9D9"/>
<path d="M346 1001C346 1003.76 348.239 1006 351 1006C353.761 1006 356 1003.76 356 1001C356 998.239 353.761 996 351 996C348.239 996 346 998.239 346 1001Z" fill="#D9D9D9"/>
<path d="M346 278C346 280.761 348.239 283 351 283C353.761 283 356 280.761 356 278C356 275.239 353.761 273 351 273C348.239 273 346 275.239 346 278Z" fill="#D9D9D9"/>
<path d="M346 1363C346 1365.76 348.239 1368 351 1368C353.761 1368 356 1365.76 356 1363C356 1360.24 353.761 1358 351 1358C348.239 1358 346 1360.24 346 1363Z" fill="#D9D9D9"/>
<path d="M346 639.5C346 642.538 348.239 645 351 645C353.761 645 356 642.538 356 639.5C356 636.462 353.761 634 351 634C348.239 634 346 636.462 346 639.5Z" fill="#D9D9D9"/>
<path d="M346 881C346 883.761 348.239 886 351 886C353.761 886 356 883.761 356 881C356 878.239 353.761 876 351 876C348.239 876 346 878.239 346 881Z" fill="#D9D9D9"/>
<path d="M346 157.5C346 160.538 348.239 163 351 163C353.761 163 356 160.538 356 157.5C356 154.462 353.761 152 351 152C348.239 152 346 154.462 346 157.5Z" fill="#D9D9D9"/>
<path d="M346 1242C346 1244.76 348.239 1247 351 1247C353.761 1247 356 1244.76 356 1242C356 1239.24 353.761 1237 351 1237C348.239 1237 346 1239.24 346 1242Z" fill="#D9D9D9"/>
<path d="M346 519C346 521.761 348.239 524 351 524C353.761 524 356 521.761 356 519C356 516.239 353.761 514 351 514C348.239 514 346 516.239 346 519Z" fill="#D9D9D9"/>
<path d="M346 1061.5C346 1064.54 348.239 1067 351 1067C353.761 1067 356 1064.54 356 1061.5C356 1058.46 353.761 1056 351 1056C348.239 1056 346 1058.46 346 1061.5Z" fill="#D9D9D9"/>
<path d="M346 338C346 340.761 348.239 343 351 343C353.761 343 356 340.761 356 338C356 335.239 353.761 333 351 333C348.239 333 346 335.239 346 338Z" fill="#D9D9D9"/>
<path d="M346 1423C346 1425.76 348.239 1428 351 1428C353.761 1428 356 1425.76 356 1423C356 1420.24 353.761 1418 351 1418C348.239 1418 346 1420.24 346 1423Z" fill="#D9D9D9"/>
<path d="M346 700C346 702.761 348.239 705 351 705C353.761 705 356 702.761 356 700C356 697.239 353.761 695 351 695C348.239 695 346 697.239 346 700Z" fill="#D9D9D9"/>
<path d="M389 728C389 730.761 391.239 733 394 733C396.761 733 399 730.761 399 728C399 725.239 396.761 723 394 723C391.239 723 389 725.239 389 728Z" fill="#D9D9D9"/>
<path d="M389 5C389 7.76142 391.239 10 394 10C396.761 10 399 7.76142 399 5C399 2.23858 396.761 0 394 0C391.239 0 389 2.23858 389 5Z" fill="#D9D9D9"/>
<path d="M389 1090C389 1092.76 391.239 1095 394 1095C396.761 1095 399 1092.76 399 1090C399 1087.24 396.761 1085 394 1085C391.239 1085 389 1087.24 389 1090Z" fill="#D9D9D9"/>
<path d="M389 366.5C389 369.538 391.239 372 394 372C396.761 372 399 369.538 399 366.5C399 363.462 396.761 361 394 361C391.239 361 389 363.462 389 366.5Z" fill="#D9D9D9"/>
<path d="M389 909C389 911.761 391.239 914 394 914C396.761 914 399 911.761 399 909C399 906.239 396.761 904 394 904C391.239 904 389 906.239 389 909Z" fill="#D9D9D9"/>
<path d="M389 186C389 188.761 391.239 191 394 191C396.761 191 399 188.761 399 186C399 183.239 396.761 181 394 181C391.239 181 389 183.239 389 186Z" fill="#D9D9D9"/>
<path d="M389 1270.5C389 1273.54 391.239 1276 394 1276C396.761 1276 399 1273.54 399 1270.5C399 1267.46 396.761 1265 394 1265C391.239 1265 389 1267.46 389 1270.5Z" fill="#D9D9D9"/>
<path d="M389 547C389 549.761 391.239 552 394 552C396.761 552 399 549.761 399 547C399 544.239 396.761 542 394 542C391.239 542 389 544.239 389 547Z" fill="#D9D9D9"/>
<path d="M389 788.5C389 791.538 391.239 794 394 794C396.761 794 399 791.538 399 788.5C399 785.462 396.761 783 394 783C391.239 783 389 785.462 389 788.5Z" fill="#D9D9D9"/>
<path d="M389 65C389 67.7614 391.239 70 394 70C396.761 70 399 67.7614 399 65C399 62.2386 396.761 60 394 60C391.239 60 389 62.2386 389 65Z" fill="#D9D9D9"/>
<path d="M389 1150C389 1152.76 391.239 1155 394 1155C396.761 1155 399 1152.76 399 1150C399 1147.24 396.761 1145 394 1145C391.239 1145 389 1147.24 389 1150Z" fill="#D9D9D9"/>
<path d="M389 427C389 429.761 391.239 432 394 432C396.761 432 399 429.761 399 427C399 424.239 396.761 422 394 422C391.239 422 389 424.239 389 427Z" fill="#D9D9D9"/>
<path d="M389 969C389 971.761 391.239 974 394 974C396.761 974 399 971.761 399 969C399 966.239 396.761 964 394 964C391.239 964 389 966.239 389 969Z" fill="#D9D9D9"/>
<path d="M389 246C389 248.761 391.239 251 394 251C396.761 251 399 248.761 399 246C399 243.239 396.761 241 394 241C391.239 241 389 243.239 389 246Z" fill="#D9D9D9"/>
<path d="M389 1331C389 1333.76 391.239 1336 394 1336C396.761 1336 399 1333.76 399 1331C399 1328.24 396.761 1326 394 1326C391.239 1326 389 1328.24 389 1331Z" fill="#D9D9D9"/>
<path d="M389 607.5C389 610.538 391.239 613 394 613C396.761 613 399 610.538 399 607.5C399 604.462 396.761 602 394 602C391.239 602 389 604.462 389 607.5Z" fill="#D9D9D9"/>
<path d="M389 849C389 851.761 391.239 854 394 854C396.761 854 399 851.761 399 849C399 846.239 396.761 844 394 844C391.239 844 389 846.239 389 849Z" fill="#D9D9D9"/>
<path d="M389 125.5C389 128.538 391.239 131 394 131C396.761 131 399 128.538 399 125.5C399 122.462 396.761 120 394 120C391.239 120 389 122.462 389 125.5Z" fill="#D9D9D9"/>
<path d="M389 1210C389 1212.76 391.239 1215 394 1215C396.761 1215 399 1212.76 399 1210C399 1207.24 396.761 1205 394 1205C391.239 1205 389 1207.24 389 1210Z" fill="#D9D9D9"/>
<path d="M389 487C389 489.761 391.239 492 394 492C396.761 492 399 489.761 399 487C399 484.239 396.761 482 394 482C391.239 482 389 484.239 389 487Z" fill="#D9D9D9"/>
<path d="M389 1029.5C389 1032.54 391.239 1035 394 1035C396.761 1035 399 1032.54 399 1029.5C399 1026.46 396.761 1024 394 1024C391.239 1024 389 1026.46 389 1029.5Z" fill="#D9D9D9"/>
<path d="M389 306C389 308.761 391.239 311 394 311C396.761 311 399 308.761 399 306C399 303.239 396.761 301 394 301C391.239 301 389 303.239 389 306Z" fill="#D9D9D9"/>
<path d="M389 1391C389 1393.76 391.239 1396 394 1396C396.761 1396 399 1393.76 399 1391C399 1388.24 396.761 1386 394 1386C391.239 1386 389 1388.24 389 1391Z" fill="#D9D9D9"/>
<path d="M389 668C389 670.761 391.239 673 394 673C396.761 673 399 670.761 399 668C399 665.239 396.761 663 394 663C391.239 663 389 665.239 389 668Z" fill="#D9D9D9"/>
<path d="M432 760C432 762.761 434.239 765 437 765C439.761 765 442 762.761 442 760C442 757.239 439.761 755 437 755C434.239 755 432 757.239 432 760Z" fill="#D9D9D9"/>
<path d="M432 37C432 39.7614 434.239 42 437 42C439.761 42 442 39.7614 442 37C442 34.2386 439.761 32 437 32C434.239 32 432 34.2386 432 37Z" fill="#D9D9D9"/>
<path d="M432 1122C432 1124.76 434.239 1127 437 1127C439.761 1127 442 1124.76 442 1122C442 1119.24 439.761 1117 437 1117C434.239 1117 432 1119.24 432 1122Z" fill="#D9D9D9"/>
<path d="M432 398.5C432 401.538 434.239 404 437 404C439.761 404 442 401.538 442 398.5C442 395.462 439.761 393 437 393C434.239 393 432 395.462 432 398.5Z" fill="#D9D9D9"/>
<path d="M432 941C432 943.761 434.239 946 437 946C439.761 946 442 943.761 442 941C442 938.239 439.761 936 437 936C434.239 936 432 938.239 432 941Z" fill="#D9D9D9"/>
<path d="M432 218C432 220.761 434.239 223 437 223C439.761 223 442 220.761 442 218C442 215.239 439.761 213 437 213C434.239 213 432 215.239 432 218Z" fill="#D9D9D9"/>
<path d="M432 1302.5C432 1305.54 434.239 1308 437 1308C439.761 1308 442 1305.54 442 1302.5C442 1299.46 439.761 1297 437 1297C434.239 1297 432 1299.46 432 1302.5Z" fill="#D9D9D9"/>
<path d="M432 579C432 581.761 434.239 584 437 584C439.761 584 442 581.761 442 579C442 576.239 439.761 574 437 574C434.239 574 432 576.239 432 579Z" fill="#D9D9D9"/>
<path d="M432 820.5C432 823.538 434.239 826 437 826C439.761 826 442 823.538 442 820.5C442 817.462 439.761 815 437 815C434.239 815 432 817.462 432 820.5Z" fill="#D9D9D9"/>
<path d="M432 97C432 99.7614 434.239 102 437 102C439.761 102 442 99.7614 442 97C442 94.2386 439.761 92 437 92C434.239 92 432 94.2386 432 97Z" fill="#D9D9D9"/>
<path d="M432 1182C432 1184.76 434.239 1187 437 1187C439.761 1187 442 1184.76 442 1182C442 1179.24 439.761 1177 437 1177C434.239 1177 432 1179.24 432 1182Z" fill="#D9D9D9"/>
<path d="M432 459C432 461.761 434.239 464 437 464C439.761 464 442 461.761 442 459C442 456.239 439.761 454 437 454C434.239 454 432 456.239 432 459Z" fill="#D9D9D9"/>
<path d="M432 1001C432 1003.76 434.239 1006 437 1006C439.761 1006 442 1003.76 442 1001C442 998.239 439.761 996 437 996C434.239 996 432 998.239 432 1001Z" fill="#D9D9D9"/>
<path d="M432 278C432 280.761 434.239 283 437 283C439.761 283 442 280.761 442 278C442 275.239 439.761 273 437 273C434.239 273 432 275.239 432 278Z" fill="#D9D9D9"/>
<path d="M432 1363C432 1365.76 434.239 1368 437 1368C439.761 1368 442 1365.76 442 1363C442 1360.24 439.761 1358 437 1358C434.239 1358 432 1360.24 432 1363Z" fill="#D9D9D9"/>
<path d="M432 639.5C432 642.538 434.239 645 437 645C439.761 645 442 642.538 442 639.5C442 636.462 439.761 634 437 634C434.239 634 432 636.462 432 639.5Z" fill="#D9D9D9"/>
<path d="M432 881C432 883.761 434.239 886 437 886C439.761 886 442 883.761 442 881C442 878.239 439.761 876 437 876C434.239 876 432 878.239 432 881Z" fill="#D9D9D9"/>
<path d="M432 157.5C432 160.538 434.239 163 437 163C439.761 163 442 160.538 442 157.5C442 154.462 439.761 152 437 152C434.239 152 432 154.462 432 157.5Z" fill="#D9D9D9"/>
<path d="M432 1242C432 1244.76 434.239 1247 437 1247C439.761 1247 442 1244.76 442 1242C442 1239.24 439.761 1237 437 1237C434.239 1237 432 1239.24 432 1242Z" fill="#D9D9D9"/>
<path d="M432 519C432 521.761 434.239 524 437 524C439.761 524 442 521.761 442 519C442 516.239 439.761 514 437 514C434.239 514 432 516.239 432 519Z" fill="#D9D9D9"/>
<path d="M432 1061.5C432 1064.54 434.239 1067 437 1067C439.761 1067 442 1064.54 442 1061.5C442 1058.46 439.761 1056 437 1056C434.239 1056 432 1058.46 432 1061.5Z" fill="#D9D9D9"/>
<path d="M432 338C432 340.761 434.239 343 437 343C439.761 343 442 340.761 442 338C442 335.239 439.761 333 437 333C434.239 333 432 335.239 432 338Z" fill="#D9D9D9"/>
<path d="M432 1423C432 1425.76 434.239 1428 437 1428C439.761 1428 442 1425.76 442 1423C442 1420.24 439.761 1418 437 1418C434.239 1418 432 1420.24 432 1423Z" fill="#D9D9D9"/>
<path d="M432 700C432 702.761 434.239 705 437 705C439.761 705 442 702.761 442 700C442 697.239 439.761 695 437 695C434.239 695 432 697.239 432 700Z" fill="#D9D9D9"/>
<path d="M475 728C475 730.761 477.239 733 480 733C482.761 733 485 730.761 485 728C485 725.239 482.761 723 480 723C477.239 723 475 725.239 475 728Z" fill="#D9D9D9"/>
<path d="M475 5C475 7.76142 477.239 10 480 10C482.761 10 485 7.76142 485 5C485 2.23858 482.761 0 480 0C477.239 0 475 2.23858 475 5Z" fill="#D9D9D9"/>
<path d="M475 1090C475 1092.76 477.239 1095 480 1095C482.761 1095 485 1092.76 485 1090C485 1087.24 482.761 1085 480 1085C477.239 1085 475 1087.24 475 1090Z" fill="#D9D9D9"/>
<path d="M475 366.5C475 369.538 477.239 372 480 372C482.761 372 485 369.538 485 366.5C485 363.462 482.761 361 480 361C477.239 361 475 363.462 475 366.5Z" fill="#D9D9D9"/>
<path d="M475 909C475 911.761 477.239 914 480 914C482.761 914 485 911.761 485 909C485 906.239 482.761 904 480 904C477.239 904 475 906.239 475 909Z" fill="#D9D9D9"/>
<path d="M475 186C475 188.761 477.239 191 480 191C482.761 191 485 188.761 485 186C485 183.239 482.761 181 480 181C477.239 181 475 183.239 475 186Z" fill="#D9D9D9"/>
<path d="M475 1270.5C475 1273.54 477.239 1276 480 1276C482.761 1276 485 1273.54 485 1270.5C485 1267.46 482.761 1265 480 1265C477.239 1265 475 1267.46 475 1270.5Z" fill="#D9D9D9"/>
<path d="M475 547C475 549.761 477.239 552 480 552C482.761 552 485 549.761 485 547C485 544.239 482.761 542 480 542C477.239 542 475 544.239 475 547Z" fill="#D9D9D9"/>
<path d="M475 788.5C475 791.538 477.239 794 480 794C482.761 794 485 791.538 485 788.5C485 785.462 482.761 783 480 783C477.239 783 475 785.462 475 788.5Z" fill="#D9D9D9"/>
<path d="M475 65C475 67.7614 477.239 70 480 70C482.761 70 485 67.7614 485 65C485 62.2386 482.761 60 480 60C477.239 60 475 62.2386 475 65Z" fill="#D9D9D9"/>
<path d="M475 1150C475 1152.76 477.239 1155 480 1155C482.761 1155 485 1152.76 485 1150C485 1147.24 482.761 1145 480 1145C477.239 1145 475 1147.24 475 1150Z" fill="#D9D9D9"/>
<path d="M475 427C475 429.761 477.239 432 480 432C482.761 432 485 429.761 485 427C485 424.239 482.761 422 480 422C477.239 422 475 424.239 475 427Z" fill="#D9D9D9"/>
<path d="M475 969C475 971.761 477.239 974 480 974C482.761 974 485 971.761 485 969C485 966.239 482.761 964 480 964C477.239 964 475 966.239 475 969Z" fill="#D9D9D9"/>
<path d="M475 246C475 248.761 477.239 251 480 251C482.761 251 485 248.761 485 246C485 243.239 482.761 241 480 241C477.239 241 475 243.239 475 246Z" fill="#D9D9D9"/>
<path d="M475 1331C475 1333.76 477.239 1336 480 1336C482.761 1336 485 1333.76 485 1331C485 1328.24 482.761 1326 480 1326C477.239 1326 475 1328.24 475 1331Z" fill="#D9D9D9"/>
<path d="M475 607.5C475 610.538 477.239 613 480 613C482.761 613 485 610.538 485 607.5C485 604.462 482.761 602 480 602C477.239 602 475 604.462 475 607.5Z" fill="#D9D9D9"/>
<path d="M475 849C475 851.761 477.239 854 480 854C482.761 854 485 851.761 485 849C485 846.239 482.761 844 480 844C477.239 844 475 846.239 475 849Z" fill="#D9D9D9"/>
<path d="M475 125.5C475 128.538 477.239 131 480 131C482.761 131 485 128.538 485 125.5C485 122.462 482.761 120 480 120C477.239 120 475 122.462 475 125.5Z" fill="#D9D9D9"/>
<path d="M475 1210C475 1212.76 477.239 1215 480 1215C482.761 1215 485 1212.76 485 1210C485 1207.24 482.761 1205 480 1205C477.239 1205 475 1207.24 475 1210Z" fill="#D9D9D9"/>
<path d="M475 487C475 489.761 477.239 492 480 492C482.761 492 485 489.761 485 487C485 484.239 482.761 482 480 482C477.239 482 475 484.239 475 487Z" fill="#D9D9D9"/>
<path d="M475 1029.5C475 1032.54 477.239 1035 480 1035C482.761 1035 485 1032.54 485 1029.5C485 1026.46 482.761 1024 480 1024C477.239 1024 475 1026.46 475 1029.5Z" fill="#D9D9D9"/>
<path d="M475 306C475 308.761 477.239 311 480 311C482.761 311 485 308.761 485 306C485 303.239 482.761 301 480 301C477.239 301 475 303.239 475 306Z" fill="#D9D9D9"/>
<path d="M475 1391C475 1393.76 477.239 1396 480 1396C482.761 1396 485 1393.76 485 1391C485 1388.24 482.761 1386 480 1386C477.239 1386 475 1388.24 475 1391Z" fill="#D9D9D9"/>
<path d="M475 668C475 670.761 477.239 673 480 673C482.761 673 485 670.761 485 668C485 665.239 482.761 663 480 663C477.239 663 475 665.239 475 668Z" fill="#D9D9D9"/>
<path d="M171 760C171 762.761 173.239 765 176 765C178.761 765 181 762.761 181 760C181 757.239 178.761 755 176 755C173.239 755 171 757.239 171 760Z" fill="#D9D9D9"/>
<path d="M171 37C171 39.7614 173.239 42 176 42C178.761 42 181 39.7614 181 37C181 34.2386 178.761 32 176 32C173.239 32 171 34.2386 171 37Z" fill="#D9D9D9"/>
<path d="M171 1122C171 1124.76 173.239 1127 176 1127C178.761 1127 181 1124.76 181 1122C181 1119.24 178.761 1117 176 1117C173.239 1117 171 1119.24 171 1122Z" fill="#D9D9D9"/>
<path d="M171 398.5C171 401.538 173.239 404 176 404C178.761 404 181 401.538 181 398.5C181 395.462 178.761 393 176 393C173.239 393 171 395.462 171 398.5Z" fill="#D9D9D9"/>
<path d="M171 941C171 943.761 173.239 946 176 946C178.761 946 181 943.761 181 941C181 938.239 178.761 936 176 936C173.239 936 171 938.239 171 941Z" fill="#D9D9D9"/>
<path d="M171 218C171 220.761 173.239 223 176 223C178.761 223 181 220.761 181 218C181 215.239 178.761 213 176 213C173.239 213 171 215.239 171 218Z" fill="#D9D9D9"/>
<path d="M171 1302.5C171 1305.54 173.239 1308 176 1308C178.761 1308 181 1305.54 181 1302.5C181 1299.46 178.761 1297 176 1297C173.239 1297 171 1299.46 171 1302.5Z" fill="#D9D9D9"/>
<path d="M171 579C171 581.761 173.239 584 176 584C178.761 584 181 581.761 181 579C181 576.239 178.761 574 176 574C173.239 574 171 576.239 171 579Z" fill="#D9D9D9"/>
<path d="M171 820.5C171 823.538 173.239 826 176 826C178.761 826 181 823.538 181 820.5C181 817.462 178.761 815 176 815C173.239 815 171 817.462 171 820.5Z" fill="#D9D9D9"/>
<path d="M171 97C171 99.7614 173.239 102 176 102C178.761 102 181 99.7614 181 97C181 94.2386 178.761 92 176 92C173.239 92 171 94.2386 171 97Z" fill="#D9D9D9"/>
<path d="M171 1182C171 1184.76 173.239 1187 176 1187C178.761 1187 181 1184.76 181 1182C181 1179.24 178.761 1177 176 1177C173.239 1177 171 1179.24 171 1182Z" fill="#D9D9D9"/>
<path d="M171 459C171 461.761 173.239 464 176 464C178.761 464 181 461.761 181 459C181 456.239 178.761 454 176 454C173.239 454 171 456.239 171 459Z" fill="#D9D9D9"/>
<path d="M171 1001C171 1003.76 173.239 1006 176 1006C178.761 1006 181 1003.76 181 1001C181 998.239 178.761 996 176 996C173.239 996 171 998.239 171 1001Z" fill="#D9D9D9"/>
<path d="M171 278C171 280.761 173.239 283 176 283C178.761 283 181 280.761 181 278C181 275.239 178.761 273 176 273C173.239 273 171 275.239 171 278Z" fill="#D9D9D9"/>
<path d="M171 1363C171 1365.76 173.239 1368 176 1368C178.761 1368 181 1365.76 181 1363C181 1360.24 178.761 1358 176 1358C173.239 1358 171 1360.24 171 1363Z" fill="#D9D9D9"/>
<path d="M171 639.5C171 642.538 173.239 645 176 645C178.761 645 181 642.538 181 639.5C181 636.462 178.761 634 176 634C173.239 634 171 636.462 171 639.5Z" fill="#D9D9D9"/>
<path d="M171 881C171 883.761 173.239 886 176 886C178.761 886 181 883.761 181 881C181 878.239 178.761 876 176 876C173.239 876 171 878.239 171 881Z" fill="#D9D9D9"/>
<path d="M171 157.5C171 160.538 173.239 163 176 163C178.761 163 181 160.538 181 157.5C181 154.462 178.761 152 176 152C173.239 152 171 154.462 171 157.5Z" fill="#D9D9D9"/>
<path d="M171 1242C171 1244.76 173.239 1247 176 1247C178.761 1247 181 1244.76 181 1242C181 1239.24 178.761 1237 176 1237C173.239 1237 171 1239.24 171 1242Z" fill="#D9D9D9"/>
<path d="M171 519C171 521.761 173.239 524 176 524C178.761 524 181 521.761 181 519C181 516.239 178.761 514 176 514C173.239 514 171 516.239 171 519Z" fill="#D9D9D9"/>
<path d="M171 1061.5C171 1064.54 173.239 1067 176 1067C178.761 1067 181 1064.54 181 1061.5C181 1058.46 178.761 1056 176 1056C173.239 1056 171 1058.46 171 1061.5Z" fill="#D9D9D9"/>
<path d="M171 338C171 340.761 173.239 343 176 343C178.761 343 181 340.761 181 338C181 335.239 178.761 333 176 333C173.239 333 171 335.239 171 338Z" fill="#D9D9D9"/>
<path d="M171 1423C171 1425.76 173.239 1428 176 1428C178.761 1428 181 1425.76 181 1423C181 1420.24 178.761 1418 176 1418C173.239 1418 171 1420.24 171 1423Z" fill="#D9D9D9"/>
<path d="M171 700C171 702.761 173.239 705 176 705C178.761 705 181 702.761 181 700C181 697.239 178.761 695 176 695C173.239 695 171 697.239 171 700Z" fill="#D9D9D9"/>
<path d="M214 728C214 730.761 216.239 733 219 733C221.761 733 224 730.761 224 728C224 725.239 221.761 723 219 723C216.239 723 214 725.239 214 728Z" fill="#D9D9D9"/>
<path d="M214 5C214 7.76142 216.239 10 219 10C221.761 10 224 7.76142 224 5C224 2.23858 221.761 0 219 0C216.239 0 214 2.23858 214 5Z" fill="#D9D9D9"/>
<path d="M214 1090C214 1092.76 216.239 1095 219 1095C221.761 1095 224 1092.76 224 1090C224 1087.24 221.761 1085 219 1085C216.239 1085 214 1087.24 214 1090Z" fill="#D9D9D9"/>
<path d="M214 366.5C214 369.538 216.239 372 219 372C221.761 372 224 369.538 224 366.5C224 363.462 221.761 361 219 361C216.239 361 214 363.462 214 366.5Z" fill="#D9D9D9"/>
<path d="M214 909C214 911.761 216.239 914 219 914C221.761 914 224 911.761 224 909C224 906.239 221.761 904 219 904C216.239 904 214 906.239 214 909Z" fill="#D9D9D9"/>
<path d="M214 186C214 188.761 216.239 191 219 191C221.761 191 224 188.761 224 186C224 183.239 221.761 181 219 181C216.239 181 214 183.239 214 186Z" fill="#D9D9D9"/>
<path d="M214 1270.5C214 1273.54 216.239 1276 219 1276C221.761 1276 224 1273.54 224 1270.5C224 1267.46 221.761 1265 219 1265C216.239 1265 214 1267.46 214 1270.5Z" fill="#D9D9D9"/>
<path d="M214 547C214 549.761 216.239 552 219 552C221.761 552 224 549.761 224 547C224 544.239 221.761 542 219 542C216.239 542 214 544.239 214 547Z" fill="#D9D9D9"/>
<path d="M214 788.5C214 791.538 216.239 794 219 794C221.761 794 224 791.538 224 788.5C224 785.462 221.761 783 219 783C216.239 783 214 785.462 214 788.5Z" fill="#D9D9D9"/>
<path d="M214 65C214 67.7614 216.239 70 219 70C221.761 70 224 67.7614 224 65C224 62.2386 221.761 60 219 60C216.239 60 214 62.2386 214 65Z" fill="#D9D9D9"/>
<path d="M214 1150C214 1152.76 216.239 1155 219 1155C221.761 1155 224 1152.76 224 1150C224 1147.24 221.761 1145 219 1145C216.239 1145 214 1147.24 214 1150Z" fill="#D9D9D9"/>
<path d="M214 427C214 429.761 216.239 432 219 432C221.761 432 224 429.761 224 427C224 424.239 221.761 422 219 422C216.239 422 214 424.239 214 427Z" fill="#D9D9D9"/>
<path d="M214 969C214 971.761 216.239 974 219 974C221.761 974 224 971.761 224 969C224 966.239 221.761 964 219 964C216.239 964 214 966.239 214 969Z" fill="#D9D9D9"/>
<path d="M214 246C214 248.761 216.239 251 219 251C221.761 251 224 248.761 224 246C224 243.239 221.761 241 219 241C216.239 241 214 243.239 214 246Z" fill="#D9D9D9"/>
<path d="M214 1331C214 1333.76 216.239 1336 219 1336C221.761 1336 224 1333.76 224 1331C224 1328.24 221.761 1326 219 1326C216.239 1326 214 1328.24 214 1331Z" fill="#D9D9D9"/>
<path d="M214 607.5C214 610.538 216.239 613 219 613C221.761 613 224 610.538 224 607.5C224 604.462 221.761 602 219 602C216.239 602 214 604.462 214 607.5Z" fill="#D9D9D9"/>
<path d="M214 849C214 851.761 216.239 854 219 854C221.761 854 224 851.761 224 849C224 846.239 221.761 844 219 844C216.239 844 214 846.239 214 849Z" fill="#D9D9D9"/>
<path d="M214 125.5C214 128.538 216.239 131 219 131C221.761 131 224 128.538 224 125.5C224 122.462 221.761 120 219 120C216.239 120 214 122.462 214 125.5Z" fill="#D9D9D9"/>
<path d="M214 1210C214 1212.76 216.239 1215 219 1215C221.761 1215 224 1212.76 224 1210C224 1207.24 221.761 1205 219 1205C216.239 1205 214 1207.24 214 1210Z" fill="#D9D9D9"/>
<path d="M214 487C214 489.761 216.239 492 219 492C221.761 492 224 489.761 224 487C224 484.239 221.761 482 219 482C216.239 482 214 484.239 214 487Z" fill="#D9D9D9"/>
<path d="M214 1029.5C214 1032.54 216.239 1035 219 1035C221.761 1035 224 1032.54 224 1029.5C224 1026.46 221.761 1024 219 1024C216.239 1024 214 1026.46 214 1029.5Z" fill="#D9D9D9"/>
<path d="M214 306C214 308.761 216.239 311 219 311C221.761 311 224 308.761 224 306C224 303.239 221.761 301 219 301C216.239 301 214 303.239 214 306Z" fill="#D9D9D9"/>
<path d="M214 1391C214 1393.76 216.239 1396 219 1396C221.761 1396 224 1393.76 224 1391C224 1388.24 221.761 1386 219 1386C216.239 1386 214 1388.24 214 1391Z" fill="#D9D9D9"/>
<path d="M214 668C214 670.761 216.239 673 219 673C221.761 673 224 670.761 224 668C224 665.239 221.761 663 219 663C216.239 663 214 665.239 214 668Z" fill="#D9D9D9"/>
<path d="M257 760C257 762.761 259.239 765 262 765C264.761 765 267 762.761 267 760C267 757.239 264.761 755 262 755C259.239 755 257 757.239 257 760Z" fill="#D9D9D9"/>
<path d="M257 37C257 39.7614 259.239 42 262 42C264.761 42 267 39.7614 267 37C267 34.2386 264.761 32 262 32C259.239 32 257 34.2386 257 37Z" fill="#D9D9D9"/>
<path d="M257 1122C257 1124.76 259.239 1127 262 1127C264.761 1127 267 1124.76 267 1122C267 1119.24 264.761 1117 262 1117C259.239 1117 257 1119.24 257 1122Z" fill="#D9D9D9"/>
<path d="M257 398.5C257 401.538 259.239 404 262 404C264.761 404 267 401.538 267 398.5C267 395.462 264.761 393 262 393C259.239 393 257 395.462 257 398.5Z" fill="#D9D9D9"/>
<path d="M257 941C257 943.761 259.239 946 262 946C264.761 946 267 943.761 267 941C267 938.239 264.761 936 262 936C259.239 936 257 938.239 257 941Z" fill="#D9D9D9"/>
<path d="M257 218C257 220.761 259.239 223 262 223C264.761 223 267 220.761 267 218C267 215.239 264.761 213 262 213C259.239 213 257 215.239 257 218Z" fill="#D9D9D9"/>
<path d="M257 1302.5C257 1305.54 259.239 1308 262 1308C264.761 1308 267 1305.54 267 1302.5C267 1299.46 264.761 1297 262 1297C259.239 1297 257 1299.46 257 1302.5Z" fill="#D9D9D9"/>
<path d="M257 579C257 581.761 259.239 584 262 584C264.761 584 267 581.761 267 579C267 576.239 264.761 574 262 574C259.239 574 257 576.239 257 579Z" fill="#D9D9D9"/>
<path d="M257 820.5C257 823.538 259.239 826 262 826C264.761 826 267 823.538 267 820.5C267 817.462 264.761 815 262 815C259.239 815 257 817.462 257 820.5Z" fill="#D9D9D9"/>
<path d="M257 97C257 99.7614 259.239 102 262 102C264.761 102 267 99.7614 267 97C267 94.2386 264.761 92 262 92C259.239 92 257 94.2386 257 97Z" fill="#D9D9D9"/>
<path d="M257 1182C257 1184.76 259.239 1187 262 1187C264.761 1187 267 1184.76 267 1182C267 1179.24 264.761 1177 262 1177C259.239 1177 257 1179.24 257 1182Z" fill="#D9D9D9"/>
<path d="M257 459C257 461.761 259.239 464 262 464C264.761 464 267 461.761 267 459C267 456.239 264.761 454 262 454C259.239 454 257 456.239 257 459Z" fill="#D9D9D9"/>
<path d="M257 1001C257 1003.76 259.239 1006 262 1006C264.761 1006 267 1003.76 267 1001C267 998.239 264.761 996 262 996C259.239 996 257 998.239 257 1001Z" fill="#D9D9D9"/>
<path d="M257 278C257 280.761 259.239 283 262 283C264.761 283 267 280.761 267 278C267 275.239 264.761 273 262 273C259.239 273 257 275.239 257 278Z" fill="#D9D9D9"/>
<path d="M257 1363C257 1365.76 259.239 1368 262 1368C264.761 1368 267 1365.76 267 1363C267 1360.24 264.761 1358 262 1358C259.239 1358 257 1360.24 257 1363Z" fill="#D9D9D9"/>
<path d="M257 639.5C257 642.538 259.239 645 262 645C264.761 645 267 642.538 267 639.5C267 636.462 264.761 634 262 634C259.239 634 257 636.462 257 639.5Z" fill="#D9D9D9"/>
<path d="M257 881C257 883.761 259.239 886 262 886C264.761 886 267 883.761 267 881C267 878.239 264.761 876 262 876C259.239 876 257 878.239 257 881Z" fill="#D9D9D9"/>
<path d="M257 157.5C257 160.538 259.239 163 262 163C264.761 163 267 160.538 267 157.5C267 154.462 264.761 152 262 152C259.239 152 257 154.462 257 157.5Z" fill="#D9D9D9"/>
<path d="M257 1242C257 1244.76 259.239 1247 262 1247C264.761 1247 267 1244.76 267 1242C267 1239.24 264.761 1237 262 1237C259.239 1237 257 1239.24 257 1242Z" fill="#D9D9D9"/>
<path d="M257 519C257 521.761 259.239 524 262 524C264.761 524 267 521.761 267 519C267 516.239 264.761 514 262 514C259.239 514 257 516.239 257 519Z" fill="#D9D9D9"/>
<path d="M257 1061.5C257 1064.54 259.239 1067 262 1067C264.761 1067 267 1064.54 267 1061.5C267 1058.46 264.761 1056 262 1056C259.239 1056 257 1058.46 257 1061.5Z" fill="#D9D9D9"/>
<path d="M257 338C257 340.761 259.239 343 262 343C264.761 343 267 340.761 267 338C267 335.239 264.761 333 262 333C259.239 333 257 335.239 257 338Z" fill="#D9D9D9"/>
<path d="M257 1423C257 1425.76 259.239 1428 262 1428C264.761 1428 267 1425.76 267 1423C267 1420.24 264.761 1418 262 1418C259.239 1418 257 1420.24 257 1423Z" fill="#D9D9D9"/>
<path d="M257 700C257 702.761 259.239 705 262 705C264.761 705 267 702.761 267 700C267 697.239 264.761 695 262 695C259.239 695 257 697.239 257 700Z" fill="#D9D9D9"/>
<path d="M300 728C300 730.761 302.239 733 305 733C307.761 733 310 730.761 310 728C310 725.239 307.761 723 305 723C302.239 723 300 725.239 300 728Z" fill="#D9D9D9"/>
<path d="M300 5C300 7.76142 302.239 10 305 10C307.761 10 310 7.76142 310 5C310 2.23858 307.761 0 305 0C302.239 0 300 2.23858 300 5Z" fill="#D9D9D9"/>
<path d="M300 1090C300 1092.76 302.239 1095 305 1095C307.761 1095 310 1092.76 310 1090C310 1087.24 307.761 1085 305 1085C302.239 1085 300 1087.24 300 1090Z" fill="#D9D9D9"/>
<path d="M300 366.5C300 369.538 302.239 372 305 372C307.761 372 310 369.538 310 366.5C310 363.462 307.761 361 305 361C302.239 361 300 363.462 300 366.5Z" fill="#D9D9D9"/>
<path d="M300 909C300 911.761 302.239 914 305 914C307.761 914 310 911.761 310 909C310 906.239 307.761 904 305 904C302.239 904 300 906.239 300 909Z" fill="#D9D9D9"/>
<path d="M300 186C300 188.761 302.239 191 305 191C307.761 191 310 188.761 310 186C310 183.239 307.761 181 305 181C302.239 181 300 183.239 300 186Z" fill="#D9D9D9"/>
<path d="M300 1270.5C300 1273.54 302.239 1276 305 1276C307.761 1276 310 1273.54 310 1270.5C310 1267.46 307.761 1265 305 1265C302.239 1265 300 1267.46 300 1270.5Z" fill="#D9D9D9"/>
<path d="M300 547C300 549.761 302.239 552 305 552C307.761 552 310 549.761 310 547C310 544.239 307.761 542 305 542C302.239 542 300 544.239 300 547Z" fill="#D9D9D9"/>
<path d="M300 788.5C300 791.538 302.239 794 305 794C307.761 794 310 791.538 310 788.5C310 785.462 307.761 783 305 783C302.239 783 300 785.462 300 788.5Z" fill="#D9D9D9"/>
<path d="M300 65C300 67.7614 302.239 70 305 70C307.761 70 310 67.7614 310 65C310 62.2386 307.761 60 305 60C302.239 60 300 62.2386 300 65Z" fill="#D9D9D9"/>
<path d="M300 1150C300 1152.76 302.239 1155 305 1155C307.761 1155 310 1152.76 310 1150C310 1147.24 307.761 1145 305 1145C302.239 1145 300 1147.24 300 1150Z" fill="#D9D9D9"/>
<path d="M300 427C300 429.761 302.239 432 305 432C307.761 432 310 429.761 310 427C310 424.239 307.761 422 305 422C302.239 422 300 424.239 300 427Z" fill="#D9D9D9"/>
<path d="M300 969C300 971.761 302.239 974 305 974C307.761 974 310 971.761 310 969C310 966.239 307.761 964 305 964C302.239 964 300 966.239 300 969Z" fill="#D9D9D9"/>
<path d="M300 246C300 248.761 302.239 251 305 251C307.761 251 310 248.761 310 246C310 243.239 307.761 241 305 241C302.239 241 300 243.239 300 246Z" fill="#D9D9D9"/>
<path d="M300 1331C300 1333.76 302.239 1336 305 1336C307.761 1336 310 1333.76 310 1331C310 1328.24 307.761 1326 305 1326C302.239 1326 300 1328.24 300 1331Z" fill="#D9D9D9"/>
<path d="M300 607.5C300 610.538 302.239 613 305 613C307.761 613 310 610.538 310 607.5C310 604.462 307.761 602 305 602C302.239 602 300 604.462 300 607.5Z" fill="#D9D9D9"/>
<path d="M300 849C300 851.761 302.239 854 305 854C307.761 854 310 851.761 310 849C310 846.239 307.761 844 305 844C302.239 844 300 846.239 300 849Z" fill="#D9D9D9"/>
<path d="M300 125.5C300 128.538 302.239 131 305 131C307.761 131 310 128.538 310 125.5C310 122.462 307.761 120 305 120C302.239 120 300 122.462 300 125.5Z" fill="#D9D9D9"/>
<path d="M300 1210C300 1212.76 302.239 1215 305 1215C307.761 1215 310 1212.76 310 1210C310 1207.24 307.761 1205 305 1205C302.239 1205 300 1207.24 300 1210Z" fill="#D9D9D9"/>
<path d="M300 487C300 489.761 302.239 492 305 492C307.761 492 310 489.761 310 487C310 484.239 307.761 482 305 482C302.239 482 300 484.239 300 487Z" fill="#D9D9D9"/>
<path d="M300 1029.5C300 1032.54 302.239 1035 305 1035C307.761 1035 310 1032.54 310 1029.5C310 1026.46 307.761 1024 305 1024C302.239 1024 300 1026.46 300 1029.5Z" fill="#D9D9D9"/>
<path d="M300 306C300 308.761 302.239 311 305 311C307.761 311 310 308.761 310 306C310 303.239 307.761 301 305 301C302.239 301 300 303.239 300 306Z" fill="#D9D9D9"/>
<path d="M300 1391C300 1393.76 302.239 1396 305 1396C307.761 1396 310 1393.76 310 1391C310 1388.24 307.761 1386 305 1386C302.239 1386 300 1388.24 300 1391Z" fill="#D9D9D9"/>
<path d="M300 668C300 670.761 302.239 673 305 673C307.761 673 310 670.761 310 668C310 665.239 307.761 663 305 663C302.239 663 300 665.239 300 668Z" fill="#D9D9D9"/>
</mask>
<g mask="url(#mask0_117_331)">
<path d="M0 0H705V1428H0V0Z" fill="url(#paint0_linear_117_331)"/>
</g>
<defs>
<linearGradient id="paint0_linear_117_331" x1="1.05053e-05" y1="714" x2="705" y2="714" gradientUnits="userSpaceOnUse">
<stop stop-color="#5E5E5E" stop-opacity="0.8"/>
<stop offset="1" stop-opacity="0.3"/>
</linearGradient>
</defs>
</svg>
