<svg width="1451" height="485" viewBox="0 0 1451 485" fill="none" xmlns="http://www.w3.org/2000/svg">
<mask id="mask0_117_331" style="mask-type:alpha" maskUnits="userSpaceOnUse" x="23" y="0" width="1428" height="485">
<path d="M691 0C688.239 0 686 2.23858 686 5C686 7.76142 688.239 10 691 10C693.761 10 696 7.76142 696 5C696 2.23858 693.761 0 691 0Z" fill="#D9D9D9"/>
<path d="M1414 0C1411.24 0 1409 2.23858 1409 5C1409 7.76142 1411.24 10 1414 10C1416.76 10 1419 7.76142 1419 5C1419 2.23858 1416.76 0 1414 0Z" fill="#D9D9D9"/>
<path d="M329 0C326.239 0 324 2.23858 324 5C324 7.76142 326.239 10 329 10C331.761 10 334 7.76142 334 5C334 2.23858 331.761 0 329 0Z" fill="#D9D9D9"/>
<path d="M1052.5 0C1049.46 0 1047 2.23858 1047 5C1047 7.76142 1049.46 10 1052.5 10C1055.54 10 1058 7.76142 1058 5C1058 2.23858 1055.54 0 1052.5 0Z" fill="#D9D9D9"/>
<path d="M510 0C507.239 0 505 2.23858 505 5C505 7.76142 507.239 10 510 10C512.761 10 515 7.76142 515 5C515 2.23858 512.761 0 510 0Z" fill="#D9D9D9"/>
<path d="M1233 0C1230.24 0 1228 2.23858 1228 5C1228 7.76142 1230.24 10 1233 10C1235.76 10 1238 7.76142 1238 5C1238 2.23858 1235.76 0 1233 0Z" fill="#D9D9D9"/>
<path d="M148.5 0C145.462 0 143 2.23858 143 5C143 7.76142 145.462 10 148.5 10C151.538 10 154 7.76142 154 5C154 2.23858 151.538 0 148.5 0Z" fill="#D9D9D9"/>
<path d="M872 0C869.239 0 867 2.23858 867 5C867 7.76142 869.239 10 872 10C874.761 10 877 7.76142 877 5C877 2.23858 874.761 0 872 0Z" fill="#D9D9D9"/>
<path d="M630.5 0C627.462 0 625 2.23858 625 5C625 7.76142 627.462 10 630.5 10C633.538 10 636 7.76142 636 5C636 2.23858 633.538 0 630.5 0Z" fill="#D9D9D9"/>
<path d="M1354 0C1351.24 0 1349 2.23858 1349 5C1349 7.76142 1351.24 10 1354 10C1356.76 10 1359 7.76142 1359 5C1359 2.23858 1356.76 0 1354 0Z" fill="#D9D9D9"/>
<path d="M269 0C266.239 0 264 2.23858 264 5C264 7.76142 266.239 10 269 10C271.761 10 274 7.76142 274 5C274 2.23858 271.761 0 269 0Z" fill="#D9D9D9"/>
<path d="M992 0C989.239 0 987 2.23858 987 5C987 7.76142 989.239 10 992 10C994.761 10 997 7.76142 997 5C997 2.23858 994.761 0 992 0Z" fill="#D9D9D9"/>
<path d="M450 0C447.239 0 445 2.23858 445 5C445 7.76142 447.239 10 450 10C452.761 10 455 7.76142 455 5C455 2.23858 452.761 0 450 0Z" fill="#D9D9D9"/>
<path d="M1173 0C1170.24 0 1168 2.23858 1168 5C1168 7.76142 1170.24 10 1173 10C1175.76 10 1178 7.76142 1178 5C1178 2.23858 1175.76 0 1173 0Z" fill="#D9D9D9"/>
<path d="M88 0C85.2385 0 83 2.23858 83 5C83 7.76142 85.2385 10 88 10C90.7615 10 93 7.76142 93 5C93 2.23858 90.7615 0 88 0Z" fill="#D9D9D9"/>
<path d="M811.5 0C808.462 0 806 2.23858 806 5C806 7.76142 808.462 10 811.5 10C814.538 10 817 7.76142 817 5C817 2.23858 814.538 0 811.5 0Z" fill="#D9D9D9"/>
<path d="M570 0C567.239 0 565 2.23858 565 5C565 7.76142 567.239 10 570 10C572.761 10 575 7.76142 575 5C575 2.23858 572.761 0 570 0Z" fill="#D9D9D9"/>
<path d="M1293.5 0C1290.46 0 1288 2.23858 1288 5C1288 7.76142 1290.46 10 1293.5 10C1296.54 10 1299 7.76142 1299 5C1299 2.23858 1296.54 0 1293.5 0Z" fill="#D9D9D9"/>
<path d="M209 0C206.239 0 204 2.23858 204 5C204 7.76142 206.239 10 209 10C211.761 10 214 7.76142 214 5C214 2.23858 211.761 0 209 0Z" fill="#D9D9D9"/>
<path d="M932 0C929.239 0 927 2.23858 927 5C927 7.76142 929.239 10 932 10C934.761 10 937 7.76142 937 5C937 2.23858 934.761 0 932 0Z" fill="#D9D9D9"/>
<path d="M389.5 0C386.462 0 384 2.23858 384 5C384 7.76142 386.462 10 389.5 10C392.538 10 395 7.76142 395 5C395 2.23858 392.538 0 389.5 0Z" fill="#D9D9D9"/>
<path d="M1113 0C1110.24 0 1108 2.23858 1108 5C1108 7.76142 1110.24 10 1113 10C1115.76 10 1118 7.76142 1118 5C1118 2.23858 1115.76 0 1113 0Z" fill="#D9D9D9"/>
<path d="M28 0C25.2385 0 23 2.23858 23 5C23 7.76142 25.2385 10 28 10C30.7615 10 33 7.76142 33 5C33 2.23858 30.7615 0 28 0Z" fill="#D9D9D9"/>
<path d="M751 0C748.239 0 746 2.23858 746 5C746 7.76142 748.239 10 751 10C753.761 10 756 7.76142 756 5C756 2.23858 753.761 0 751 0Z" fill="#D9D9D9"/>
<path d="M723 43C720.239 43 718 45.2386 718 48C718 50.7614 720.239 53 723 53C725.761 53 728 50.7614 728 48C728 45.2386 725.761 43 723 43Z" fill="#D9D9D9"/>
<path d="M1446 43C1443.24 43 1441 45.2386 1441 48C1441 50.7614 1443.24 53 1446 53C1448.76 53 1451 50.7614 1451 48C1451 45.2386 1448.76 43 1446 43Z" fill="#D9D9D9"/>
<path d="M361 43C358.239 43 356 45.2386 356 48C356 50.7614 358.239 53 361 53C363.761 53 366 50.7614 366 48C366 45.2386 363.761 43 361 43Z" fill="#D9D9D9"/>
<path d="M1084.5 43C1081.46 43 1079 45.2386 1079 48C1079 50.7614 1081.46 53 1084.5 53C1087.54 53 1090 50.7614 1090 48C1090 45.2386 1087.54 43 1084.5 43Z" fill="#D9D9D9"/>
<path d="M542 43C539.239 43 537 45.2386 537 48C537 50.7614 539.239 53 542 53C544.761 53 547 50.7614 547 48C547 45.2386 544.761 43 542 43Z" fill="#D9D9D9"/>
<path d="M1265 43C1262.24 43 1260 45.2386 1260 48C1260 50.7614 1262.24 53 1265 53C1267.76 53 1270 50.7614 1270 48C1270 45.2386 1267.76 43 1265 43Z" fill="#D9D9D9"/>
<path d="M180.5 43C177.462 43 175 45.2386 175 48C175 50.7614 177.462 53 180.5 53C183.538 53 186 50.7614 186 48C186 45.2386 183.538 43 180.5 43Z" fill="#D9D9D9"/>
<path d="M904 43C901.239 43 899 45.2386 899 48C899 50.7614 901.239 53 904 53C906.761 53 909 50.7614 909 48C909 45.2386 906.761 43 904 43Z" fill="#D9D9D9"/>
<path d="M662.5 43C659.462 43 657 45.2386 657 48C657 50.7614 659.462 53 662.5 53C665.538 53 668 50.7614 668 48C668 45.2386 665.538 43 662.5 43Z" fill="#D9D9D9"/>
<path d="M1386 43C1383.24 43 1381 45.2386 1381 48C1381 50.7614 1383.24 53 1386 53C1388.76 53 1391 50.7614 1391 48C1391 45.2386 1388.76 43 1386 43Z" fill="#D9D9D9"/>
<path d="M301 43C298.239 43 296 45.2386 296 48C296 50.7614 298.239 53 301 53C303.761 53 306 50.7614 306 48C306 45.2386 303.761 43 301 43Z" fill="#D9D9D9"/>
<path d="M1024 43C1021.24 43 1019 45.2386 1019 48C1019 50.7614 1021.24 53 1024 53C1026.76 53 1029 50.7614 1029 48C1029 45.2386 1026.76 43 1024 43Z" fill="#D9D9D9"/>
<path d="M482 43C479.239 43 477 45.2386 477 48C477 50.7614 479.239 53 482 53C484.761 53 487 50.7614 487 48C487 45.2386 484.761 43 482 43Z" fill="#D9D9D9"/>
<path d="M1205 43C1202.24 43 1200 45.2386 1200 48C1200 50.7614 1202.24 53 1205 53C1207.76 53 1210 50.7614 1210 48C1210 45.2386 1207.76 43 1205 43Z" fill="#D9D9D9"/>
<path d="M120 43C117.239 43 115 45.2386 115 48C115 50.7614 117.239 53 120 53C122.761 53 125 50.7614 125 48C125 45.2386 122.761 43 120 43Z" fill="#D9D9D9"/>
<path d="M843.5 43C840.462 43 838 45.2386 838 48C838 50.7614 840.462 53 843.5 53C846.538 53 849 50.7614 849 48C849 45.2386 846.538 43 843.5 43Z" fill="#D9D9D9"/>
<path d="M602 43C599.239 43 597 45.2386 597 48C597 50.7614 599.239 53 602 53C604.761 53 607 50.7614 607 48C607 45.2386 604.761 43 602 43Z" fill="#D9D9D9"/>
<path d="M1325.5 43C1322.46 43 1320 45.2386 1320 48C1320 50.7614 1322.46 53 1325.5 53C1328.54 53 1331 50.7614 1331 48C1331 45.2386 1328.54 43 1325.5 43Z" fill="#D9D9D9"/>
<path d="M241 43C238.239 43 236 45.2386 236 48C236 50.7614 238.239 53 241 53C243.761 53 246 50.7614 246 48C246 45.2386 243.761 43 241 43Z" fill="#D9D9D9"/>
<path d="M964 43C961.239 43 959 45.2386 959 48C959 50.7614 961.239 53 964 53C966.761 53 969 50.7614 969 48C969 45.2386 966.761 43 964 43Z" fill="#D9D9D9"/>
<path d="M421.5 43C418.462 43 416 45.2386 416 48C416 50.7614 418.462 53 421.5 53C424.538 53 427 50.7614 427 48C427 45.2386 424.538 43 421.5 43Z" fill="#D9D9D9"/>
<path d="M1145 43C1142.24 43 1140 45.2386 1140 48C1140 50.7614 1142.24 53 1145 53C1147.76 53 1150 50.7614 1150 48C1150 45.2386 1147.76 43 1145 43Z" fill="#D9D9D9"/>
<path d="M60 43C57.2385 43 55 45.2386 55 48C55 50.7614 57.2385 53 60 53C62.7615 53 65 50.7614 65 48C65 45.2386 62.7615 43 60 43Z" fill="#D9D9D9"/>
<path d="M783 43C780.239 43 778 45.2386 778 48C778 50.7614 780.239 53 783 53C785.761 53 788 50.7614 788 48C788 45.2386 785.761 43 783 43Z" fill="#D9D9D9"/>
<path d="M691 86C688.239 86 686 88.2386 686 91C686 93.7614 688.239 96 691 96C693.761 96 696 93.7614 696 91C696 88.2386 693.761 86 691 86Z" fill="#D9D9D9"/>
<path d="M1414 86C1411.24 86 1409 88.2386 1409 91C1409 93.7614 1411.24 96 1414 96C1416.76 96 1419 93.7614 1419 91C1419 88.2386 1416.76 86 1414 86Z" fill="#D9D9D9"/>
<path d="M329 86C326.239 86 324 88.2386 324 91C324 93.7614 326.239 96 329 96C331.761 96 334 93.7614 334 91C334 88.2386 331.761 86 329 86Z" fill="#D9D9D9"/>
<path d="M1052.5 86C1049.46 86 1047 88.2386 1047 91C1047 93.7614 1049.46 96 1052.5 96C1055.54 96 1058 93.7614 1058 91C1058 88.2386 1055.54 86 1052.5 86Z" fill="#D9D9D9"/>
<path d="M510 86C507.239 86 505 88.2386 505 91C505 93.7614 507.239 96 510 96C512.761 96 515 93.7614 515 91C515 88.2386 512.761 86 510 86Z" fill="#D9D9D9"/>
<path d="M1233 86C1230.24 86 1228 88.2386 1228 91C1228 93.7614 1230.24 96 1233 96C1235.76 96 1238 93.7614 1238 91C1238 88.2386 1235.76 86 1233 86Z" fill="#D9D9D9"/>
<path d="M148.5 86C145.462 86 143 88.2386 143 91C143 93.7614 145.462 96 148.5 96C151.538 96 154 93.7614 154 91C154 88.2386 151.538 86 148.5 86Z" fill="#D9D9D9"/>
<path d="M872 86C869.239 86 867 88.2386 867 91C867 93.7614 869.239 96 872 96C874.761 96 877 93.7614 877 91C877 88.2386 874.761 86 872 86Z" fill="#D9D9D9"/>
<path d="M630.5 86C627.462 86 625 88.2386 625 91C625 93.7614 627.462 96 630.5 96C633.538 96 636 93.7614 636 91C636 88.2386 633.538 86 630.5 86Z" fill="#D9D9D9"/>
<path d="M1354 86C1351.24 86 1349 88.2386 1349 91C1349 93.7614 1351.24 96 1354 96C1356.76 96 1359 93.7614 1359 91C1359 88.2386 1356.76 86 1354 86Z" fill="#D9D9D9"/>
<path d="M269 86C266.239 86 264 88.2386 264 91C264 93.7614 266.239 96 269 96C271.761 96 274 93.7614 274 91C274 88.2386 271.761 86 269 86Z" fill="#D9D9D9"/>
<path d="M992 86C989.239 86 987 88.2386 987 91C987 93.7614 989.239 96 992 96C994.761 96 997 93.7614 997 91C997 88.2386 994.761 86 992 86Z" fill="#D9D9D9"/>
<path d="M450 86C447.239 86 445 88.2386 445 91C445 93.7614 447.239 96 450 96C452.761 96 455 93.7614 455 91C455 88.2386 452.761 86 450 86Z" fill="#D9D9D9"/>
<path d="M1173 86C1170.24 86 1168 88.2386 1168 91C1168 93.7614 1170.24 96 1173 96C1175.76 96 1178 93.7614 1178 91C1178 88.2386 1175.76 86 1173 86Z" fill="#D9D9D9"/>
<path d="M88 86C85.2385 86 83 88.2386 83 91C83 93.7614 85.2385 96 88 96C90.7615 96 93 93.7614 93 91C93 88.2386 90.7615 86 88 86Z" fill="#D9D9D9"/>
<path d="M811.5 86C808.462 86 806 88.2386 806 91C806 93.7614 808.462 96 811.5 96C814.538 96 817 93.7614 817 91C817 88.2386 814.538 86 811.5 86Z" fill="#D9D9D9"/>
<path d="M570 86C567.239 86 565 88.2386 565 91C565 93.7614 567.239 96 570 96C572.761 96 575 93.7614 575 91C575 88.2386 572.761 86 570 86Z" fill="#D9D9D9"/>
<path d="M1293.5 86C1290.46 86 1288 88.2386 1288 91C1288 93.7614 1290.46 96 1293.5 96C1296.54 96 1299 93.7614 1299 91C1299 88.2386 1296.54 86 1293.5 86Z" fill="#D9D9D9"/>
<path d="M209 86C206.239 86 204 88.2386 204 91C204 93.7614 206.239 96 209 96C211.761 96 214 93.7614 214 91C214 88.2386 211.761 86 209 86Z" fill="#D9D9D9"/>
<path d="M932 86C929.239 86 927 88.2386 927 91C927 93.7614 929.239 96 932 96C934.761 96 937 93.7614 937 91C937 88.2386 934.761 86 932 86Z" fill="#D9D9D9"/>
<path d="M389.5 86C386.462 86 384 88.2386 384 91C384 93.7614 386.462 96 389.5 96C392.538 96 395 93.7614 395 91C395 88.2386 392.538 86 389.5 86Z" fill="#D9D9D9"/>
<path d="M1113 86C1110.24 86 1108 88.2386 1108 91C1108 93.7614 1110.24 96 1113 96C1115.76 96 1118 93.7614 1118 91C1118 88.2386 1115.76 86 1113 86Z" fill="#D9D9D9"/>
<path d="M28 86C25.2385 86 23 88.2386 23 91C23 93.7614 25.2385 96 28 96C30.7615 96 33 93.7614 33 91C33 88.2386 30.7615 86 28 86Z" fill="#D9D9D9"/>
<path d="M751 86C748.239 86 746 88.2386 746 91C746 93.7614 748.239 96 751 96C753.761 96 756 93.7614 756 91C756 88.2386 753.761 86 751 86Z" fill="#D9D9D9"/>
<path d="M723 129C720.239 129 718 131.239 718 134C718 136.761 720.239 139 723 139C725.761 139 728 136.761 728 134C728 131.239 725.761 129 723 129Z" fill="#D9D9D9"/>
<path d="M1446 129C1443.24 129 1441 131.239 1441 134C1441 136.761 1443.24 139 1446 139C1448.76 139 1451 136.761 1451 134C1451 131.239 1448.76 129 1446 129Z" fill="#D9D9D9"/>
<path d="M361 129C358.239 129 356 131.239 356 134C356 136.761 358.239 139 361 139C363.761 139 366 136.761 366 134C366 131.239 363.761 129 361 129Z" fill="#D9D9D9"/>
<path d="M1084.5 129C1081.46 129 1079 131.239 1079 134C1079 136.761 1081.46 139 1084.5 139C1087.54 139 1090 136.761 1090 134C1090 131.239 1087.54 129 1084.5 129Z" fill="#D9D9D9"/>
<path d="M542 129C539.239 129 537 131.239 537 134C537 136.761 539.239 139 542 139C544.761 139 547 136.761 547 134C547 131.239 544.761 129 542 129Z" fill="#D9D9D9"/>
<path d="M1265 129C1262.24 129 1260 131.239 1260 134C1260 136.761 1262.24 139 1265 139C1267.76 139 1270 136.761 1270 134C1270 131.239 1267.76 129 1265 129Z" fill="#D9D9D9"/>
<path d="M180.5 129C177.462 129 175 131.239 175 134C175 136.761 177.462 139 180.5 139C183.538 139 186 136.761 186 134C186 131.239 183.538 129 180.5 129Z" fill="#D9D9D9"/>
<path d="M904 129C901.239 129 899 131.239 899 134C899 136.761 901.239 139 904 139C906.761 139 909 136.761 909 134C909 131.239 906.761 129 904 129Z" fill="#D9D9D9"/>
<path d="M662.5 129C659.462 129 657 131.239 657 134C657 136.761 659.462 139 662.5 139C665.538 139 668 136.761 668 134C668 131.239 665.538 129 662.5 129Z" fill="#D9D9D9"/>
<path d="M1386 129C1383.24 129 1381 131.239 1381 134C1381 136.761 1383.24 139 1386 139C1388.76 139 1391 136.761 1391 134C1391 131.239 1388.76 129 1386 129Z" fill="#D9D9D9"/>
<path d="M301 129C298.239 129 296 131.239 296 134C296 136.761 298.239 139 301 139C303.761 139 306 136.761 306 134C306 131.239 303.761 129 301 129Z" fill="#D9D9D9"/>
<path d="M1024 129C1021.24 129 1019 131.239 1019 134C1019 136.761 1021.24 139 1024 139C1026.76 139 1029 136.761 1029 134C1029 131.239 1026.76 129 1024 129Z" fill="#D9D9D9"/>
<path d="M482 129C479.239 129 477 131.239 477 134C477 136.761 479.239 139 482 139C484.761 139 487 136.761 487 134C487 131.239 484.761 129 482 129Z" fill="#D9D9D9"/>
<path d="M1205 129C1202.24 129 1200 131.239 1200 134C1200 136.761 1202.24 139 1205 139C1207.76 139 1210 136.761 1210 134C1210 131.239 1207.76 129 1205 129Z" fill="#D9D9D9"/>
<path d="M120 129C117.239 129 115 131.239 115 134C115 136.761 117.239 139 120 139C122.761 139 125 136.761 125 134C125 131.239 122.761 129 120 129Z" fill="#D9D9D9"/>
<path d="M843.5 129C840.462 129 838 131.239 838 134C838 136.761 840.462 139 843.5 139C846.538 139 849 136.761 849 134C849 131.239 846.538 129 843.5 129Z" fill="#D9D9D9"/>
<path d="M602 129C599.239 129 597 131.239 597 134C597 136.761 599.239 139 602 139C604.761 139 607 136.761 607 134C607 131.239 604.761 129 602 129Z" fill="#D9D9D9"/>
<path d="M1325.5 129C1322.46 129 1320 131.239 1320 134C1320 136.761 1322.46 139 1325.5 139C1328.54 139 1331 136.761 1331 134C1331 131.239 1328.54 129 1325.5 129Z" fill="#D9D9D9"/>
<path d="M241 129C238.239 129 236 131.239 236 134C236 136.761 238.239 139 241 139C243.761 139 246 136.761 246 134C246 131.239 243.761 129 241 129Z" fill="#D9D9D9"/>
<path d="M964 129C961.239 129 959 131.239 959 134C959 136.761 961.239 139 964 139C966.761 139 969 136.761 969 134C969 131.239 966.761 129 964 129Z" fill="#D9D9D9"/>
<path d="M421.5 129C418.462 129 416 131.239 416 134C416 136.761 418.462 139 421.5 139C424.538 139 427 136.761 427 134C427 131.239 424.538 129 421.5 129Z" fill="#D9D9D9"/>
<path d="M1145 129C1142.24 129 1140 131.239 1140 134C1140 136.761 1142.24 139 1145 139C1147.76 139 1150 136.761 1150 134C1150 131.239 1147.76 129 1145 129Z" fill="#D9D9D9"/>
<path d="M60 129C57.2385 129 55 131.239 55 134C55 136.761 57.2385 139 60 139C62.7615 139 65 136.761 65 134C65 131.239 62.7615 129 60 129Z" fill="#D9D9D9"/>
<path d="M783 129C780.239 129 778 131.239 778 134C778 136.761 780.239 139 783 139C785.761 139 788 136.761 788 134C788 131.239 785.761 129 783 129Z" fill="#D9D9D9"/>
<path d="M691 346C688.239 346 686 348.239 686 351C686 353.761 688.239 356 691 356C693.761 356 696 353.761 696 351C696 348.239 693.761 346 691 346Z" fill="#D9D9D9"/>
<path d="M1414 346C1411.24 346 1409 348.239 1409 351C1409 353.761 1411.24 356 1414 356C1416.76 356 1419 353.761 1419 351C1419 348.239 1416.76 346 1414 346Z" fill="#D9D9D9"/>
<path d="M329 346C326.239 346 324 348.239 324 351C324 353.761 326.239 356 329 356C331.761 356 334 353.761 334 351C334 348.239 331.761 346 329 346Z" fill="#D9D9D9"/>
<path d="M1052.5 346C1049.46 346 1047 348.239 1047 351C1047 353.761 1049.46 356 1052.5 356C1055.54 356 1058 353.761 1058 351C1058 348.239 1055.54 346 1052.5 346Z" fill="#D9D9D9"/>
<path d="M510 346C507.239 346 505 348.239 505 351C505 353.761 507.239 356 510 356C512.761 356 515 353.761 515 351C515 348.239 512.761 346 510 346Z" fill="#D9D9D9"/>
<path d="M1233 346C1230.24 346 1228 348.239 1228 351C1228 353.761 1230.24 356 1233 356C1235.76 356 1238 353.761 1238 351C1238 348.239 1235.76 346 1233 346Z" fill="#D9D9D9"/>
<path d="M148.5 346C145.462 346 143 348.239 143 351C143 353.761 145.462 356 148.5 356C151.538 356 154 353.761 154 351C154 348.239 151.538 346 148.5 346Z" fill="#D9D9D9"/>
<path d="M872 346C869.239 346 867 348.239 867 351C867 353.761 869.239 356 872 356C874.761 356 877 353.761 877 351C877 348.239 874.761 346 872 346Z" fill="#D9D9D9"/>
<path d="M630.5 346C627.462 346 625 348.239 625 351C625 353.761 627.462 356 630.5 356C633.538 356 636 353.761 636 351C636 348.239 633.538 346 630.5 346Z" fill="#D9D9D9"/>
<path d="M1354 346C1351.24 346 1349 348.239 1349 351C1349 353.761 1351.24 356 1354 356C1356.76 356 1359 353.761 1359 351C1359 348.239 1356.76 346 1354 346Z" fill="#D9D9D9"/>
<path d="M269 346C266.239 346 264 348.239 264 351C264 353.761 266.239 356 269 356C271.761 356 274 353.761 274 351C274 348.239 271.761 346 269 346Z" fill="#D9D9D9"/>
<path d="M992 346C989.239 346 987 348.239 987 351C987 353.761 989.239 356 992 356C994.761 356 997 353.761 997 351C997 348.239 994.761 346 992 346Z" fill="#D9D9D9"/>
<path d="M450 346C447.239 346 445 348.239 445 351C445 353.761 447.239 356 450 356C452.761 356 455 353.761 455 351C455 348.239 452.761 346 450 346Z" fill="#D9D9D9"/>
<path d="M1173 346C1170.24 346 1168 348.239 1168 351C1168 353.761 1170.24 356 1173 356C1175.76 356 1178 353.761 1178 351C1178 348.239 1175.76 346 1173 346Z" fill="#D9D9D9"/>
<path d="M88 346C85.2385 346 83 348.239 83 351C83 353.761 85.2385 356 88 356C90.7615 356 93 353.761 93 351C93 348.239 90.7615 346 88 346Z" fill="#D9D9D9"/>
<path d="M811.5 346C808.462 346 806 348.239 806 351C806 353.761 808.462 356 811.5 356C814.538 356 817 353.761 817 351C817 348.239 814.538 346 811.5 346Z" fill="#D9D9D9"/>
<path d="M570 346C567.239 346 565 348.239 565 351C565 353.761 567.239 356 570 356C572.761 356 575 353.761 575 351C575 348.239 572.761 346 570 346Z" fill="#D9D9D9"/>
<path d="M1293.5 346C1290.46 346 1288 348.239 1288 351C1288 353.761 1290.46 356 1293.5 356C1296.54 356 1299 353.761 1299 351C1299 348.239 1296.54 346 1293.5 346Z" fill="#D9D9D9"/>
<path d="M209 346C206.239 346 204 348.239 204 351C204 353.761 206.239 356 209 356C211.761 356 214 353.761 214 351C214 348.239 211.761 346 209 346Z" fill="#D9D9D9"/>
<path d="M932 346C929.239 346 927 348.239 927 351C927 353.761 929.239 356 932 356C934.761 356 937 353.761 937 351C937 348.239 934.761 346 932 346Z" fill="#D9D9D9"/>
<path d="M389.5 346C386.462 346 384 348.239 384 351C384 353.761 386.462 356 389.5 356C392.538 356 395 353.761 395 351C395 348.239 392.538 346 389.5 346Z" fill="#D9D9D9"/>
<path d="M1113 346C1110.24 346 1108 348.239 1108 351C1108 353.761 1110.24 356 1113 356C1115.76 356 1118 353.761 1118 351C1118 348.239 1115.76 346 1113 346Z" fill="#D9D9D9"/>
<path d="M28 346C25.2385 346 23 348.239 23 351C23 353.761 25.2385 356 28 356C30.7615 356 33 353.761 33 351C33 348.239 30.7615 346 28 346Z" fill="#D9D9D9"/>
<path d="M751 346C748.239 346 746 348.239 746 351C746 353.761 748.239 356 751 356C753.761 356 756 353.761 756 351C756 348.239 753.761 346 751 346Z" fill="#D9D9D9"/>
<path d="M723 389C720.239 389 718 391.239 718 394C718 396.761 720.239 399 723 399C725.761 399 728 396.761 728 394C728 391.239 725.761 389 723 389Z" fill="#D9D9D9"/>
<path d="M1446 389C1443.24 389 1441 391.239 1441 394C1441 396.761 1443.24 399 1446 399C1448.76 399 1451 396.761 1451 394C1451 391.239 1448.76 389 1446 389Z" fill="#D9D9D9"/>
<path d="M361 389C358.239 389 356 391.239 356 394C356 396.761 358.239 399 361 399C363.761 399 366 396.761 366 394C366 391.239 363.761 389 361 389Z" fill="#D9D9D9"/>
<path d="M1084.5 389C1081.46 389 1079 391.239 1079 394C1079 396.761 1081.46 399 1084.5 399C1087.54 399 1090 396.761 1090 394C1090 391.239 1087.54 389 1084.5 389Z" fill="#D9D9D9"/>
<path d="M542 389C539.239 389 537 391.239 537 394C537 396.761 539.239 399 542 399C544.761 399 547 396.761 547 394C547 391.239 544.761 389 542 389Z" fill="#D9D9D9"/>
<path d="M1265 389C1262.24 389 1260 391.239 1260 394C1260 396.761 1262.24 399 1265 399C1267.76 399 1270 396.761 1270 394C1270 391.239 1267.76 389 1265 389Z" fill="#D9D9D9"/>
<path d="M180.5 389C177.462 389 175 391.239 175 394C175 396.761 177.462 399 180.5 399C183.538 399 186 396.761 186 394C186 391.239 183.538 389 180.5 389Z" fill="#D9D9D9"/>
<path d="M904 389C901.239 389 899 391.239 899 394C899 396.761 901.239 399 904 399C906.761 399 909 396.761 909 394C909 391.239 906.761 389 904 389Z" fill="#D9D9D9"/>
<path d="M662.5 389C659.462 389 657 391.239 657 394C657 396.761 659.462 399 662.5 399C665.538 399 668 396.761 668 394C668 391.239 665.538 389 662.5 389Z" fill="#D9D9D9"/>
<path d="M1386 389C1383.24 389 1381 391.239 1381 394C1381 396.761 1383.24 399 1386 399C1388.76 399 1391 396.761 1391 394C1391 391.239 1388.76 389 1386 389Z" fill="#D9D9D9"/>
<path d="M301 389C298.239 389 296 391.239 296 394C296 396.761 298.239 399 301 399C303.761 399 306 396.761 306 394C306 391.239 303.761 389 301 389Z" fill="#D9D9D9"/>
<path d="M1024 389C1021.24 389 1019 391.239 1019 394C1019 396.761 1021.24 399 1024 399C1026.76 399 1029 396.761 1029 394C1029 391.239 1026.76 389 1024 389Z" fill="#D9D9D9"/>
<path d="M482 389C479.239 389 477 391.239 477 394C477 396.761 479.239 399 482 399C484.761 399 487 396.761 487 394C487 391.239 484.761 389 482 389Z" fill="#D9D9D9"/>
<path d="M1205 389C1202.24 389 1200 391.239 1200 394C1200 396.761 1202.24 399 1205 399C1207.76 399 1210 396.761 1210 394C1210 391.239 1207.76 389 1205 389Z" fill="#D9D9D9"/>
<path d="M120 389C117.239 389 115 391.239 115 394C115 396.761 117.239 399 120 399C122.761 399 125 396.761 125 394C125 391.239 122.761 389 120 389Z" fill="#D9D9D9"/>
<path d="M843.5 389C840.462 389 838 391.239 838 394C838 396.761 840.462 399 843.5 399C846.538 399 849 396.761 849 394C849 391.239 846.538 389 843.5 389Z" fill="#D9D9D9"/>
<path d="M602 389C599.239 389 597 391.239 597 394C597 396.761 599.239 399 602 399C604.761 399 607 396.761 607 394C607 391.239 604.761 389 602 389Z" fill="#D9D9D9"/>
<path d="M1325.5 389C1322.46 389 1320 391.239 1320 394C1320 396.761 1322.46 399 1325.5 399C1328.54 399 1331 396.761 1331 394C1331 391.239 1328.54 389 1325.5 389Z" fill="#D9D9D9"/>
<path d="M241 389C238.239 389 236 391.239 236 394C236 396.761 238.239 399 241 399C243.761 399 246 396.761 246 394C246 391.239 243.761 389 241 389Z" fill="#D9D9D9"/>
<path d="M964 389C961.239 389 959 391.239 959 394C959 396.761 961.239 399 964 399C966.761 399 969 396.761 969 394C969 391.239 966.761 389 964 389Z" fill="#D9D9D9"/>
<path d="M421.5 389C418.462 389 416 391.239 416 394C416 396.761 418.462 399 421.5 399C424.538 399 427 396.761 427 394C427 391.239 424.538 389 421.5 389Z" fill="#D9D9D9"/>
<path d="M1145 389C1142.24 389 1140 391.239 1140 394C1140 396.761 1142.24 399 1145 399C1147.76 399 1150 396.761 1150 394C1150 391.239 1147.76 389 1145 389Z" fill="#D9D9D9"/>
<path d="M60 389C57.2385 389 55 391.239 55 394C55 396.761 57.2385 399 60 399C62.7615 399 65 396.761 65 394C65 391.239 62.7615 389 60 389Z" fill="#D9D9D9"/>
<path d="M783 389C780.239 389 778 391.239 778 394C778 396.761 780.239 399 783 399C785.761 399 788 396.761 788 394C788 391.239 785.761 389 783 389Z" fill="#D9D9D9"/>
<path d="M691 432C688.239 432 686 434.239 686 437C686 439.761 688.239 442 691 442C693.761 442 696 439.761 696 437C696 434.239 693.761 432 691 432Z" fill="#D9D9D9"/>
<path d="M1414 432C1411.24 432 1409 434.239 1409 437C1409 439.761 1411.24 442 1414 442C1416.76 442 1419 439.761 1419 437C1419 434.239 1416.76 432 1414 432Z" fill="#D9D9D9"/>
<path d="M329 432C326.239 432 324 434.239 324 437C324 439.761 326.239 442 329 442C331.761 442 334 439.761 334 437C334 434.239 331.761 432 329 432Z" fill="#D9D9D9"/>
<path d="M1052.5 432C1049.46 432 1047 434.239 1047 437C1047 439.761 1049.46 442 1052.5 442C1055.54 442 1058 439.761 1058 437C1058 434.239 1055.54 432 1052.5 432Z" fill="#D9D9D9"/>
<path d="M510 432C507.239 432 505 434.239 505 437C505 439.761 507.239 442 510 442C512.761 442 515 439.761 515 437C515 434.239 512.761 432 510 432Z" fill="#D9D9D9"/>
<path d="M1233 432C1230.24 432 1228 434.239 1228 437C1228 439.761 1230.24 442 1233 442C1235.76 442 1238 439.761 1238 437C1238 434.239 1235.76 432 1233 432Z" fill="#D9D9D9"/>
<path d="M148.5 432C145.462 432 143 434.239 143 437C143 439.761 145.462 442 148.5 442C151.538 442 154 439.761 154 437C154 434.239 151.538 432 148.5 432Z" fill="#D9D9D9"/>
<path d="M872 432C869.239 432 867 434.239 867 437C867 439.761 869.239 442 872 442C874.761 442 877 439.761 877 437C877 434.239 874.761 432 872 432Z" fill="#D9D9D9"/>
<path d="M630.5 432C627.462 432 625 434.239 625 437C625 439.761 627.462 442 630.5 442C633.538 442 636 439.761 636 437C636 434.239 633.538 432 630.5 432Z" fill="#D9D9D9"/>
<path d="M1354 432C1351.24 432 1349 434.239 1349 437C1349 439.761 1351.24 442 1354 442C1356.76 442 1359 439.761 1359 437C1359 434.239 1356.76 432 1354 432Z" fill="#D9D9D9"/>
<path d="M269 432C266.239 432 264 434.239 264 437C264 439.761 266.239 442 269 442C271.761 442 274 439.761 274 437C274 434.239 271.761 432 269 432Z" fill="#D9D9D9"/>
<path d="M992 432C989.239 432 987 434.239 987 437C987 439.761 989.239 442 992 442C994.761 442 997 439.761 997 437C997 434.239 994.761 432 992 432Z" fill="#D9D9D9"/>
<path d="M450 432C447.239 432 445 434.239 445 437C445 439.761 447.239 442 450 442C452.761 442 455 439.761 455 437C455 434.239 452.761 432 450 432Z" fill="#D9D9D9"/>
<path d="M1173 432C1170.24 432 1168 434.239 1168 437C1168 439.761 1170.24 442 1173 442C1175.76 442 1178 439.761 1178 437C1178 434.239 1175.76 432 1173 432Z" fill="#D9D9D9"/>
<path d="M88 432C85.2385 432 83 434.239 83 437C83 439.761 85.2385 442 88 442C90.7615 442 93 439.761 93 437C93 434.239 90.7615 432 88 432Z" fill="#D9D9D9"/>
<path d="M811.5 432C808.462 432 806 434.239 806 437C806 439.761 808.462 442 811.5 442C814.538 442 817 439.761 817 437C817 434.239 814.538 432 811.5 432Z" fill="#D9D9D9"/>
<path d="M570 432C567.239 432 565 434.239 565 437C565 439.761 567.239 442 570 442C572.761 442 575 439.761 575 437C575 434.239 572.761 432 570 432Z" fill="#D9D9D9"/>
<path d="M1293.5 432C1290.46 432 1288 434.239 1288 437C1288 439.761 1290.46 442 1293.5 442C1296.54 442 1299 439.761 1299 437C1299 434.239 1296.54 432 1293.5 432Z" fill="#D9D9D9"/>
<path d="M209 432C206.239 432 204 434.239 204 437C204 439.761 206.239 442 209 442C211.761 442 214 439.761 214 437C214 434.239 211.761 432 209 432Z" fill="#D9D9D9"/>
<path d="M932 432C929.239 432 927 434.239 927 437C927 439.761 929.239 442 932 442C934.761 442 937 439.761 937 437C937 434.239 934.761 432 932 432Z" fill="#D9D9D9"/>
<path d="M389.5 432C386.462 432 384 434.239 384 437C384 439.761 386.462 442 389.5 442C392.538 442 395 439.761 395 437C395 434.239 392.538 432 389.5 432Z" fill="#D9D9D9"/>
<path d="M1113 432C1110.24 432 1108 434.239 1108 437C1108 439.761 1110.24 442 1113 442C1115.76 442 1118 439.761 1118 437C1118 434.239 1115.76 432 1113 432Z" fill="#D9D9D9"/>
<path d="M28 432C25.2385 432 23 434.239 23 437C23 439.761 25.2385 442 28 442C30.7615 442 33 439.761 33 437C33 434.239 30.7615 432 28 432Z" fill="#D9D9D9"/>
<path d="M751 432C748.239 432 746 434.239 746 437C746 439.761 748.239 442 751 442C753.761 442 756 439.761 756 437C756 434.239 753.761 432 751 432Z" fill="#D9D9D9"/>
<path d="M723 475C720.239 475 718 477.239 718 480C718 482.761 720.239 485 723 485C725.761 485 728 482.761 728 480C728 477.239 725.761 475 723 475Z" fill="#D9D9D9"/>
<path d="M1446 475C1443.24 475 1441 477.239 1441 480C1441 482.761 1443.24 485 1446 485C1448.76 485 1451 482.761 1451 480C1451 477.239 1448.76 475 1446 475Z" fill="#D9D9D9"/>
<path d="M361 475C358.239 475 356 477.239 356 480C356 482.761 358.239 485 361 485C363.761 485 366 482.761 366 480C366 477.239 363.761 475 361 475Z" fill="#D9D9D9"/>
<path d="M1084.5 475C1081.46 475 1079 477.239 1079 480C1079 482.761 1081.46 485 1084.5 485C1087.54 485 1090 482.761 1090 480C1090 477.239 1087.54 475 1084.5 475Z" fill="#D9D9D9"/>
<path d="M542 475C539.239 475 537 477.239 537 480C537 482.761 539.239 485 542 485C544.761 485 547 482.761 547 480C547 477.239 544.761 475 542 475Z" fill="#D9D9D9"/>
<path d="M1265 475C1262.24 475 1260 477.239 1260 480C1260 482.761 1262.24 485 1265 485C1267.76 485 1270 482.761 1270 480C1270 477.239 1267.76 475 1265 475Z" fill="#D9D9D9"/>
<path d="M180.5 475C177.462 475 175 477.239 175 480C175 482.761 177.462 485 180.5 485C183.538 485 186 482.761 186 480C186 477.239 183.538 475 180.5 475Z" fill="#D9D9D9"/>
<path d="M904 475C901.239 475 899 477.239 899 480C899 482.761 901.239 485 904 485C906.761 485 909 482.761 909 480C909 477.239 906.761 475 904 475Z" fill="#D9D9D9"/>
<path d="M662.5 475C659.462 475 657 477.239 657 480C657 482.761 659.462 485 662.5 485C665.538 485 668 482.761 668 480C668 477.239 665.538 475 662.5 475Z" fill="#D9D9D9"/>
<path d="M1386 475C1383.24 475 1381 477.239 1381 480C1381 482.761 1383.24 485 1386 485C1388.76 485 1391 482.761 1391 480C1391 477.239 1388.76 475 1386 475Z" fill="#D9D9D9"/>
<path d="M301 475C298.239 475 296 477.239 296 480C296 482.761 298.239 485 301 485C303.761 485 306 482.761 306 480C306 477.239 303.761 475 301 475Z" fill="#D9D9D9"/>
<path d="M1024 475C1021.24 475 1019 477.239 1019 480C1019 482.761 1021.24 485 1024 485C1026.76 485 1029 482.761 1029 480C1029 477.239 1026.76 475 1024 475Z" fill="#D9D9D9"/>
<path d="M482 475C479.239 475 477 477.239 477 480C477 482.761 479.239 485 482 485C484.761 485 487 482.761 487 480C487 477.239 484.761 475 482 475Z" fill="#D9D9D9"/>
<path d="M1205 475C1202.24 475 1200 477.239 1200 480C1200 482.761 1202.24 485 1205 485C1207.76 485 1210 482.761 1210 480C1210 477.239 1207.76 475 1205 475Z" fill="#D9D9D9"/>
<path d="M120 475C117.239 475 115 477.239 115 480C115 482.761 117.239 485 120 485C122.761 485 125 482.761 125 480C125 477.239 122.761 475 120 475Z" fill="#D9D9D9"/>
<path d="M843.5 475C840.462 475 838 477.239 838 480C838 482.761 840.462 485 843.5 485C846.538 485 849 482.761 849 480C849 477.239 846.538 475 843.5 475Z" fill="#D9D9D9"/>
<path d="M602 475C599.239 475 597 477.239 597 480C597 482.761 599.239 485 602 485C604.761 485 607 482.761 607 480C607 477.239 604.761 475 602 475Z" fill="#D9D9D9"/>
<path d="M1325.5 475C1322.46 475 1320 477.239 1320 480C1320 482.761 1322.46 485 1325.5 485C1328.54 485 1331 482.761 1331 480C1331 477.239 1328.54 475 1325.5 475Z" fill="#D9D9D9"/>
<path d="M241 475C238.239 475 236 477.239 236 480C236 482.761 238.239 485 241 485C243.761 485 246 482.761 246 480C246 477.239 243.761 475 241 475Z" fill="#D9D9D9"/>
<path d="M964 475C961.239 475 959 477.239 959 480C959 482.761 961.239 485 964 485C966.761 485 969 482.761 969 480C969 477.239 966.761 475 964 475Z" fill="#D9D9D9"/>
<path d="M421.5 475C418.462 475 416 477.239 416 480C416 482.761 418.462 485 421.5 485C424.538 485 427 482.761 427 480C427 477.239 424.538 475 421.5 475Z" fill="#D9D9D9"/>
<path d="M1145 475C1142.24 475 1140 477.239 1140 480C1140 482.761 1142.24 485 1145 485C1147.76 485 1150 482.761 1150 480C1150 477.239 1147.76 475 1145 475Z" fill="#D9D9D9"/>
<path d="M60 475C57.2385 475 55 477.239 55 480C55 482.761 57.2385 485 60 485C62.7615 485 65 482.761 65 480C65 477.239 62.7615 475 60 475Z" fill="#D9D9D9"/>
<path d="M783 475C780.239 475 778 477.239 778 480C778 482.761 780.239 485 783 485C785.761 485 788 482.761 788 480C788 477.239 785.761 475 783 475Z" fill="#D9D9D9"/>
<path d="M691 171C688.239 171 686 173.239 686 176C686 178.761 688.239 181 691 181C693.761 181 696 178.761 696 176C696 173.239 693.761 171 691 171Z" fill="#D9D9D9"/>
<path d="M1414 171C1411.24 171 1409 173.239 1409 176C1409 178.761 1411.24 181 1414 181C1416.76 181 1419 178.761 1419 176C1419 173.239 1416.76 171 1414 171Z" fill="#D9D9D9"/>
<path d="M329 171C326.239 171 324 173.239 324 176C324 178.761 326.239 181 329 181C331.761 181 334 178.761 334 176C334 173.239 331.761 171 329 171Z" fill="#D9D9D9"/>
<path d="M1052.5 171C1049.46 171 1047 173.239 1047 176C1047 178.761 1049.46 181 1052.5 181C1055.54 181 1058 178.761 1058 176C1058 173.239 1055.54 171 1052.5 171Z" fill="#D9D9D9"/>
<path d="M510 171C507.239 171 505 173.239 505 176C505 178.761 507.239 181 510 181C512.761 181 515 178.761 515 176C515 173.239 512.761 171 510 171Z" fill="#D9D9D9"/>
<path d="M1233 171C1230.24 171 1228 173.239 1228 176C1228 178.761 1230.24 181 1233 181C1235.76 181 1238 178.761 1238 176C1238 173.239 1235.76 171 1233 171Z" fill="#D9D9D9"/>
<path d="M148.5 171C145.462 171 143 173.239 143 176C143 178.761 145.462 181 148.5 181C151.538 181 154 178.761 154 176C154 173.239 151.538 171 148.5 171Z" fill="#D9D9D9"/>
<path d="M872 171C869.239 171 867 173.239 867 176C867 178.761 869.239 181 872 181C874.761 181 877 178.761 877 176C877 173.239 874.761 171 872 171Z" fill="#D9D9D9"/>
<path d="M630.5 171C627.462 171 625 173.239 625 176C625 178.761 627.462 181 630.5 181C633.538 181 636 178.761 636 176C636 173.239 633.538 171 630.5 171Z" fill="#D9D9D9"/>
<path d="M1354 171C1351.24 171 1349 173.239 1349 176C1349 178.761 1351.24 181 1354 181C1356.76 181 1359 178.761 1359 176C1359 173.239 1356.76 171 1354 171Z" fill="#D9D9D9"/>
<path d="M269 171C266.239 171 264 173.239 264 176C264 178.761 266.239 181 269 181C271.761 181 274 178.761 274 176C274 173.239 271.761 171 269 171Z" fill="#D9D9D9"/>
<path d="M992 171C989.239 171 987 173.239 987 176C987 178.761 989.239 181 992 181C994.761 181 997 178.761 997 176C997 173.239 994.761 171 992 171Z" fill="#D9D9D9"/>
<path d="M450 171C447.239 171 445 173.239 445 176C445 178.761 447.239 181 450 181C452.761 181 455 178.761 455 176C455 173.239 452.761 171 450 171Z" fill="#D9D9D9"/>
<path d="M1173 171C1170.24 171 1168 173.239 1168 176C1168 178.761 1170.24 181 1173 181C1175.76 181 1178 178.761 1178 176C1178 173.239 1175.76 171 1173 171Z" fill="#D9D9D9"/>
<path d="M88 171C85.2385 171 83 173.239 83 176C83 178.761 85.2385 181 88 181C90.7615 181 93 178.761 93 176C93 173.239 90.7615 171 88 171Z" fill="#D9D9D9"/>
<path d="M811.5 171C808.462 171 806 173.239 806 176C806 178.761 808.462 181 811.5 181C814.538 181 817 178.761 817 176C817 173.239 814.538 171 811.5 171Z" fill="#D9D9D9"/>
<path d="M570 171C567.239 171 565 173.239 565 176C565 178.761 567.239 181 570 181C572.761 181 575 178.761 575 176C575 173.239 572.761 171 570 171Z" fill="#D9D9D9"/>
<path d="M1293.5 171C1290.46 171 1288 173.239 1288 176C1288 178.761 1290.46 181 1293.5 181C1296.54 181 1299 178.761 1299 176C1299 173.239 1296.54 171 1293.5 171Z" fill="#D9D9D9"/>
<path d="M209 171C206.239 171 204 173.239 204 176C204 178.761 206.239 181 209 181C211.761 181 214 178.761 214 176C214 173.239 211.761 171 209 171Z" fill="#D9D9D9"/>
<path d="M932 171C929.239 171 927 173.239 927 176C927 178.761 929.239 181 932 181C934.761 181 937 178.761 937 176C937 173.239 934.761 171 932 171Z" fill="#D9D9D9"/>
<path d="M389.5 171C386.462 171 384 173.239 384 176C384 178.761 386.462 181 389.5 181C392.538 181 395 178.761 395 176C395 173.239 392.538 171 389.5 171Z" fill="#D9D9D9"/>
<path d="M1113 171C1110.24 171 1108 173.239 1108 176C1108 178.761 1110.24 181 1113 181C1115.76 181 1118 178.761 1118 176C1118 173.239 1115.76 171 1113 171Z" fill="#D9D9D9"/>
<path d="M28 171C25.2385 171 23 173.239 23 176C23 178.761 25.2385 181 28 181C30.7615 181 33 178.761 33 176C33 173.239 30.7615 171 28 171Z" fill="#D9D9D9"/>
<path d="M751 171C748.239 171 746 173.239 746 176C746 178.761 748.239 181 751 181C753.761 181 756 178.761 756 176C756 173.239 753.761 171 751 171Z" fill="#D9D9D9"/>
<path d="M723 214C720.239 214 718 216.239 718 219C718 221.761 720.239 224 723 224C725.761 224 728 221.761 728 219C728 216.239 725.761 214 723 214Z" fill="#D9D9D9"/>
<path d="M1446 214C1443.24 214 1441 216.239 1441 219C1441 221.761 1443.24 224 1446 224C1448.76 224 1451 221.761 1451 219C1451 216.239 1448.76 214 1446 214Z" fill="#D9D9D9"/>
<path d="M361 214C358.239 214 356 216.239 356 219C356 221.761 358.239 224 361 224C363.761 224 366 221.761 366 219C366 216.239 363.761 214 361 214Z" fill="#D9D9D9"/>
<path d="M1084.5 214C1081.46 214 1079 216.239 1079 219C1079 221.761 1081.46 224 1084.5 224C1087.54 224 1090 221.761 1090 219C1090 216.239 1087.54 214 1084.5 214Z" fill="#D9D9D9"/>
<path d="M542 214C539.239 214 537 216.239 537 219C537 221.761 539.239 224 542 224C544.761 224 547 221.761 547 219C547 216.239 544.761 214 542 214Z" fill="#D9D9D9"/>
<path d="M1265 214C1262.24 214 1260 216.239 1260 219C1260 221.761 1262.24 224 1265 224C1267.76 224 1270 221.761 1270 219C1270 216.239 1267.76 214 1265 214Z" fill="#D9D9D9"/>
<path d="M180.5 214C177.462 214 175 216.239 175 219C175 221.761 177.462 224 180.5 224C183.538 224 186 221.761 186 219C186 216.239 183.538 214 180.5 214Z" fill="#D9D9D9"/>
<path d="M904 214C901.239 214 899 216.239 899 219C899 221.761 901.239 224 904 224C906.761 224 909 221.761 909 219C909 216.239 906.761 214 904 214Z" fill="#D9D9D9"/>
<path d="M662.5 214C659.462 214 657 216.239 657 219C657 221.761 659.462 224 662.5 224C665.538 224 668 221.761 668 219C668 216.239 665.538 214 662.5 214Z" fill="#D9D9D9"/>
<path d="M1386 214C1383.24 214 1381 216.239 1381 219C1381 221.761 1383.24 224 1386 224C1388.76 224 1391 221.761 1391 219C1391 216.239 1388.76 214 1386 214Z" fill="#D9D9D9"/>
<path d="M301 214C298.239 214 296 216.239 296 219C296 221.761 298.239 224 301 224C303.761 224 306 221.761 306 219C306 216.239 303.761 214 301 214Z" fill="#D9D9D9"/>
<path d="M1024 214C1021.24 214 1019 216.239 1019 219C1019 221.761 1021.24 224 1024 224C1026.76 224 1029 221.761 1029 219C1029 216.239 1026.76 214 1024 214Z" fill="#D9D9D9"/>
<path d="M482 214C479.239 214 477 216.239 477 219C477 221.761 479.239 224 482 224C484.761 224 487 221.761 487 219C487 216.239 484.761 214 482 214Z" fill="#D9D9D9"/>
<path d="M1205 214C1202.24 214 1200 216.239 1200 219C1200 221.761 1202.24 224 1205 224C1207.76 224 1210 221.761 1210 219C1210 216.239 1207.76 214 1205 214Z" fill="#D9D9D9"/>
<path d="M120 214C117.239 214 115 216.239 115 219C115 221.761 117.239 224 120 224C122.761 224 125 221.761 125 219C125 216.239 122.761 214 120 214Z" fill="#D9D9D9"/>
<path d="M843.5 214C840.462 214 838 216.239 838 219C838 221.761 840.462 224 843.5 224C846.538 224 849 221.761 849 219C849 216.239 846.538 214 843.5 214Z" fill="#D9D9D9"/>
<path d="M602 214C599.239 214 597 216.239 597 219C597 221.761 599.239 224 602 224C604.761 224 607 221.761 607 219C607 216.239 604.761 214 602 214Z" fill="#D9D9D9"/>
<path d="M1325.5 214C1322.46 214 1320 216.239 1320 219C1320 221.761 1322.46 224 1325.5 224C1328.54 224 1331 221.761 1331 219C1331 216.239 1328.54 214 1325.5 214Z" fill="#D9D9D9"/>
<path d="M241 214C238.239 214 236 216.239 236 219C236 221.761 238.239 224 241 224C243.761 224 246 221.761 246 219C246 216.239 243.761 214 241 214Z" fill="#D9D9D9"/>
<path d="M964 214C961.239 214 959 216.239 959 219C959 221.761 961.239 224 964 224C966.761 224 969 221.761 969 219C969 216.239 966.761 214 964 214Z" fill="#D9D9D9"/>
<path d="M421.5 214C418.462 214 416 216.239 416 219C416 221.761 418.462 224 421.5 224C424.538 224 427 221.761 427 219C427 216.239 424.538 214 421.5 214Z" fill="#D9D9D9"/>
<path d="M1145 214C1142.24 214 1140 216.239 1140 219C1140 221.761 1142.24 224 1145 224C1147.76 224 1150 221.761 1150 219C1150 216.239 1147.76 214 1145 214Z" fill="#D9D9D9"/>
<path d="M60 214C57.2385 214 55 216.239 55 219C55 221.761 57.2385 224 60 224C62.7615 224 65 221.761 65 219C65 216.239 62.7615 214 60 214Z" fill="#D9D9D9"/>
<path d="M783 214C780.239 214 778 216.239 778 219C778 221.761 780.239 224 783 224C785.761 224 788 221.761 788 219C788 216.239 785.761 214 783 214Z" fill="#D9D9D9"/>
<path d="M691 257C688.239 257 686 259.239 686 262C686 264.761 688.239 267 691 267C693.761 267 696 264.761 696 262C696 259.239 693.761 257 691 257Z" fill="#D9D9D9"/>
<path d="M1414 257C1411.24 257 1409 259.239 1409 262C1409 264.761 1411.24 267 1414 267C1416.76 267 1419 264.761 1419 262C1419 259.239 1416.76 257 1414 257Z" fill="#D9D9D9"/>
<path d="M329 257C326.239 257 324 259.239 324 262C324 264.761 326.239 267 329 267C331.761 267 334 264.761 334 262C334 259.239 331.761 257 329 257Z" fill="#D9D9D9"/>
<path d="M1052.5 257C1049.46 257 1047 259.239 1047 262C1047 264.761 1049.46 267 1052.5 267C1055.54 267 1058 264.761 1058 262C1058 259.239 1055.54 257 1052.5 257Z" fill="#D9D9D9"/>
<path d="M510 257C507.239 257 505 259.239 505 262C505 264.761 507.239 267 510 267C512.761 267 515 264.761 515 262C515 259.239 512.761 257 510 257Z" fill="#D9D9D9"/>
<path d="M1233 257C1230.24 257 1228 259.239 1228 262C1228 264.761 1230.24 267 1233 267C1235.76 267 1238 264.761 1238 262C1238 259.239 1235.76 257 1233 257Z" fill="#D9D9D9"/>
<path d="M148.5 257C145.462 257 143 259.239 143 262C143 264.761 145.462 267 148.5 267C151.538 267 154 264.761 154 262C154 259.239 151.538 257 148.5 257Z" fill="#D9D9D9"/>
<path d="M872 257C869.239 257 867 259.239 867 262C867 264.761 869.239 267 872 267C874.761 267 877 264.761 877 262C877 259.239 874.761 257 872 257Z" fill="#D9D9D9"/>
<path d="M630.5 257C627.462 257 625 259.239 625 262C625 264.761 627.462 267 630.5 267C633.538 267 636 264.761 636 262C636 259.239 633.538 257 630.5 257Z" fill="#D9D9D9"/>
<path d="M1354 257C1351.24 257 1349 259.239 1349 262C1349 264.761 1351.24 267 1354 267C1356.76 267 1359 264.761 1359 262C1359 259.239 1356.76 257 1354 257Z" fill="#D9D9D9"/>
<path d="M269 257C266.239 257 264 259.239 264 262C264 264.761 266.239 267 269 267C271.761 267 274 264.761 274 262C274 259.239 271.761 257 269 257Z" fill="#D9D9D9"/>
<path d="M992 257C989.239 257 987 259.239 987 262C987 264.761 989.239 267 992 267C994.761 267 997 264.761 997 262C997 259.239 994.761 257 992 257Z" fill="#D9D9D9"/>
<path d="M450 257C447.239 257 445 259.239 445 262C445 264.761 447.239 267 450 267C452.761 267 455 264.761 455 262C455 259.239 452.761 257 450 257Z" fill="#D9D9D9"/>
<path d="M1173 257C1170.24 257 1168 259.239 1168 262C1168 264.761 1170.24 267 1173 267C1175.76 267 1178 264.761 1178 262C1178 259.239 1175.76 257 1173 257Z" fill="#D9D9D9"/>
<path d="M88 257C85.2385 257 83 259.239 83 262C83 264.761 85.2385 267 88 267C90.7615 267 93 264.761 93 262C93 259.239 90.7615 257 88 257Z" fill="#D9D9D9"/>
<path d="M811.5 257C808.462 257 806 259.239 806 262C806 264.761 808.462 267 811.5 267C814.538 267 817 264.761 817 262C817 259.239 814.538 257 811.5 257Z" fill="#D9D9D9"/>
<path d="M570 257C567.239 257 565 259.239 565 262C565 264.761 567.239 267 570 267C572.761 267 575 264.761 575 262C575 259.239 572.761 257 570 257Z" fill="#D9D9D9"/>
<path d="M1293.5 257C1290.46 257 1288 259.239 1288 262C1288 264.761 1290.46 267 1293.5 267C1296.54 267 1299 264.761 1299 262C1299 259.239 1296.54 257 1293.5 257Z" fill="#D9D9D9"/>
<path d="M209 257C206.239 257 204 259.239 204 262C204 264.761 206.239 267 209 267C211.761 267 214 264.761 214 262C214 259.239 211.761 257 209 257Z" fill="#D9D9D9"/>
<path d="M932 257C929.239 257 927 259.239 927 262C927 264.761 929.239 267 932 267C934.761 267 937 264.761 937 262C937 259.239 934.761 257 932 257Z" fill="#D9D9D9"/>
<path d="M389.5 257C386.462 257 384 259.239 384 262C384 264.761 386.462 267 389.5 267C392.538 267 395 264.761 395 262C395 259.239 392.538 257 389.5 257Z" fill="#D9D9D9"/>
<path d="M1113 257C1110.24 257 1108 259.239 1108 262C1108 264.761 1110.24 267 1113 267C1115.76 267 1118 264.761 1118 262C1118 259.239 1115.76 257 1113 257Z" fill="#D9D9D9"/>
<path d="M28 257C25.2385 257 23 259.239 23 262C23 264.761 25.2385 267 28 267C30.7615 267 33 264.761 33 262C33 259.239 30.7615 257 28 257Z" fill="#D9D9D9"/>
<path d="M751 257C748.239 257 746 259.239 746 262C746 264.761 748.239 267 751 267C753.761 267 756 264.761 756 262C756 259.239 753.761 257 751 257Z" fill="#D9D9D9"/>
<path d="M723 300C720.239 300 718 302.239 718 305C718 307.761 720.239 310 723 310C725.761 310 728 307.761 728 305C728 302.239 725.761 300 723 300Z" fill="#D9D9D9"/>
<path d="M1446 300C1443.24 300 1441 302.239 1441 305C1441 307.761 1443.24 310 1446 310C1448.76 310 1451 307.761 1451 305C1451 302.239 1448.76 300 1446 300Z" fill="#D9D9D9"/>
<path d="M361 300C358.239 300 356 302.239 356 305C356 307.761 358.239 310 361 310C363.761 310 366 307.761 366 305C366 302.239 363.761 300 361 300Z" fill="#D9D9D9"/>
<path d="M1084.5 300C1081.46 300 1079 302.239 1079 305C1079 307.761 1081.46 310 1084.5 310C1087.54 310 1090 307.761 1090 305C1090 302.239 1087.54 300 1084.5 300Z" fill="#D9D9D9"/>
<path d="M542 300C539.239 300 537 302.239 537 305C537 307.761 539.239 310 542 310C544.761 310 547 307.761 547 305C547 302.239 544.761 300 542 300Z" fill="#D9D9D9"/>
<path d="M1265 300C1262.24 300 1260 302.239 1260 305C1260 307.761 1262.24 310 1265 310C1267.76 310 1270 307.761 1270 305C1270 302.239 1267.76 300 1265 300Z" fill="#D9D9D9"/>
<path d="M180.5 300C177.462 300 175 302.239 175 305C175 307.761 177.462 310 180.5 310C183.538 310 186 307.761 186 305C186 302.239 183.538 300 180.5 300Z" fill="#D9D9D9"/>
<path d="M904 300C901.239 300 899 302.239 899 305C899 307.761 901.239 310 904 310C906.761 310 909 307.761 909 305C909 302.239 906.761 300 904 300Z" fill="#D9D9D9"/>
<path d="M662.5 300C659.462 300 657 302.239 657 305C657 307.761 659.462 310 662.5 310C665.538 310 668 307.761 668 305C668 302.239 665.538 300 662.5 300Z" fill="#D9D9D9"/>
<path d="M1386 300C1383.24 300 1381 302.239 1381 305C1381 307.761 1383.24 310 1386 310C1388.76 310 1391 307.761 1391 305C1391 302.239 1388.76 300 1386 300Z" fill="#D9D9D9"/>
<path d="M301 300C298.239 300 296 302.239 296 305C296 307.761 298.239 310 301 310C303.761 310 306 307.761 306 305C306 302.239 303.761 300 301 300Z" fill="#D9D9D9"/>
<path d="M1024 300C1021.24 300 1019 302.239 1019 305C1019 307.761 1021.24 310 1024 310C1026.76 310 1029 307.761 1029 305C1029 302.239 1026.76 300 1024 300Z" fill="#D9D9D9"/>
<path d="M482 300C479.239 300 477 302.239 477 305C477 307.761 479.239 310 482 310C484.761 310 487 307.761 487 305C487 302.239 484.761 300 482 300Z" fill="#D9D9D9"/>
<path d="M1205 300C1202.24 300 1200 302.239 1200 305C1200 307.761 1202.24 310 1205 310C1207.76 310 1210 307.761 1210 305C1210 302.239 1207.76 300 1205 300Z" fill="#D9D9D9"/>
<path d="M120 300C117.239 300 115 302.239 115 305C115 307.761 117.239 310 120 310C122.761 310 125 307.761 125 305C125 302.239 122.761 300 120 300Z" fill="#D9D9D9"/>
<path d="M843.5 300C840.462 300 838 302.239 838 305C838 307.761 840.462 310 843.5 310C846.538 310 849 307.761 849 305C849 302.239 846.538 300 843.5 300Z" fill="#D9D9D9"/>
<path d="M602 300C599.239 300 597 302.239 597 305C597 307.761 599.239 310 602 310C604.761 310 607 307.761 607 305C607 302.239 604.761 300 602 300Z" fill="#D9D9D9"/>
<path d="M1325.5 300C1322.46 300 1320 302.239 1320 305C1320 307.761 1322.46 310 1325.5 310C1328.54 310 1331 307.761 1331 305C1331 302.239 1328.54 300 1325.5 300Z" fill="#D9D9D9"/>
<path d="M241 300C238.239 300 236 302.239 236 305C236 307.761 238.239 310 241 310C243.761 310 246 307.761 246 305C246 302.239 243.761 300 241 300Z" fill="#D9D9D9"/>
<path d="M964 300C961.239 300 959 302.239 959 305C959 307.761 961.239 310 964 310C966.761 310 969 307.761 969 305C969 302.239 966.761 300 964 300Z" fill="#D9D9D9"/>
<path d="M421.5 300C418.462 300 416 302.239 416 305C416 307.761 418.462 310 421.5 310C424.538 310 427 307.761 427 305C427 302.239 424.538 300 421.5 300Z" fill="#D9D9D9"/>
<path d="M1145 300C1142.24 300 1140 302.239 1140 305C1140 307.761 1142.24 310 1145 310C1147.76 310 1150 307.761 1150 305C1150 302.239 1147.76 300 1145 300Z" fill="#D9D9D9"/>
<path d="M60 300C57.2385 300 55 302.239 55 305C55 307.761 57.2385 310 60 310C62.7615 310 65 307.761 65 305C65 302.239 62.7615 300 60 300Z" fill="#D9D9D9"/>
<path d="M783 300C780.239 300 778 302.239 778 305C778 307.761 780.239 310 783 310C785.761 310 788 307.761 788 305C788 302.239 785.761 300 783 300Z" fill="#D9D9D9"/>
</mask>
<g mask="url(#mask0_117_331)">
<path d="M1451 0L1451 705L23 705L23 0L1451 0Z" fill="url(#paint0_linear_117_331)"/>
</g>
<defs>
<linearGradient id="paint0_linear_117_331" x1="737" y1="1.05053e-05" x2="737" y2="705" gradientUnits="userSpaceOnUse">
<stop stop-color="#5E5E5E" stop-opacity="0.8"/>
<stop offset="1" stop-opacity="0.3"/>
</linearGradient>
</defs>
</svg>
