<svg width="259" height="216" viewBox="0 0 259 216" fill="none" xmlns="http://www.w3.org/2000/svg">
<path d="M234.577 173.475C210.402 220.906 141.161 230.042 79.9225 193.881C56.9913 180.34 45.9745 172.677 33 153C45.0941 169.933 54.1784 175.008 74.3752 186.739C131.664 220.014 195.997 211.297 218.069 167.269C220.806 161.807 222.278 158.943 223.5 153H241.5C240.274 161.147 238.329 166.114 234.577 173.475Z" fill="#A51417"/>
<path d="M211.35 59.1232C199.553 45.0491 184.753 32.3248 167.469 22.1183C111.664 -10.8345 49.2129 -6.1717 20.2758 30.808C17.4584 34.4085 14.9586 38.3154 12.8136 42.5238C12.1713 43.7841 11.5672 45.0587 11.001 46.3467C13.3054 43.8587 15.5149 41.3552 17.693 38.8871C27.5057 27.7681 36.6836 17.3684 51.0531 12.351C80.2772 2.14676 118.654 6.59276 154.303 27.2988C169.514 36.1343 182.7 47.0422 193.449 59.1232H211.35Z" fill="#A51417"/>
<path d="M26.9129 107.001L11.9129 64.701H21.5729L32.3129 97.341H29.7329L41.4329 64.701H48.2729L59.0129 97.341H56.6129L68.0129 64.701H77.0729L61.9529 107.001H54.3329L43.9529 76.941H45.3329L34.5929 107.001H26.9129ZM96.1201 107.661C93.4801 107.661 91.1601 107.021 89.1601 105.741C87.1601 104.461 85.6001 102.641 84.4801 100.281C83.3601 97.921 82.8001 95.081 82.8001 91.761C82.8001 88.481 83.3601 85.661 84.4801 83.301C85.6001 80.941 87.1601 79.141 89.1601 77.901C91.1601 76.621 93.4801 75.981 96.1201 75.981C98.5601 75.981 100.74 76.581 102.66 77.781C104.62 78.941 105.9 80.521 106.5 82.521H105.84L106.56 76.581H115.26C115.14 77.901 115.02 79.241 114.9 80.601C114.82 81.921 114.78 83.221 114.78 84.501V107.001H105.78L105.72 101.301H106.44C105.8 103.221 104.52 104.761 102.6 105.921C100.68 107.081 98.5201 107.661 96.1201 107.661ZM98.8801 100.821C100.96 100.821 102.64 100.081 103.92 98.601C105.2 97.121 105.84 94.841 105.84 91.761C105.84 88.681 105.2 86.421 103.92 84.981C102.64 83.541 100.96 82.821 98.8801 82.821C96.8001 82.821 95.1201 83.541 93.8401 84.981C92.5601 86.421 91.9201 88.681 91.9201 91.761C91.9201 94.841 92.5401 97.121 93.7801 98.601C95.0601 100.081 96.7601 100.821 98.8801 100.821ZM139.43 107.661C136.71 107.661 134.23 107.361 131.99 106.761C129.75 106.161 127.85 105.321 126.29 104.241L128.63 98.241C130.19 99.201 131.91 99.961 133.79 100.521C135.71 101.081 137.61 101.361 139.49 101.361C141.25 101.361 142.55 101.081 143.39 100.521C144.23 99.961 144.65 99.201 144.65 98.241C144.65 97.441 144.37 96.821 143.81 96.381C143.29 95.941 142.47 95.621 141.35 95.421L135.17 94.281C132.57 93.761 130.59 92.801 129.23 91.401C127.87 90.001 127.19 88.181 127.19 85.941C127.19 83.981 127.71 82.261 128.75 80.781C129.83 79.261 131.37 78.081 133.37 77.241C135.37 76.401 137.71 75.981 140.39 75.981C142.67 75.981 144.83 76.261 146.87 76.821C148.91 77.381 150.65 78.241 152.09 79.401L149.63 85.221C148.39 84.301 146.95 83.561 145.31 83.001C143.71 82.441 142.17 82.161 140.69 82.161C138.77 82.161 137.39 82.481 136.55 83.121C135.71 83.721 135.29 84.501 135.29 85.461C135.29 86.181 135.53 86.781 136.01 87.261C136.53 87.741 137.31 88.101 138.35 88.341L144.59 89.481C147.27 89.961 149.31 90.861 150.71 92.181C152.11 93.501 152.81 95.321 152.81 97.641C152.81 99.761 152.25 101.561 151.13 103.041C150.01 104.521 148.43 105.661 146.39 106.461C144.39 107.261 142.07 107.661 139.43 107.661ZM164.445 107.001V62.841H173.505V82.281H172.605C173.565 80.241 174.985 78.681 176.865 77.601C178.745 76.521 180.905 75.981 183.345 75.981C186.905 75.981 189.565 77.021 191.325 79.101C193.085 81.141 193.965 84.281 193.965 88.521V107.001H184.905V88.941C184.905 86.821 184.505 85.301 183.705 84.381C182.945 83.461 181.745 83.001 180.105 83.001C178.105 83.001 176.505 83.621 175.305 84.861C174.105 86.101 173.505 87.761 173.505 89.841V107.001H164.445ZM226.021 107.661C219.821 107.661 215.201 106.121 212.161 103.041C209.121 99.961 207.601 95.381 207.601 89.301V64.701H216.961V89.361C216.961 92.761 217.681 95.341 219.121 97.101C220.601 98.861 222.901 99.741 226.021 99.741C229.061 99.741 231.321 98.861 232.801 97.101C234.321 95.341 235.081 92.761 235.081 89.361V64.701H244.321V89.301C244.321 95.381 242.781 99.961 239.701 103.041C236.661 106.121 232.101 107.661 226.021 107.661Z" fill="black"/>
<path d="M37.3818 145.396C35.3418 145.396 33.4338 145.144 31.6578 144.64C29.8818 144.136 28.3698 143.44 27.1218 142.552L28.7778 138.16C29.5938 138.712 30.4578 139.18 31.3698 139.564C32.2818 139.948 33.2418 140.248 34.2498 140.464C35.2578 140.656 36.3138 140.752 37.4178 140.752C39.1458 140.752 40.3698 140.488 41.0898 139.96C41.8338 139.432 42.2058 138.76 42.2058 137.944C42.2058 137.2 41.9538 136.636 41.4498 136.252C40.9698 135.844 40.0818 135.496 38.7858 135.208L34.5378 134.344C32.2098 133.864 30.4698 133.048 29.3178 131.896C28.1658 130.744 27.5898 129.208 27.5898 127.288C27.5898 125.656 28.0218 124.24 28.8858 123.04C29.7498 121.84 30.9618 120.904 32.5218 120.232C34.1058 119.56 35.9538 119.224 38.0658 119.224C39.8658 119.224 41.5458 119.476 43.1058 119.98C44.6658 120.484 45.9498 121.204 46.9578 122.14L45.3018 126.244C44.3178 125.452 43.2138 124.864 41.9898 124.48C40.7898 124.072 39.4458 123.868 37.9578 123.868C36.3978 123.868 35.1978 124.144 34.3578 124.696C33.5418 125.248 33.1338 126.004 33.1338 126.964C33.1338 127.684 33.3858 128.272 33.8898 128.728C34.3938 129.16 35.2818 129.508 36.5538 129.772L40.7298 130.6C43.1058 131.08 44.8698 131.884 46.0218 133.012C47.1738 134.14 47.7498 135.64 47.7498 137.512C47.7498 139.096 47.3178 140.476 46.4538 141.652C45.6138 142.828 44.4138 143.752 42.8538 144.424C41.3178 145.072 39.4938 145.396 37.3818 145.396ZM52.263 145L63.927 119.62H68.571L80.379 145H74.691L71.631 137.944L73.827 139.492H58.743L60.975 137.944L57.915 145H52.263ZM66.231 125.524L61.587 136.54L60.615 135.172H71.955L71.127 136.54L66.375 125.524H66.231ZM89.1877 145V124.192H81.1237V119.62H102.868V124.192H94.8037V145H89.1877ZM109.525 145V119.62H127.165V123.976H114.889V129.916H126.301V134.308H114.889V140.644H127.165V145H109.525ZM134.676 145V119.62H140.292V140.284H151.74V145H134.676ZM158.772 145V119.62H164.388V140.284H175.836V145H158.772ZM182.868 145V119.62H188.484V145H182.868ZM203.094 145V124.192H195.03V119.62H216.774V124.192H208.71V145H203.094ZM223.431 145V119.62H241.071V123.976H228.795V129.916H240.207V134.308H228.795V140.644H241.071V145H223.431Z" fill="black"/>
</svg>
