<svg width="268" height="77" viewBox="0 0 268 77" fill="none" xmlns="http://www.w3.org/2000/svg">
<path d="M191.887 38.948C191.745 37.5157 191.135 36.403 190.058 35.6099C188.981 34.8168 187.519 34.4203 185.673 34.4203C184.418 34.4203 183.358 34.5978 182.494 34.9529C181.63 35.2962 180.967 35.7756 180.506 36.3912C180.056 37.0067 179.831 37.7051 179.831 38.4863C179.807 39.1374 179.943 39.7056 180.239 40.1909C180.547 40.6762 180.967 41.0964 181.5 41.4515C182.033 41.7948 182.648 42.0966 183.347 42.3571C184.045 42.6056 184.791 42.8187 185.584 42.9963L188.851 43.7775C190.437 44.1326 191.893 44.6061 193.219 45.198C194.545 45.7898 195.693 46.5178 196.663 47.3819C197.634 48.246 198.386 49.264 198.918 50.4359C199.463 51.6078 199.741 52.9513 199.753 54.4664C199.741 56.6918 199.173 58.6213 198.048 60.2548C196.936 61.8765 195.326 63.1371 193.219 64.0368C191.124 64.9245 188.596 65.3684 185.637 65.3684C182.701 65.3684 180.145 64.9186 177.967 64.019C175.8 63.1194 174.108 61.7877 172.888 60.024C171.681 58.2484 171.048 56.0526 170.989 53.4366H178.428C178.511 54.6558 178.86 55.6738 179.476 56.4906C180.103 57.2955 180.938 57.9051 181.979 58.3194C183.033 58.7219 184.223 58.9231 185.548 58.9231C186.85 58.9231 187.981 58.7337 188.94 58.3549C189.91 57.9761 190.662 57.4494 191.195 56.7747C191.727 56.1 191.994 55.3246 191.994 54.4487C191.994 53.6319 191.751 52.9454 191.266 52.389C190.792 51.8327 190.094 51.3592 189.17 50.9686C188.259 50.5779 187.14 50.2228 185.815 49.9032L181.855 48.9089C178.789 48.1632 176.369 46.9972 174.593 45.411C172.817 43.8249 171.936 41.6883 171.947 39.0012C171.936 36.7995 172.522 34.876 173.705 33.2306C174.901 31.5853 176.54 30.301 178.624 29.3777C180.707 28.4544 183.074 27.9927 185.726 27.9927C188.425 27.9927 190.78 28.4544 192.793 29.3777C194.817 30.301 196.391 31.5853 197.516 33.2306C198.64 34.876 199.22 36.7818 199.256 38.948H191.887ZM210.362 64.8535H202.123L214.676 28.4899H224.584L237.12 64.8535H228.881L219.772 36.7995H219.488L210.362 64.8535ZM209.847 50.5602H229.307V56.5616H209.847V50.5602ZM235.668 34.8287V28.4899H265.533V34.8287H254.4V64.8535H246.801V34.8287H235.668Z" fill="#E13B3B"/>
<path d="M56.5 36.8535C196 -20.6466 235.5 23.8534 235.5 23.8534H265.5C265.5 23.8534 204.5 -37.6466 56.5 36.8535Z" fill="#E13B3B"/>
<path d="M91.0371 36.7354C94.4817 36.7354 97.1931 37.464 99.1699 38.9199C101.158 40.3758 102.318 42.3581 102.649 44.8672L95.7246 45.2939C95.6062 44.7021 95.3525 44.1688 94.9619 43.6953C94.5714 43.2101 94.056 42.8261 93.417 42.542C92.7897 42.2461 92.0379 42.0977 91.1621 42.0977C89.9902 42.0977 89.0012 42.3466 88.1963 42.8438C87.3916 43.3291 86.9893 43.9802 86.9893 44.7969C86.9893 45.4478 87.2497 45.9985 87.7705 46.4482C88.2913 46.8979 89.1849 47.259 90.4512 47.5312L95.3877 48.5254C98.0392 49.0699 100.016 49.946 101.318 51.1533C102.62 52.3607 103.271 53.9473 103.271 55.9121C103.271 57.6993 102.744 59.2679 101.69 60.6172C100.649 61.9664 99.2163 63.0198 97.3936 63.7773C95.5826 64.523 93.4933 64.8965 91.126 64.8965C87.5158 64.8964 84.6395 64.1439 82.4971 62.6406C80.3665 61.1255 79.1179 59.066 78.751 56.4619L86.1904 56.0713C86.4153 57.172 86.9593 58.0128 87.8232 58.5928C88.6873 59.1609 89.7943 59.4453 91.1436 59.4453C92.4692 59.4453 93.5349 59.1906 94.3398 58.6816C95.1566 58.1608 95.5712 57.4916 95.583 56.6748C95.5711 55.9884 95.281 55.4262 94.7129 54.9883C94.1447 54.5385 93.2686 54.1957 92.085 53.959L87.3623 53.0176C84.6992 52.4849 82.7162 51.5618 81.4141 50.248C80.1238 48.9341 79.4785 47.2586 79.4785 45.2227C79.4785 43.4708 79.9525 41.9619 80.8994 40.6953C81.8582 39.4288 83.2015 38.4522 84.9297 37.7656C86.6696 37.0791 88.7054 36.7354 91.0371 36.7354ZM62.5127 36.7354C64.0278 36.7354 65.4783 36.9134 66.8633 37.2686C68.26 37.6237 69.4971 38.1742 70.5742 38.9199C71.6631 39.6656 72.5211 40.6242 73.1484 41.7959C73.7758 42.9559 74.0898 44.3471 74.0898 45.9688V64.3633H66.916V60.5811H66.7031C66.2652 61.4333 65.6791 62.1849 64.9453 62.8359C64.2114 63.4751 63.3296 63.9788 62.2998 64.3457C61.2701 64.7008 60.0807 64.8779 58.7314 64.8779C56.9914 64.8779 55.4404 64.5763 54.0791 63.9727C52.7178 63.3571 51.6407 62.4514 50.8477 61.2559C50.0665 60.0485 49.6758 58.5453 49.6758 56.7461C49.6758 55.2311 49.9535 53.9585 50.5098 52.9287C51.0661 51.8989 51.8244 51.0707 52.7832 50.4434C53.742 49.816 54.8306 49.3421 56.0498 49.0225C57.2809 48.7029 58.5715 48.4779 59.9209 48.3477C61.5069 48.1819 62.7853 48.0278 63.7559 47.8857C64.7265 47.7319 65.4312 47.5069 65.8691 47.2109C66.3068 46.915 66.5254 46.4773 66.5254 45.8975V45.791C66.5254 44.6665 66.1702 43.7962 65.46 43.1807C64.7616 42.5654 63.7675 42.2578 62.4775 42.2578C61.1164 42.2578 60.0334 42.5595 59.2285 43.1631C58.4236 43.7549 57.8903 44.5008 57.6299 45.4004L50.6348 44.832C50.9899 43.1749 51.6879 41.7425 52.7295 40.5352C53.7711 39.316 55.1145 38.3805 56.7598 37.7295C58.4169 37.0666 60.3348 36.7354 62.5127 36.7354ZM147.065 50.958C147.065 52.3429 147.367 53.5742 147.971 54.6514C148.586 55.7285 149.451 56.5749 150.563 57.1904C151.676 57.8059 152.973 58.1133 154.452 58.1133C155.944 58.1132 157.24 57.8059 158.341 57.1904C159.453 56.5749 160.311 55.7284 160.915 54.6514C161.531 53.5742 161.838 52.3429 161.838 50.958V28H169.526V29.5537C169.101 29.9994 168.703 30.4734 168.337 30.9775L168.332 30.9834L168.328 30.9893C166.742 33.1942 165.991 35.7496 166.006 38.5273L166.007 38.5264C165.998 41.879 167.119 44.8254 169.526 47.042V49.9473H164.979L165.048 53.0146C165.105 55.519 165.616 57.8388 166.672 59.8848C165.529 61.2568 164.091 62.3716 162.354 63.2266C160.093 64.3274 157.459 64.8779 154.452 64.8779C151.434 64.8779 148.794 64.3274 146.533 63.2266C144.272 62.1139 142.514 60.5637 141.26 58.5752C140.005 56.5867 139.377 54.2666 139.377 51.6152V28H147.065V50.958ZM14.417 53.2656H14.7188L21.3594 28H28.5508L35.1738 53.3193H35.4932L41.5127 28H49.9111L39.5059 64.3633H32.0127L25.0889 40.5889H24.8047L17.8975 64.3633H10.4043L0 28H8.39844L14.417 53.2656ZM115.385 41.9023H115.704C116.32 40.2925 117.314 39.0316 118.688 38.1201C120.061 37.1969 121.783 36.7354 123.854 36.7354C125.748 36.7354 127.4 37.1499 128.809 37.9785C130.229 38.7952 131.329 39.9731 132.11 41.5117C132.903 43.0386 133.294 44.8675 133.282 46.998V64.3633H125.719V48.3477C125.731 46.6669 125.304 45.3589 124.44 44.4238C123.588 43.4887 122.392 43.0215 120.854 43.0215C119.824 43.0215 118.912 43.2398 118.119 43.6777C117.338 44.1157 116.722 44.7553 116.272 45.5957C115.835 46.4243 115.609 47.4249 115.598 48.5967V64.3633H108.034V28H115.385V41.9023ZM66.5791 51.7217C66.3424 51.8755 66.0167 52.0173 65.6025 52.1475C65.2001 52.2658 64.7443 52.3779 64.2354 52.4844C63.7264 52.5791 63.217 52.6681 62.708 52.751C62.1991 52.822 61.7375 52.8871 61.3232 52.9463C60.4355 53.0765 59.6599 53.2843 58.9971 53.5684C58.3344 53.8524 57.819 54.2365 57.4521 54.7217C57.0852 55.1952 56.9023 55.7878 56.9023 56.498C56.9024 57.5276 57.2749 58.3149 58.0205 58.8594C58.7781 59.392 59.7374 59.6582 60.8975 59.6582C62.01 59.6582 62.9925 59.4389 63.8447 59.001C64.6968 58.5513 65.3653 57.9478 65.8506 57.1904C66.3359 56.4329 66.5791 55.574 66.5791 54.6152V51.7217ZM168.065 53.4316C168.106 54.2328 168.203 54.9928 168.356 55.7119H168.355C168.202 54.9932 168.106 54.2333 168.065 53.4326V53.4316Z" fill="white"/>
</svg>
