<svg width="851" height="136" viewBox="0 0 851 136" fill="none" xmlns="http://www.w3.org/2000/svg">
<mask id="path-1-outside-1_118_355" maskUnits="userSpaceOnUse" x="0" y="0" width="851" height="136" fill="black">
<rect fill="white" width="851" height="136"/>
<path d="M26.793 85.0664V132H2.0957V4.03125H45.8652C52.8379 4.03125 59.1367 5.05664 64.7617 7.10742C70.3867 9.09961 75.1914 11.8828 79.1758 15.457C83.1016 19.0898 86.1191 23.4258 88.2285 28.4648C90.3965 33.5039 91.4805 39.0996 91.4805 45.252C91.4805 50.9941 90.3965 56.2969 88.2285 61.1602C86.1191 66.0234 83.1016 70.2129 79.1758 73.7285C75.1914 77.3027 70.3867 80.0859 64.7617 82.0781C59.1367 84.0703 52.8379 85.0664 45.8652 85.0664H26.793ZM26.793 65.0273H45.8652C49.3809 65.0273 52.4277 64.5 55.0059 63.4453C57.584 62.3906 59.752 60.9551 61.5098 59.1387C63.209 57.3223 64.4688 55.2422 65.2891 52.8984C66.168 50.4961 66.6074 48.0059 66.6074 45.4277C66.6074 42.4395 66.168 39.6562 65.2891 37.0781C64.4688 34.5 63.209 32.2441 61.5098 30.3105C59.752 28.377 57.584 26.8535 55.0059 25.7402C52.4277 24.627 49.3809 24.0703 45.8652 24.0703H26.793V65.0273ZM152.037 84.1875H133.316V132H108.619V4.03125H151.51C158.6 4.03125 165.016 4.88086 170.758 6.58008C176.5 8.2207 181.422 10.6523 185.523 13.875C189.566 17.0977 192.672 21.1113 194.84 25.916C197.066 30.7207 198.18 36.2871 198.18 42.6152C198.18 47.1855 197.623 51.3164 196.51 55.0078C195.455 58.6406 193.932 61.8926 191.939 64.7637C189.889 67.6934 187.428 70.2422 184.557 72.4102C181.744 74.5781 178.58 76.4531 175.064 78.0352L202.574 130.857V132H176.119L152.037 84.1875ZM133.316 64.1484H151.598C155.406 64.1484 158.746 63.6211 161.617 62.5664C164.547 61.4531 166.92 59.8711 168.736 57.8203C170.26 56.1797 171.402 54.2168 172.164 51.9316C172.984 49.6465 173.395 47.0977 173.395 44.2852C173.395 40.8867 172.867 37.8984 171.812 35.3203C170.816 32.6836 169.293 30.5156 167.242 28.8164C165.426 27.293 163.199 26.1211 160.562 25.3008C157.926 24.4805 154.908 24.0703 151.51 24.0703H133.316V64.1484ZM306.021 77.4199C306.021 82.9277 305.523 88.1719 304.527 93.1523C303.531 98.0742 302.096 102.645 300.221 106.863C298.229 111.082 295.768 114.949 292.838 118.465C289.908 121.98 286.568 124.91 282.818 127.254C279.42 129.305 275.67 130.887 271.568 132C267.525 133.172 263.16 133.758 258.473 133.758C253.492 133.758 248.893 133.113 244.674 131.824C240.455 130.535 236.617 128.719 233.16 126.375C229.762 123.914 226.715 120.955 224.02 117.498C221.324 113.982 219.068 110.027 217.252 105.633C215.611 101.59 214.352 97.1953 213.473 92.4492C212.652 87.7031 212.242 82.6934 212.242 77.4199V58.7871C212.242 53.1621 212.711 47.8301 213.648 42.791C214.645 37.752 216.08 33.0938 217.955 28.8164C219.771 24.7734 221.969 21.1113 224.547 17.8301C227.184 14.5488 230.201 11.7363 233.6 9.39258C236.939 7.10742 240.689 5.34961 244.85 4.11914C249.01 2.88867 253.521 2.27344 258.385 2.27344C263.307 2.27344 267.906 2.91797 272.184 4.20703C276.52 5.4375 280.416 7.22461 283.873 9.56836C287.33 11.7949 290.348 14.4902 292.926 17.6543C295.562 20.8184 297.818 24.3047 299.693 28.1133C301.744 32.4492 303.297 37.1953 304.352 42.3516C305.465 47.5078 306.021 52.9863 306.021 58.7871V77.4199ZM280.973 58.6113C280.973 55.3301 280.797 52.2246 280.445 49.2949C280.152 46.3066 279.654 43.5527 278.951 41.0332C278.072 37.8691 276.9 35.0566 275.436 32.5957C273.971 30.0762 272.242 28.0254 270.25 26.4434C268.668 25.2715 266.881 24.3633 264.889 23.7188C262.955 23.0742 260.787 22.752 258.385 22.752C256.1 22.752 254.02 23.0449 252.145 23.6309C250.328 24.2168 248.688 25.0664 247.223 26.1797C245.23 27.8203 243.531 29.8711 242.125 32.332C240.777 34.793 239.723 37.6641 238.961 40.9453C238.375 43.4648 237.936 46.2188 237.643 49.207C237.408 52.1953 237.291 55.3301 237.291 58.6113V77.4199C237.291 80.5254 237.408 83.5137 237.643 86.3848C237.877 89.2559 238.287 91.9219 238.873 94.3828C239.518 97.4883 240.455 100.33 241.686 102.908C242.975 105.428 244.469 107.479 246.168 109.061C247.75 110.467 249.537 111.551 251.529 112.312C253.58 113.074 255.895 113.455 258.473 113.455C260.934 113.455 263.189 113.104 265.24 112.4C267.291 111.697 269.107 110.672 270.689 109.324C272.682 107.684 274.352 105.633 275.699 103.172C277.105 100.652 278.219 97.8105 279.039 94.6465C279.684 92.1855 280.152 89.4902 280.445 86.5605C280.797 83.6309 280.973 80.584 280.973 77.4199V58.6113ZM385.211 4.03125H409.908L409.996 92.7129C409.938 98.8066 408.766 104.373 406.48 109.412C404.254 114.393 401.178 118.699 397.252 122.332C393.326 125.965 388.697 128.777 383.365 130.77C378.092 132.762 372.408 133.758 366.314 133.758C359.869 133.758 354.01 132.938 348.736 131.297C343.463 129.656 338.951 127.195 335.201 123.914C331.393 120.691 328.434 116.619 326.324 111.697C324.215 106.775 323.131 101.004 323.072 94.3828H347.857C347.857 97.4297 348.15 100.096 348.736 102.381C349.322 104.666 350.201 106.6 351.373 108.182C352.896 110.115 354.889 111.551 357.35 112.488C359.811 113.426 362.799 113.895 366.314 113.895C369.127 113.895 371.705 113.367 374.049 112.312C376.393 111.199 378.385 109.705 380.025 107.83C381.666 105.955 382.926 103.729 383.805 101.15C384.742 98.5137 385.211 95.7012 385.211 92.7129V4.03125ZM511.686 75.9258H459.127V112.049H520.562V132H434.342V4.03125H520.299V24.1582H459.127V56.4141H511.686V75.9258ZM629.898 91.9219C629.488 98.3672 628.082 104.168 625.68 109.324C623.336 114.48 620.172 118.875 616.188 122.508C612.203 126.141 607.457 128.953 601.949 130.945C596.441 132.879 590.348 133.846 583.668 133.846C578.395 133.846 573.502 133.172 568.99 131.824C564.537 130.418 560.523 128.426 556.949 125.848C553.668 123.445 550.738 120.545 548.16 117.146C545.641 113.748 543.502 109.998 541.744 105.896C540.045 101.795 538.727 97.2832 537.789 92.3613C536.91 87.4395 536.471 82.2246 536.471 76.7168V59.4902C536.471 54.334 536.881 49.4414 537.701 44.8125C538.521 40.125 539.752 35.7891 541.393 31.8047C543.268 26.9414 545.729 22.6055 548.775 18.7969C551.822 14.9883 555.279 11.7656 559.146 9.12891C562.604 6.90234 566.383 5.20312 570.484 4.03125C574.645 2.80078 579.098 2.18555 583.844 2.18555C590.875 2.18555 597.115 3.18164 602.564 5.17383C608.072 7.16602 612.76 10.0078 616.627 13.6992C620.494 17.3906 623.541 21.9023 625.768 27.2344C627.994 32.5664 629.4 38.5723 629.986 45.252H605.377C605.143 41.4434 604.557 38.1035 603.619 35.2324C602.74 32.3613 601.451 29.959 599.752 28.0254C597.994 26.1504 595.797 24.7441 593.16 23.8066C590.582 22.8105 587.477 22.3125 583.844 22.3125C581.91 22.3125 580.094 22.5176 578.395 22.9277C576.754 23.3379 575.23 23.9531 573.824 24.7734C571.422 26.1797 569.371 28.2012 567.672 30.8379C566.031 33.416 564.713 36.4336 563.717 39.8906C562.955 42.5859 562.398 45.5742 562.047 48.8555C561.695 52.0781 561.52 55.5645 561.52 59.3145V76.7168C561.52 81.8145 561.783 86.3848 562.311 90.4277C562.896 94.4121 563.775 97.8984 564.947 100.887C565.768 102.938 566.734 104.754 567.848 106.336C569.02 107.918 570.338 109.236 571.803 110.291C573.385 111.463 575.143 112.342 577.076 112.928C579.068 113.455 581.266 113.719 583.668 113.719C586.891 113.719 589.791 113.309 592.369 112.488C594.947 111.668 597.145 110.379 598.961 108.621C600.777 106.863 602.213 104.607 603.268 101.854C604.322 99.0996 604.967 95.7891 605.201 91.9219H629.898ZM743.189 24.1582H703.727V132H678.941V24.1582H640.006V4.03125H743.189V24.1582ZM823.697 98.6016C823.697 96.3164 823.287 94.1777 822.467 92.1855C821.705 90.1934 820.387 88.3184 818.512 86.5605C816.578 84.8613 814.059 83.3086 810.953 81.9023C807.906 80.4375 804.098 79.0898 799.527 77.8594C792.438 75.9258 786.197 73.582 780.807 70.8281C775.475 68.0742 771.109 65.0566 767.711 61.7754C764.312 58.4941 761.734 54.8613 759.977 50.877C758.277 46.8926 757.428 42.5566 757.428 37.8691C757.428 32.4785 758.57 27.5859 760.855 23.1914C763.141 18.7969 766.305 15.0469 770.348 11.9414C774.391 8.83594 779.166 6.46289 784.674 4.82227C790.182 3.12305 796.158 2.27344 802.604 2.27344C809.283 2.27344 815.377 3.24023 820.885 5.17383C826.451 7.10742 831.227 9.80273 835.211 13.2598C839.195 16.7754 842.301 20.9355 844.527 25.7402C846.754 30.5449 847.867 35.8184 847.867 41.5605H823.785C823.668 38.6895 823.141 36.0527 822.203 33.6504C821.324 31.248 820.006 29.168 818.248 27.4102C816.432 25.7109 814.176 24.3926 811.48 23.4551C808.844 22.459 805.738 21.9609 802.164 21.9609C798.883 21.9609 795.953 22.3711 793.375 23.1914C790.855 23.9531 788.717 25.0371 786.959 26.4434C785.201 27.9082 783.854 29.6367 782.916 31.6289C782.037 33.5625 781.598 35.6719 781.598 37.957C781.598 40.3594 782.184 42.5273 783.355 44.4609C784.586 46.3945 786.344 48.123 788.629 49.6465C790.914 51.2285 793.668 52.6641 796.891 53.9531C800.172 55.2422 803.863 56.4434 807.965 57.5566C812.359 58.7871 816.549 60.2812 820.533 62.0391C824.518 63.7969 828.18 65.8184 831.52 68.1035C836.559 71.8535 840.572 76.2188 843.561 81.1992C846.549 86.1797 848.043 91.9219 848.043 98.4258C848.043 104.051 846.9 109.061 844.615 113.455C842.389 117.791 839.283 121.453 835.299 124.441C831.314 127.488 826.568 129.803 821.061 131.385C815.553 132.908 809.547 133.67 803.043 133.67C796.656 133.67 790.328 132.732 784.059 130.857C777.848 128.924 772.428 126.111 767.799 122.42C763.404 118.787 759.918 114.51 757.34 109.588C754.82 104.666 753.561 98.8945 753.561 92.2734H777.818C777.936 96.1406 778.609 99.4512 779.84 102.205C781.07 104.959 782.799 107.215 785.025 108.973C787.193 110.73 789.801 112.02 792.848 112.84C795.953 113.66 799.352 114.07 803.043 114.07C806.324 114.07 809.225 113.689 811.744 112.928C814.322 112.166 816.49 111.111 818.248 109.764C820.006 108.416 821.354 106.805 822.291 104.93C823.229 102.996 823.697 100.887 823.697 98.6016Z"/>
</mask>
<path d="M26.793 85.0664V132H2.0957V4.03125H45.8652C52.8379 4.03125 59.1367 5.05664 64.7617 7.10742C70.3867 9.09961 75.1914 11.8828 79.1758 15.457C83.1016 19.0898 86.1191 23.4258 88.2285 28.4648C90.3965 33.5039 91.4805 39.0996 91.4805 45.252C91.4805 50.9941 90.3965 56.2969 88.2285 61.1602C86.1191 66.0234 83.1016 70.2129 79.1758 73.7285C75.1914 77.3027 70.3867 80.0859 64.7617 82.0781C59.1367 84.0703 52.8379 85.0664 45.8652 85.0664H26.793ZM26.793 65.0273H45.8652C49.3809 65.0273 52.4277 64.5 55.0059 63.4453C57.584 62.3906 59.752 60.9551 61.5098 59.1387C63.209 57.3223 64.4688 55.2422 65.2891 52.8984C66.168 50.4961 66.6074 48.0059 66.6074 45.4277C66.6074 42.4395 66.168 39.6562 65.2891 37.0781C64.4688 34.5 63.209 32.2441 61.5098 30.3105C59.752 28.377 57.584 26.8535 55.0059 25.7402C52.4277 24.627 49.3809 24.0703 45.8652 24.0703H26.793V65.0273ZM152.037 84.1875H133.316V132H108.619V4.03125H151.51C158.6 4.03125 165.016 4.88086 170.758 6.58008C176.5 8.2207 181.422 10.6523 185.523 13.875C189.566 17.0977 192.672 21.1113 194.84 25.916C197.066 30.7207 198.18 36.2871 198.18 42.6152C198.18 47.1855 197.623 51.3164 196.51 55.0078C195.455 58.6406 193.932 61.8926 191.939 64.7637C189.889 67.6934 187.428 70.2422 184.557 72.4102C181.744 74.5781 178.58 76.4531 175.064 78.0352L202.574 130.857V132H176.119L152.037 84.1875ZM133.316 64.1484H151.598C155.406 64.1484 158.746 63.6211 161.617 62.5664C164.547 61.4531 166.92 59.8711 168.736 57.8203C170.26 56.1797 171.402 54.2168 172.164 51.9316C172.984 49.6465 173.395 47.0977 173.395 44.2852C173.395 40.8867 172.867 37.8984 171.812 35.3203C170.816 32.6836 169.293 30.5156 167.242 28.8164C165.426 27.293 163.199 26.1211 160.562 25.3008C157.926 24.4805 154.908 24.0703 151.51 24.0703H133.316V64.1484ZM306.021 77.4199C306.021 82.9277 305.523 88.1719 304.527 93.1523C303.531 98.0742 302.096 102.645 300.221 106.863C298.229 111.082 295.768 114.949 292.838 118.465C289.908 121.98 286.568 124.91 282.818 127.254C279.42 129.305 275.67 130.887 271.568 132C267.525 133.172 263.16 133.758 258.473 133.758C253.492 133.758 248.893 133.113 244.674 131.824C240.455 130.535 236.617 128.719 233.16 126.375C229.762 123.914 226.715 120.955 224.02 117.498C221.324 113.982 219.068 110.027 217.252 105.633C215.611 101.59 214.352 97.1953 213.473 92.4492C212.652 87.7031 212.242 82.6934 212.242 77.4199V58.7871C212.242 53.1621 212.711 47.8301 213.648 42.791C214.645 37.752 216.08 33.0938 217.955 28.8164C219.771 24.7734 221.969 21.1113 224.547 17.8301C227.184 14.5488 230.201 11.7363 233.6 9.39258C236.939 7.10742 240.689 5.34961 244.85 4.11914C249.01 2.88867 253.521 2.27344 258.385 2.27344C263.307 2.27344 267.906 2.91797 272.184 4.20703C276.52 5.4375 280.416 7.22461 283.873 9.56836C287.33 11.7949 290.348 14.4902 292.926 17.6543C295.562 20.8184 297.818 24.3047 299.693 28.1133C301.744 32.4492 303.297 37.1953 304.352 42.3516C305.465 47.5078 306.021 52.9863 306.021 58.7871V77.4199ZM280.973 58.6113C280.973 55.3301 280.797 52.2246 280.445 49.2949C280.152 46.3066 279.654 43.5527 278.951 41.0332C278.072 37.8691 276.9 35.0566 275.436 32.5957C273.971 30.0762 272.242 28.0254 270.25 26.4434C268.668 25.2715 266.881 24.3633 264.889 23.7188C262.955 23.0742 260.787 22.752 258.385 22.752C256.1 22.752 254.02 23.0449 252.145 23.6309C250.328 24.2168 248.688 25.0664 247.223 26.1797C245.23 27.8203 243.531 29.8711 242.125 32.332C240.777 34.793 239.723 37.6641 238.961 40.9453C238.375 43.4648 237.936 46.2188 237.643 49.207C237.408 52.1953 237.291 55.3301 237.291 58.6113V77.4199C237.291 80.5254 237.408 83.5137 237.643 86.3848C237.877 89.2559 238.287 91.9219 238.873 94.3828C239.518 97.4883 240.455 100.33 241.686 102.908C242.975 105.428 244.469 107.479 246.168 109.061C247.75 110.467 249.537 111.551 251.529 112.312C253.58 113.074 255.895 113.455 258.473 113.455C260.934 113.455 263.189 113.104 265.24 112.4C267.291 111.697 269.107 110.672 270.689 109.324C272.682 107.684 274.352 105.633 275.699 103.172C277.105 100.652 278.219 97.8105 279.039 94.6465C279.684 92.1855 280.152 89.4902 280.445 86.5605C280.797 83.6309 280.973 80.584 280.973 77.4199V58.6113ZM385.211 4.03125H409.908L409.996 92.7129C409.938 98.8066 408.766 104.373 406.48 109.412C404.254 114.393 401.178 118.699 397.252 122.332C393.326 125.965 388.697 128.777 383.365 130.77C378.092 132.762 372.408 133.758 366.314 133.758C359.869 133.758 354.01 132.938 348.736 131.297C343.463 129.656 338.951 127.195 335.201 123.914C331.393 120.691 328.434 116.619 326.324 111.697C324.215 106.775 323.131 101.004 323.072 94.3828H347.857C347.857 97.4297 348.15 100.096 348.736 102.381C349.322 104.666 350.201 106.6 351.373 108.182C352.896 110.115 354.889 111.551 357.35 112.488C359.811 113.426 362.799 113.895 366.314 113.895C369.127 113.895 371.705 113.367 374.049 112.312C376.393 111.199 378.385 109.705 380.025 107.83C381.666 105.955 382.926 103.729 383.805 101.15C384.742 98.5137 385.211 95.7012 385.211 92.7129V4.03125ZM511.686 75.9258H459.127V112.049H520.562V132H434.342V4.03125H520.299V24.1582H459.127V56.4141H511.686V75.9258ZM629.898 91.9219C629.488 98.3672 628.082 104.168 625.68 109.324C623.336 114.48 620.172 118.875 616.188 122.508C612.203 126.141 607.457 128.953 601.949 130.945C596.441 132.879 590.348 133.846 583.668 133.846C578.395 133.846 573.502 133.172 568.99 131.824C564.537 130.418 560.523 128.426 556.949 125.848C553.668 123.445 550.738 120.545 548.16 117.146C545.641 113.748 543.502 109.998 541.744 105.896C540.045 101.795 538.727 97.2832 537.789 92.3613C536.91 87.4395 536.471 82.2246 536.471 76.7168V59.4902C536.471 54.334 536.881 49.4414 537.701 44.8125C538.521 40.125 539.752 35.7891 541.393 31.8047C543.268 26.9414 545.729 22.6055 548.775 18.7969C551.822 14.9883 555.279 11.7656 559.146 9.12891C562.604 6.90234 566.383 5.20312 570.484 4.03125C574.645 2.80078 579.098 2.18555 583.844 2.18555C590.875 2.18555 597.115 3.18164 602.564 5.17383C608.072 7.16602 612.76 10.0078 616.627 13.6992C620.494 17.3906 623.541 21.9023 625.768 27.2344C627.994 32.5664 629.4 38.5723 629.986 45.252H605.377C605.143 41.4434 604.557 38.1035 603.619 35.2324C602.74 32.3613 601.451 29.959 599.752 28.0254C597.994 26.1504 595.797 24.7441 593.16 23.8066C590.582 22.8105 587.477 22.3125 583.844 22.3125C581.91 22.3125 580.094 22.5176 578.395 22.9277C576.754 23.3379 575.23 23.9531 573.824 24.7734C571.422 26.1797 569.371 28.2012 567.672 30.8379C566.031 33.416 564.713 36.4336 563.717 39.8906C562.955 42.5859 562.398 45.5742 562.047 48.8555C561.695 52.0781 561.52 55.5645 561.52 59.3145V76.7168C561.52 81.8145 561.783 86.3848 562.311 90.4277C562.896 94.4121 563.775 97.8984 564.947 100.887C565.768 102.938 566.734 104.754 567.848 106.336C569.02 107.918 570.338 109.236 571.803 110.291C573.385 111.463 575.143 112.342 577.076 112.928C579.068 113.455 581.266 113.719 583.668 113.719C586.891 113.719 589.791 113.309 592.369 112.488C594.947 111.668 597.145 110.379 598.961 108.621C600.777 106.863 602.213 104.607 603.268 101.854C604.322 99.0996 604.967 95.7891 605.201 91.9219H629.898ZM743.189 24.1582H703.727V132H678.941V24.1582H640.006V4.03125H743.189V24.1582ZM823.697 98.6016C823.697 96.3164 823.287 94.1777 822.467 92.1855C821.705 90.1934 820.387 88.3184 818.512 86.5605C816.578 84.8613 814.059 83.3086 810.953 81.9023C807.906 80.4375 804.098 79.0898 799.527 77.8594C792.438 75.9258 786.197 73.582 780.807 70.8281C775.475 68.0742 771.109 65.0566 767.711 61.7754C764.312 58.4941 761.734 54.8613 759.977 50.877C758.277 46.8926 757.428 42.5566 757.428 37.8691C757.428 32.4785 758.57 27.5859 760.855 23.1914C763.141 18.7969 766.305 15.0469 770.348 11.9414C774.391 8.83594 779.166 6.46289 784.674 4.82227C790.182 3.12305 796.158 2.27344 802.604 2.27344C809.283 2.27344 815.377 3.24023 820.885 5.17383C826.451 7.10742 831.227 9.80273 835.211 13.2598C839.195 16.7754 842.301 20.9355 844.527 25.7402C846.754 30.5449 847.867 35.8184 847.867 41.5605H823.785C823.668 38.6895 823.141 36.0527 822.203 33.6504C821.324 31.248 820.006 29.168 818.248 27.4102C816.432 25.7109 814.176 24.3926 811.48 23.4551C808.844 22.459 805.738 21.9609 802.164 21.9609C798.883 21.9609 795.953 22.3711 793.375 23.1914C790.855 23.9531 788.717 25.0371 786.959 26.4434C785.201 27.9082 783.854 29.6367 782.916 31.6289C782.037 33.5625 781.598 35.6719 781.598 37.957C781.598 40.3594 782.184 42.5273 783.355 44.4609C784.586 46.3945 786.344 48.123 788.629 49.6465C790.914 51.2285 793.668 52.6641 796.891 53.9531C800.172 55.2422 803.863 56.4434 807.965 57.5566C812.359 58.7871 816.549 60.2812 820.533 62.0391C824.518 63.7969 828.18 65.8184 831.52 68.1035C836.559 71.8535 840.572 76.2188 843.561 81.1992C846.549 86.1797 848.043 91.9219 848.043 98.4258C848.043 104.051 846.9 109.061 844.615 113.455C842.389 117.791 839.283 121.453 835.299 124.441C831.314 127.488 826.568 129.803 821.061 131.385C815.553 132.908 809.547 133.67 803.043 133.67C796.656 133.67 790.328 132.732 784.059 130.857C777.848 128.924 772.428 126.111 767.799 122.42C763.404 118.787 759.918 114.51 757.34 109.588C754.82 104.666 753.561 98.8945 753.561 92.2734H777.818C777.936 96.1406 778.609 99.4512 779.84 102.205C781.07 104.959 782.799 107.215 785.025 108.973C787.193 110.73 789.801 112.02 792.848 112.84C795.953 113.66 799.352 114.07 803.043 114.07C806.324 114.07 809.225 113.689 811.744 112.928C814.322 112.166 816.49 111.111 818.248 109.764C820.006 108.416 821.354 106.805 822.291 104.93C823.229 102.996 823.697 100.887 823.697 98.6016Z" fill="url(#paint0_linear_118_355)"/>
<path d="M26.793 85.0664V83.0664H24.793V85.0664H26.793ZM26.793 132V134H28.793V132H26.793ZM2.0957 132H0.0957031V134H2.0957V132ZM2.0957 4.03125V2.03125H0.0957031V4.03125H2.0957ZM64.7617 7.10742L64.0767 8.98643L64.0853 8.98959L64.094 8.99268L64.7617 7.10742ZM79.1758 15.457L80.5342 13.9891L80.5228 13.9786L80.5113 13.9683L79.1758 15.457ZM88.2285 28.4648L86.3836 29.2371L86.3874 29.2462L86.3913 29.2553L88.2285 28.4648ZM88.2285 61.1602L86.4018 60.3458L86.3977 60.3551L86.3937 60.3643L88.2285 61.1602ZM79.1758 73.7285L77.8415 72.2386L77.8403 72.2397L79.1758 73.7285ZM26.793 65.0273H24.793V67.0273H26.793V65.0273ZM61.5098 59.1387L62.947 60.5295L62.9587 60.5173L62.9703 60.505L61.5098 59.1387ZM65.2891 52.8984L63.4108 52.2113L63.406 52.2245L63.4013 52.2377L65.2891 52.8984ZM65.2891 37.0781L63.3832 37.6845L63.3894 37.7041L63.396 37.7235L65.2891 37.0781ZM61.5098 30.3105L63.0121 28.9903L63.001 28.9777L62.9896 28.9652L61.5098 30.3105ZM26.793 24.0703V22.0703H24.793V24.0703H26.793ZM24.793 85.0664V132H28.793V85.0664H24.793ZM26.793 130H2.0957V134H26.793V130ZM4.0957 132V4.03125H0.0957031V132H4.0957ZM2.0957 6.03125H45.8652V2.03125H2.0957V6.03125ZM45.8652 6.03125C52.642 6.03125 58.7041 7.02768 64.0767 8.98643L65.4468 5.22841C59.5694 3.08561 53.0338 2.03125 45.8652 2.03125V6.03125ZM64.094 8.99268C69.5009 10.9076 74.0716 13.5651 77.8403 16.9458L80.5113 13.9683C76.3112 10.2005 71.2725 7.29159 65.4294 5.22217L64.094 8.99268ZM77.8174 16.925C81.5285 20.3591 84.3824 24.4563 86.3836 29.2371L90.0734 27.6926C87.8559 22.3953 84.6746 17.8205 80.5342 13.9891L77.8174 16.925ZM86.3913 29.2553C88.4396 34.016 89.4805 39.3384 89.4805 45.252H93.4805C93.4805 38.8609 92.3534 32.9918 90.0657 27.6744L86.3913 29.2553ZM89.4805 45.252C89.4805 50.7359 88.4468 55.7585 86.4018 60.3458L90.0552 61.9745C92.3462 56.8353 93.4805 51.2524 93.4805 45.252H89.4805ZM86.3937 60.3643C84.3984 64.9645 81.551 68.9167 77.8415 72.2386L80.51 75.2184C84.6521 71.5091 87.8399 67.0824 90.0634 61.956L86.3937 60.3643ZM77.8403 72.2397C74.0716 75.6205 69.5009 78.2779 64.094 80.1929L65.4294 83.9634C71.2725 81.894 76.3112 78.985 80.5113 75.2173L77.8403 72.2397ZM64.094 80.1929C58.7162 82.0975 52.6479 83.0664 45.8652 83.0664V87.0664C53.0278 87.0664 59.5573 86.0431 65.4294 83.9634L64.094 80.1929ZM45.8652 83.0664H26.793V87.0664H45.8652V83.0664ZM26.793 67.0273H45.8652V63.0273H26.793V67.0273ZM45.8652 67.0273C49.5751 67.0273 52.8907 66.4715 55.7631 65.2964L54.2486 61.5942C51.9648 62.5285 49.1867 63.0273 45.8652 63.0273V67.0273ZM55.7631 65.2964C58.571 64.1477 60.978 62.5642 62.947 60.5295L60.0726 57.7478C58.5259 59.346 56.597 60.6335 54.2486 61.5942L55.7631 65.2964ZM62.9703 60.505C64.8591 58.486 66.2645 56.1657 67.1768 53.5591L63.4013 52.2377C62.673 54.3187 61.5589 56.1586 60.0492 57.7724L62.9703 60.505ZM67.1673 53.5856C68.1274 50.9613 68.6074 48.2384 68.6074 45.4277H64.6074C64.6074 47.7733 64.2085 50.0308 63.4108 52.2113L67.1673 53.5856ZM68.6074 45.4277C68.6074 42.2411 68.1384 39.2379 67.1821 36.4328L63.396 37.7235C64.1976 40.0746 64.6074 42.6378 64.6074 45.4277H68.6074ZM67.1949 36.4717C66.2952 33.644 64.9029 31.142 63.0121 28.9903L60.0074 31.6308C61.515 33.3463 62.6423 35.356 63.3832 37.6845L67.1949 36.4717ZM62.9896 28.9652C61.0264 26.8056 58.6184 25.1217 55.7987 23.9041L54.213 27.5764C56.5496 28.5854 58.4775 29.9483 60.0299 31.6559L62.9896 28.9652ZM55.7987 23.9041C52.9157 22.6592 49.5871 22.0703 45.8652 22.0703V26.0703C49.1746 26.0703 51.9398 26.5947 54.213 27.5764L55.7987 23.9041ZM45.8652 22.0703H26.793V26.0703H45.8652V22.0703ZM24.793 24.0703V65.0273H28.793V24.0703H24.793ZM152.037 84.1875L153.823 83.2878L153.269 82.1875H152.037V84.1875ZM133.316 84.1875V82.1875H131.316V84.1875H133.316ZM133.316 132V134H135.316V132H133.316ZM108.619 132H106.619V134H108.619V132ZM108.619 4.03125V2.03125H106.619V4.03125H108.619ZM170.758 6.58008L170.19 8.49787L170.199 8.50054L170.208 8.50313L170.758 6.58008ZM185.523 13.875L186.77 12.311L186.759 12.3024L185.523 13.875ZM194.84 25.916L193.017 26.7386L193.021 26.7478L193.025 26.7569L194.84 25.916ZM196.51 55.0078L194.595 54.4303L194.592 54.4402L194.589 54.4502L196.51 55.0078ZM191.939 64.7637L193.578 65.9106L193.583 65.9038L191.939 64.7637ZM184.557 72.4102L183.351 70.8141L183.344 70.8201L183.336 70.8261L184.557 72.4102ZM175.064 78.0352L174.244 76.2113L172.312 77.0805L173.291 78.959L175.064 78.0352ZM202.574 130.857H204.574V130.368L204.348 129.934L202.574 130.857ZM202.574 132V134H204.574V132H202.574ZM176.119 132L174.333 132.9L174.887 134H176.119V132ZM133.316 64.1484H131.316V66.1484H133.316V64.1484ZM161.617 62.5664L162.307 64.4437L162.317 64.4399L162.328 64.436L161.617 62.5664ZM168.736 57.8203L167.271 56.4594L167.255 56.4766L167.239 56.4942L168.736 57.8203ZM172.164 51.9316L170.282 51.2559L170.274 51.2775L170.267 51.2992L172.164 51.9316ZM171.812 35.3203L169.942 36.0271L169.951 36.0525L169.961 36.0776L171.812 35.3203ZM167.242 28.8164L165.957 30.3488L165.966 30.3565L167.242 28.8164ZM133.316 24.0703V22.0703H131.316V24.0703H133.316ZM152.037 82.1875H133.316V86.1875H152.037V82.1875ZM131.316 84.1875V132H135.316V84.1875H131.316ZM133.316 130H108.619V134H133.316V130ZM110.619 132V4.03125H106.619V132H110.619ZM108.619 6.03125H151.51V2.03125H108.619V6.03125ZM151.51 6.03125C158.442 6.03125 164.663 6.86211 170.19 8.49787L171.325 4.66228C165.369 2.89961 158.757 2.03125 151.51 2.03125V6.03125ZM170.208 8.50313C175.737 10.0828 180.417 12.4067 184.288 15.4476L186.759 12.3024C182.426 8.89802 177.263 6.35865 171.307 4.65703L170.208 8.50313ZM184.277 15.4389C188.067 18.4598 190.977 22.2174 193.017 26.7386L196.663 25.0934C194.367 20.0052 191.066 15.7356 186.77 12.3111L184.277 15.4389ZM193.025 26.7569C195.108 31.2517 196.18 36.5217 196.18 42.6152H200.18C200.18 36.0525 199.025 30.1897 196.654 25.0751L193.025 26.7569ZM196.18 42.6152C196.18 47.0251 195.642 50.9571 194.595 54.4303L198.425 55.5853C199.604 51.6757 200.18 47.346 200.18 42.6152H196.18ZM194.589 54.4502C193.59 57.8922 192.155 60.9444 190.296 63.6235L193.583 65.9038C195.708 62.8408 197.32 59.389 198.43 55.5654L194.589 54.4502ZM190.301 63.6167C188.371 66.3739 186.057 68.7715 183.351 70.8141L185.762 74.0062C188.799 71.7129 191.406 69.0128 193.578 65.9106L190.301 63.6167ZM183.336 70.8261C180.657 72.8911 177.629 74.6879 174.244 76.2113L175.885 79.859C179.531 78.2183 182.831 76.2652 185.778 73.9942L183.336 70.8261ZM173.291 78.959L200.8 131.781L204.348 129.934L176.838 77.1113L173.291 78.959ZM200.574 130.857V132H204.574V130.857H200.574ZM202.574 130H176.119V134H202.574V130ZM177.905 131.1L153.823 83.2878L150.251 85.0872L174.333 132.9L177.905 131.1ZM133.316 66.1484H151.598V62.1484H133.316V66.1484ZM151.598 66.1484C155.586 66.1484 159.168 65.5967 162.307 64.4437L160.928 60.6891C158.324 61.6455 155.226 62.1484 151.598 62.1484V66.1484ZM162.328 64.436C165.516 63.2245 168.174 61.4721 170.234 59.1464L167.239 56.4942C165.666 58.2701 163.578 59.6818 160.907 60.6968L162.328 64.436ZM170.202 59.1812C171.934 57.3158 173.216 55.0992 174.061 52.5641L170.267 51.2992C169.588 53.3344 168.585 55.0435 167.271 56.4594L170.202 59.1812ZM174.046 52.6074C174.956 50.0741 175.395 47.2922 175.395 44.2852H171.395C171.395 46.9032 171.013 49.2189 170.282 51.2559L174.046 52.6074ZM175.395 44.2852C175.395 40.6826 174.836 37.4281 173.664 34.563L169.961 36.0776C170.899 38.3688 171.395 41.0908 171.395 44.2852H175.395ZM173.683 34.6135C172.572 31.6718 170.852 29.21 168.518 27.2764L165.966 30.3565C167.734 31.8212 169.061 33.6954 169.942 36.0271L173.683 34.6135ZM168.527 27.284C166.477 25.5646 164.005 24.2773 161.157 23.3911L159.968 27.2105C162.393 27.9649 164.374 29.0214 165.957 30.3488L168.527 27.284ZM161.157 23.3911C158.289 22.499 155.065 22.0703 151.51 22.0703V26.0703C154.751 26.0703 157.562 26.462 159.968 27.2105L161.157 23.3911ZM151.51 22.0703H133.316V26.0703H151.51V22.0703ZM131.316 24.0703V64.1484H135.316V24.0703H131.316ZM304.527 93.1523L306.488 93.5491L306.488 93.5446L304.527 93.1523ZM300.221 106.863L302.029 107.717L302.039 107.697L302.048 107.676L300.221 106.863ZM282.818 127.254L283.852 128.966L283.865 128.958L283.878 128.95L282.818 127.254ZM271.568 132L271.044 130.07L271.028 130.074L271.012 130.079L271.568 132ZM233.16 126.375L231.987 127.995L232.012 128.013L232.038 128.03L233.16 126.375ZM224.02 117.498L222.432 118.715L222.437 118.721L222.442 118.728L224.02 117.498ZM217.252 105.633L215.399 106.385L215.404 106.397L217.252 105.633ZM213.473 92.4492L211.502 92.7898L211.504 92.8016L211.506 92.8134L213.473 92.4492ZM213.648 42.791L211.686 42.4032L211.684 42.4142L211.682 42.4252L213.648 42.791ZM217.955 28.8164L216.131 27.9968L216.127 28.0051L216.123 28.0135L217.955 28.8164ZM224.547 17.8301L222.988 16.5773L222.981 16.5858L222.974 16.5944L224.547 17.8301ZM233.6 9.39258L232.47 7.74195L232.464 7.74615L233.6 9.39258ZM272.184 4.20703L271.607 6.12196L271.622 6.12664L271.638 6.13106L272.184 4.20703ZM283.873 9.56836L282.751 11.2238L282.77 11.237L282.79 11.2498L283.873 9.56836ZM292.926 17.6543L291.375 18.9176L291.382 18.9262L291.389 18.9347L292.926 17.6543ZM299.693 28.1133L301.501 27.2582L301.495 27.244L301.488 27.2299L299.693 28.1133ZM304.352 42.3516L302.392 42.7524L302.394 42.763L302.397 42.7737L304.352 42.3516ZM280.445 49.2949L278.455 49.4901L278.457 49.5117L278.46 49.5332L280.445 49.2949ZM278.951 41.0332L277.024 41.5685L277.025 41.5708L278.951 41.0332ZM275.436 32.5957L273.707 33.6009L273.712 33.6098L273.717 33.6187L275.436 32.5957ZM270.25 26.4434L271.494 24.8771L271.467 24.8562L271.44 24.8362L270.25 26.4434ZM264.889 23.7188L264.256 25.6161L264.265 25.6189L264.273 25.6216L264.889 23.7188ZM252.145 23.6309L251.548 21.7219L251.539 21.7246L251.531 21.7274L252.145 23.6309ZM247.223 26.1797L246.012 24.5874L245.981 24.611L245.951 24.6358L247.223 26.1797ZM242.125 32.332L240.389 31.3398L240.38 31.3555L240.371 31.3714L242.125 32.332ZM238.961 40.9453L240.909 41.3983L240.909 41.3976L238.961 40.9453ZM237.643 49.207L235.652 49.0119L235.65 49.0312L235.649 49.0507L237.643 49.207ZM238.873 94.3828L240.831 93.9764L240.825 93.9479L240.819 93.9196L238.873 94.3828ZM241.686 102.908L239.881 103.77L239.892 103.795L239.905 103.819L241.686 102.908ZM246.168 109.061L244.805 110.524L244.822 110.54L244.839 110.555L246.168 109.061ZM251.529 112.312L250.815 114.181L250.824 114.184L250.833 114.187L251.529 112.312ZM270.689 109.324L269.418 107.78L269.405 107.791L269.393 107.802L270.689 109.324ZM275.699 103.172L273.953 102.197L273.949 102.204L273.945 102.211L275.699 103.172ZM279.039 94.6465L277.104 94.1398L277.103 94.1446L279.039 94.6465ZM280.445 86.5605L278.46 86.3223L278.457 86.3419L278.455 86.3615L280.445 86.5605ZM304.021 77.4199C304.021 82.807 303.534 87.9191 302.566 92.7601L306.488 93.5446C307.512 88.4246 308.021 83.0485 308.021 77.4199H304.021ZM302.567 92.7556C301.597 97.5469 300.204 101.977 298.393 106.051L302.048 107.676C303.987 103.312 305.465 98.6015 306.488 93.5491L302.567 92.7556ZM298.412 106.009C296.491 110.078 294.121 113.801 291.301 117.184L294.374 119.745C297.414 116.097 299.966 112.086 302.029 107.717L298.412 106.009ZM291.301 117.184C288.503 120.543 285.322 123.33 281.758 125.558L283.878 128.95C287.814 126.49 291.314 123.418 294.374 119.745L291.301 117.184ZM281.785 125.542C278.556 127.49 274.98 129.002 271.044 130.07L272.092 133.93C276.36 132.772 280.284 131.119 283.852 128.966L281.785 125.542ZM271.012 130.079C267.169 131.193 262.993 131.758 258.473 131.758V135.758C263.327 135.758 267.882 135.151 272.125 133.921L271.012 130.079ZM258.473 131.758C253.665 131.758 249.265 131.136 245.258 129.912L244.089 133.737C248.52 135.091 253.319 135.758 258.473 135.758V131.758ZM245.258 129.912C241.22 128.678 237.565 126.945 234.282 124.72L232.038 128.03C235.669 130.492 239.69 132.393 244.089 133.737L245.258 129.912ZM234.333 124.755C231.094 122.409 228.182 119.584 225.597 116.268L222.442 118.728C225.248 122.327 228.43 125.419 231.987 127.995L234.333 124.755ZM225.607 116.281C223.025 112.914 220.855 109.113 219.1 104.869L215.404 106.397C217.282 110.941 219.623 115.051 222.432 118.715L225.607 116.281ZM219.105 104.881C217.52 100.975 216.296 96.7122 215.439 92.085L211.506 92.8134C212.407 97.6784 213.702 102.204 215.399 106.385L219.105 104.881ZM215.443 92.1086C214.644 87.485 214.242 82.5898 214.242 77.4199H210.242C210.242 82.7969 210.66 87.9212 211.502 92.7898L215.443 92.1086ZM214.242 77.4199V58.7871H210.242V77.4199H214.242ZM214.242 58.7871C214.242 53.2731 214.702 48.0642 215.615 43.1568L211.682 42.4252C210.72 47.5959 210.242 53.0511 210.242 58.7871H214.242ZM215.61 43.1789C216.581 38.2685 217.976 33.751 219.787 29.6194L216.123 28.0135C214.184 32.4365 212.708 37.2354 211.686 42.4032L215.61 43.1789ZM219.779 29.636C221.533 25.7323 223.648 22.2114 226.12 19.0657L222.974 16.5944C220.29 20.0113 218.01 23.8146 216.131 27.9968L219.779 29.636ZM226.106 19.0829C228.624 15.9496 231.499 13.2706 234.735 11.039L232.464 7.74615C228.903 10.2021 225.744 13.148 222.988 16.5773L226.106 19.0829ZM234.729 11.0432C237.885 8.88411 241.442 7.21254 245.417 6.03701L244.282 2.20127C239.936 3.48668 235.994 5.33073 232.47 7.74196L234.729 11.0432ZM245.417 6.03701C249.372 4.86714 253.691 4.27344 258.385 4.27344V0.273438C253.352 0.273438 248.647 0.910202 244.282 2.20127L245.417 6.03701ZM258.385 4.27344C263.131 4.27344 267.534 4.89472 271.607 6.12196L272.761 2.2921C268.278 0.941216 263.482 0.273438 258.385 0.273438V4.27344ZM271.638 6.13106C275.785 7.3079 279.484 9.00883 282.751 11.2238L284.995 7.91294C281.348 5.44038 277.255 3.5671 272.73 2.283L271.638 6.13106ZM282.79 11.2498C286.072 13.3633 288.931 15.9179 291.375 18.9176L294.476 16.391C291.764 13.0626 288.589 10.2265 284.956 7.88693L282.79 11.2498ZM291.389 18.9347C293.922 21.9734 296.092 25.3258 297.899 28.9967L301.488 27.2299C299.545 23.2836 297.203 19.6633 294.462 16.3739L291.389 18.9347ZM297.885 28.9684C299.861 33.1462 301.366 37.738 302.392 42.7524L306.311 41.9508C305.227 36.6526 303.627 31.7522 301.501 27.2582L297.885 28.9684ZM302.397 42.7737C303.477 47.7782 304.021 53.1143 304.021 58.7871H308.021C308.021 52.8583 307.453 47.2374 306.307 41.9295L302.397 42.7737ZM304.021 58.7871V77.4199H308.021V58.7871H304.021ZM282.973 58.6113C282.973 55.2591 282.793 52.0736 282.431 49.0566L278.46 49.5332C278.801 52.3756 278.973 55.401 278.973 58.6113H282.973ZM282.436 49.0998C282.133 46.0123 281.616 43.1422 280.878 40.4956L277.025 41.5708C277.692 43.9633 278.172 46.601 278.455 49.4901L282.436 49.0998ZM280.878 40.4979C279.959 37.1873 278.722 34.2067 277.154 31.5727L273.717 33.6187C275.079 35.9066 276.186 38.551 277.024 41.5685L280.878 40.4979ZM277.165 31.5905C275.592 28.8864 273.708 26.6351 271.494 24.8771L269.006 28.0096C270.777 29.4156 272.349 31.266 273.707 33.6009L277.165 31.5905ZM271.44 24.8362C269.673 23.5273 267.69 22.5229 265.504 21.8159L264.273 25.6216C266.072 26.2037 267.663 27.0157 269.06 28.0505L271.44 24.8362ZM265.521 21.8214C263.351 21.098 260.965 20.752 258.385 20.752V24.752C260.61 24.752 262.559 25.0505 264.256 25.6161L265.521 21.8214ZM258.385 20.752C255.93 20.752 253.645 21.0667 251.548 21.7219L252.741 25.5398C254.394 25.0231 256.27 24.752 258.385 24.752V20.752ZM251.531 21.7274C249.507 22.3801 247.664 23.3324 246.012 24.5874L248.433 27.772C249.711 26.8004 251.149 26.0535 252.759 25.5343L251.531 21.7274ZM245.951 24.6358C243.754 26.4451 241.903 28.689 240.389 31.3398L243.861 33.3243C245.159 31.0532 246.707 29.1956 248.494 27.7235L245.951 24.6358ZM240.371 31.3714C238.92 34.0204 237.808 37.0686 237.013 40.493L240.909 41.3976C241.638 38.2595 242.635 35.5656 243.879 33.2927L240.371 31.3714ZM237.013 40.4923C236.404 43.109 235.952 45.9502 235.652 49.0119L239.633 49.4022C239.919 46.4873 240.346 43.8207 240.909 41.3983L237.013 40.4923ZM235.649 49.0507C235.41 52.0956 235.291 55.2827 235.291 58.6113H239.291C239.291 55.3774 239.407 52.2951 239.636 49.3634L235.649 49.0507ZM235.291 58.6113V77.4199H239.291V58.6113H235.291ZM235.291 77.4199C235.291 80.5755 235.41 83.6183 235.649 86.5475L239.636 86.222C239.406 83.4091 239.291 80.4753 239.291 77.4199H235.291ZM235.649 86.5475C235.891 89.5062 236.315 92.2738 236.927 94.8461L240.819 93.9196C240.259 91.5699 239.863 89.0055 239.636 86.222L235.649 86.5475ZM236.915 94.7892C237.588 98.0349 238.574 101.032 239.881 103.77L243.491 102.047C242.336 99.6285 241.447 96.9416 240.831 93.9764L236.915 94.7892ZM239.905 103.819C241.278 106.502 242.903 108.753 244.805 110.524L247.531 107.597C246.035 106.204 244.672 104.354 243.466 101.997L239.905 103.819ZM244.839 110.555C246.603 112.123 248.599 113.333 250.815 114.181L252.244 110.444C250.475 109.768 248.897 108.81 247.497 107.566L244.839 110.555ZM250.833 114.187C253.142 115.045 255.698 115.455 258.473 115.455V111.455C256.091 111.455 254.018 111.103 252.226 110.438L250.833 114.187ZM258.473 115.455C261.125 115.455 263.603 115.076 265.889 114.292L264.592 110.508C262.776 111.131 260.742 111.455 258.473 111.455V115.455ZM265.889 114.292C268.167 113.511 270.205 112.364 271.986 110.847L269.393 107.802C268.01 108.98 266.415 109.883 264.592 110.508L265.889 114.292ZM271.961 110.868C274.166 109.052 275.994 106.797 277.453 104.133L273.945 102.211C272.709 104.468 271.197 106.315 269.418 107.78L271.961 110.868ZM277.446 104.147C278.945 101.46 280.118 98.4561 280.975 95.1484L277.103 94.1446C276.32 97.165 275.266 99.8447 273.953 102.197L277.446 104.147ZM280.974 95.1532C281.649 92.577 282.134 89.7773 282.435 86.7596L278.455 86.3615C278.171 89.2031 277.719 91.7941 277.104 94.1398L280.974 95.1532ZM282.431 86.7988C282.793 83.7846 282.973 80.658 282.973 77.4199H278.973C278.973 80.51 278.801 83.4771 278.46 86.3223L282.431 86.7988ZM282.973 77.4199V58.6113H278.973V77.4199H282.973ZM385.211 4.03125V2.03125H383.211V4.03125H385.211ZM409.908 4.03125L411.908 4.02927L411.906 2.03125H409.908V4.03125ZM409.996 92.7129L411.996 92.7321L411.996 92.7215V92.7109L409.996 92.7129ZM406.48 109.412L404.659 108.586L404.655 108.596L406.48 109.412ZM383.365 130.77L382.665 128.896L382.658 128.899L383.365 130.77ZM335.201 123.914L336.518 122.409L336.506 122.398L336.493 122.387L335.201 123.914ZM323.072 94.3828V92.3828H321.054L321.072 94.4005L323.072 94.3828ZM347.857 94.3828H349.857V92.3828H347.857V94.3828ZM351.373 108.182L349.766 109.372L349.784 109.396L349.802 109.419L351.373 108.182ZM374.049 112.312L374.87 114.136L374.888 114.128L374.907 114.119L374.049 112.312ZM383.805 101.15L381.92 100.48L381.916 100.493L381.912 100.505L383.805 101.15ZM385.211 6.03125H409.908V2.03125H385.211V6.03125ZM407.908 4.03323L407.996 92.7149L411.996 92.7109L411.908 4.02927L407.908 4.03323ZM407.996 92.6937C407.94 98.5374 406.818 103.825 404.659 108.586L408.302 110.238C410.713 104.921 411.935 99.0759 411.996 92.7321L407.996 92.6937ZM404.655 108.596C402.536 113.335 399.617 117.418 395.894 120.864L398.61 123.8C402.738 119.98 405.972 115.45 408.306 110.228L404.655 108.596ZM395.894 120.864C392.171 124.309 387.769 126.989 382.665 128.896L384.065 132.643C389.625 130.566 394.482 127.621 398.61 123.8L395.894 120.864ZM382.658 128.899C377.629 130.799 372.186 131.758 366.314 131.758V135.758C372.63 135.758 378.555 134.725 384.072 132.64L382.658 128.899ZM366.314 131.758C360.038 131.758 354.383 130.959 349.33 129.387L348.142 133.207C353.637 134.916 359.701 135.758 366.314 135.758V131.758ZM349.33 129.387C344.295 127.82 340.036 125.487 336.518 122.409L333.884 125.419C337.866 128.903 342.631 131.492 348.142 133.207L349.33 129.387ZM336.493 122.387C332.939 119.38 330.159 115.567 328.163 110.909L324.486 112.485C326.708 117.671 329.847 122.003 333.909 125.441L336.493 122.387ZM328.163 110.909C326.179 106.281 325.129 100.782 325.072 94.3651L321.072 94.4005C321.133 101.226 322.251 107.27 324.486 112.485L328.163 110.909ZM323.072 96.3828H347.857V92.3828H323.072V96.3828ZM345.857 94.3828C345.857 97.5514 346.161 100.391 346.799 102.878L350.674 101.884C350.139 99.8004 349.857 97.308 349.857 94.3828H345.857ZM346.799 102.878C347.437 105.365 348.413 107.546 349.766 109.372L352.98 106.991C351.989 105.654 351.208 103.967 350.674 101.884L346.799 102.878ZM349.802 109.419C351.565 111.657 353.863 113.3 356.638 114.357L358.062 110.619C355.914 109.801 354.228 108.573 352.944 106.944L349.802 109.419ZM356.638 114.357C359.388 115.405 362.632 115.895 366.314 115.895V111.895C362.965 111.895 360.233 111.447 358.062 110.619L356.638 114.357ZM366.314 115.895C369.383 115.895 372.244 115.318 374.87 114.136L373.228 110.489C371.166 111.417 368.871 111.895 366.314 111.895V115.895ZM374.907 114.119C377.487 112.893 379.702 111.236 381.531 109.147L378.52 106.513C377.067 108.174 375.298 109.505 373.191 110.506L374.907 114.119ZM381.531 109.147C383.358 107.058 384.742 104.598 385.698 101.796L381.912 100.505C381.109 102.859 379.974 104.852 378.52 106.513L381.531 109.147ZM385.689 101.82C386.708 98.9544 387.211 95.9139 387.211 92.7129H383.211C383.211 95.4884 382.776 98.073 381.92 100.48L385.689 101.82ZM387.211 92.7129V4.03125H383.211V92.7129H387.211ZM511.686 75.9258V77.9258H513.686V75.9258H511.686ZM459.127 75.9258V73.9258H457.127V75.9258H459.127ZM459.127 112.049H457.127V114.049H459.127V112.049ZM520.562 112.049H522.562V110.049H520.562V112.049ZM520.562 132V134H522.562V132H520.562ZM434.342 132H432.342V134H434.342V132ZM434.342 4.03125V2.03125H432.342V4.03125H434.342ZM520.299 4.03125H522.299V2.03125H520.299V4.03125ZM520.299 24.1582V26.1582H522.299V24.1582H520.299ZM459.127 24.1582V22.1582H457.127V24.1582H459.127ZM459.127 56.4141H457.127V58.4141H459.127V56.4141ZM511.686 56.4141H513.686V54.4141H511.686V56.4141ZM511.686 73.9258H459.127V77.9258H511.686V73.9258ZM457.127 75.9258V112.049H461.127V75.9258H457.127ZM459.127 114.049H520.562V110.049H459.127V114.049ZM518.562 112.049V132H522.562V112.049H518.562ZM520.562 130H434.342V134H520.562V130ZM436.342 132V4.03125H432.342V132H436.342ZM434.342 6.03125H520.299V2.03125H434.342V6.03125ZM518.299 4.03125V24.1582H522.299V4.03125H518.299ZM520.299 22.1582H459.127V26.1582H520.299V22.1582ZM457.127 24.1582V56.4141H461.127V24.1582H457.127ZM459.127 58.4141H511.686V54.4141H459.127V58.4141ZM509.686 56.4141V75.9258H513.686V56.4141H509.686ZM629.898 91.9219L631.894 92.0489L632.03 89.9219H629.898V91.9219ZM625.68 109.324L623.867 108.48L623.863 108.488L623.859 108.497L625.68 109.324ZM601.949 130.945L602.612 132.832L602.621 132.829L602.63 132.826L601.949 130.945ZM568.99 131.824L568.388 133.731L568.403 133.736L568.418 133.741L568.99 131.824ZM556.949 125.848L555.768 127.461L555.773 127.466L555.779 127.47L556.949 125.848ZM548.16 117.146L546.554 118.338L546.56 118.346L546.567 118.355L548.16 117.146ZM541.744 105.896L539.896 106.662L539.901 106.673L539.906 106.684L541.744 105.896ZM537.789 92.3613L535.82 92.7129L535.822 92.7242L535.824 92.7355L537.789 92.3613ZM537.701 44.8125L539.67 45.1615L539.671 45.1573L537.701 44.8125ZM541.393 31.8047L543.242 32.5662L543.251 32.5453L543.259 32.5242L541.393 31.8047ZM559.146 9.12891L558.064 7.44748L558.042 7.46168L558.02 7.47645L559.146 9.12891ZM570.484 4.03125L571.034 5.9543L571.043 5.95175L571.052 5.94912L570.484 4.03125ZM602.564 5.17383L601.878 7.05224L601.884 7.05458L602.564 5.17383ZM629.986 45.252V47.252H632.169L631.979 45.0772L629.986 45.252ZM605.377 45.252L603.381 45.3748L603.496 47.252H605.377V45.252ZM603.619 35.2324L601.707 35.8178L601.712 35.8356L601.718 35.8532L603.619 35.2324ZM599.752 28.0254L601.254 26.7052L601.233 26.681L601.211 26.6575L599.752 28.0254ZM593.16 23.8066L592.439 25.6722L592.465 25.682L592.49 25.6911L593.16 23.8066ZM578.395 22.9277L577.925 20.9836L577.917 20.9855L577.909 20.9874L578.395 22.9277ZM573.824 24.7734L572.816 23.0459L572.814 23.0474L573.824 24.7734ZM567.672 30.8379L565.991 29.7545L565.985 29.7641L567.672 30.8379ZM563.717 39.8906L561.795 39.3369L561.792 39.3467L563.717 39.8906ZM562.047 48.8555L564.035 49.0724L564.036 49.0685L562.047 48.8555ZM562.311 90.4277L560.327 90.6864L560.329 90.7026L560.332 90.7187L562.311 90.4277ZM564.947 100.887L563.085 101.617L563.09 101.63L564.947 100.887ZM567.848 106.336L566.212 107.487L566.226 107.507L566.241 107.526L567.848 106.336ZM571.803 110.291L572.993 108.684L572.982 108.676L572.971 108.668L571.803 110.291ZM577.076 112.928L576.496 114.842L576.53 114.852L576.564 114.861L577.076 112.928ZM605.201 91.9219V89.9219H603.319L603.205 91.8009L605.201 91.9219ZM627.902 91.7949C627.506 98.025 626.151 103.577 623.867 108.48L627.493 110.169C630.013 104.758 631.471 98.7094 631.894 92.0489L627.902 91.7949ZM623.859 108.497C621.622 113.419 618.614 117.589 614.84 121.03L617.535 123.986C621.73 120.161 625.05 115.542 627.5 110.152L623.859 108.497ZM614.84 121.03C611.066 124.471 606.552 127.154 601.269 129.065L602.63 132.826C608.363 130.752 613.341 127.81 617.535 123.986L614.84 121.03ZM601.287 129.058C596.02 130.907 590.154 131.846 583.668 131.846V135.846C590.541 135.846 596.863 134.851 602.612 132.832L601.287 129.058ZM583.668 131.846C578.565 131.846 573.868 131.194 569.563 129.908L568.418 133.741C573.136 135.15 578.224 135.846 583.668 135.846V131.846ZM569.592 129.917C565.33 128.571 561.511 126.672 558.119 124.226L555.779 127.47C559.536 130.18 563.744 132.265 568.388 133.731L569.592 129.917ZM558.131 124.234C555.013 121.951 552.22 119.19 549.754 115.938L546.567 118.355C549.256 121.9 552.323 124.939 555.768 127.461L558.131 124.234ZM549.767 115.955C547.345 112.689 545.282 109.075 543.582 105.109L539.906 106.684C541.722 110.921 543.936 114.808 546.554 118.338L549.767 115.955ZM543.592 105.131C541.951 101.17 540.669 96.7917 539.754 91.9871L535.824 92.7355C536.784 97.7747 538.139 102.419 539.896 106.662L543.592 105.131ZM539.758 92.0098C538.902 87.2149 538.471 82.1185 538.471 76.7168H534.471C534.471 82.3307 534.919 87.664 535.82 92.7129L539.758 92.0098ZM538.471 76.7168V59.4902H534.471V76.7168H538.471ZM538.471 59.4902C538.471 54.4399 538.872 49.6647 539.67 45.1615L535.732 44.4635C534.889 49.2181 534.471 54.2281 534.471 59.4902H538.471ZM539.671 45.1573C540.469 40.598 541.662 36.4033 543.242 32.5662L539.543 31.0432C537.842 35.1748 536.574 39.652 535.731 44.4677L539.671 45.1573ZM543.259 32.5242C545.065 27.8389 547.427 23.6842 550.337 20.0463L547.214 17.5475C544.03 21.5267 541.47 26.0439 539.526 31.0852L543.259 32.5242ZM550.337 20.0463C553.265 16.3863 556.577 13.3015 560.273 10.7814L558.02 7.47645C553.982 10.2298 550.379 13.5902 547.214 17.5475L550.337 20.0463ZM560.229 10.8103C563.515 8.69398 567.114 7.07428 571.034 5.9543L569.935 2.1082C565.652 3.33197 561.692 5.1107 558.064 7.44748L560.229 10.8103ZM571.052 5.94912C575.011 4.77798 579.272 4.18555 583.844 4.18555V0.185547C578.924 0.185547 574.278 0.823586 569.917 2.11338L571.052 5.94912ZM583.844 4.18555C590.689 4.18555 596.69 5.1555 601.878 7.05223L603.251 3.29543C597.541 1.20778 591.061 0.185547 583.844 0.185547V4.18555ZM601.884 7.05458C607.156 8.96141 611.598 11.6639 615.246 15.1459L618.008 12.2525C613.921 8.35168 608.989 5.37062 603.245 3.29308L601.884 7.05458ZM615.246 15.1459C618.898 18.6315 621.793 22.9072 623.922 28.005L627.613 26.4637C625.289 20.8975 622.091 16.1497 618.008 12.2525L615.246 15.1459ZM623.922 28.005C626.058 33.1195 627.423 38.9199 627.994 45.4267L631.979 45.0772C631.378 38.2246 629.931 32.0133 627.613 26.4637L623.922 28.005ZM629.986 43.252H605.377V47.252H629.986V43.252ZM607.373 45.1291C607.131 41.1934 606.522 37.6798 605.52 34.6116L601.718 35.8532C602.591 38.5273 603.154 41.6933 603.381 45.3748L607.373 45.1291ZM605.532 34.647C604.583 31.5494 603.169 28.8844 601.254 26.7052L598.25 29.3456C599.733 31.0336 600.897 33.1732 601.707 35.8178L605.532 34.647ZM601.211 26.6575C599.216 24.5297 596.74 22.9568 593.83 21.9222L592.49 25.6911C594.854 26.5314 596.772 27.7711 598.293 29.3933L601.211 26.6575ZM593.881 21.941C591.013 20.833 587.65 20.3125 583.844 20.3125V24.3125C587.303 24.3125 590.151 24.7881 592.439 25.6722L593.881 21.941ZM583.844 20.3125C581.769 20.3125 579.793 20.5326 577.925 20.9836L578.864 24.8719C580.394 24.5025 582.052 24.3125 583.844 24.3125V20.3125ZM577.909 20.9874C576.093 21.4417 574.392 22.1267 572.816 23.0459L574.832 26.501C576.069 25.7796 577.415 25.2341 578.88 24.868L577.909 20.9874ZM572.814 23.0474C570.108 24.6314 567.838 26.8877 565.991 29.7545L569.353 31.9213C570.904 29.5147 572.736 27.728 574.835 26.4995L572.814 23.0474ZM565.985 29.7641C564.225 32.5291 562.835 35.7278 561.795 39.3369L565.639 40.4444C566.591 37.1394 567.837 34.3029 569.359 31.9116L565.985 29.7641ZM561.792 39.3467C560.995 42.1674 560.42 45.2684 560.058 48.6424L564.036 49.0685C564.377 45.88 564.915 43.0045 565.641 40.4345L561.792 39.3467ZM560.059 48.6386C559.698 51.9434 559.52 55.5029 559.52 59.3145H563.52C563.52 55.626 563.693 52.2129 564.035 49.0724L560.059 48.6386ZM559.52 59.3145V76.7168H563.52V59.3145H559.52ZM559.52 76.7168C559.52 81.8806 559.786 86.5396 560.327 90.6864L564.294 90.1691C563.78 86.2299 563.52 81.7483 563.52 76.7168H559.52ZM560.332 90.7187C560.935 94.8172 561.846 98.4567 563.085 101.617L566.809 100.157C565.705 97.3402 564.858 94.007 564.289 90.1367L560.332 90.7187ZM563.09 101.63C563.96 103.805 564.998 105.761 566.212 107.487L569.483 105.185C568.471 103.746 567.575 102.07 566.804 100.144L563.09 101.63ZM566.241 107.526C567.524 109.259 568.987 110.728 570.634 111.914L572.971 108.668C571.689 107.744 570.515 106.577 569.455 105.145L566.241 107.526ZM570.612 111.898C572.384 113.21 574.349 114.191 576.496 114.842L577.656 111.014C575.936 110.493 574.386 109.716 572.993 108.684L570.612 111.898ZM576.564 114.861C578.748 115.439 581.121 115.719 583.668 115.719V111.719C581.411 111.719 579.388 111.471 577.588 110.994L576.564 114.861ZM583.668 115.719C587.058 115.719 590.168 115.287 592.976 114.394L591.763 110.582C589.414 111.33 586.723 111.719 583.668 111.719V115.719ZM592.976 114.394C595.827 113.487 598.298 112.046 600.352 110.058L597.57 107.184C595.991 108.712 594.068 109.849 591.763 110.582L592.976 114.394ZM600.352 110.058C602.41 108.066 603.994 105.55 605.135 102.569L601.4 101.138C600.432 103.665 599.145 105.66 597.57 107.184L600.352 110.058ZM605.135 102.569C606.282 99.5755 606.954 96.0536 607.198 92.0429L603.205 91.8009C602.979 95.5245 602.363 98.6237 601.4 101.138L605.135 102.569ZM605.201 93.9219H629.898V89.9219H605.201V93.9219ZM743.189 24.1582V26.1582H745.189V24.1582H743.189ZM703.727 24.1582V22.1582H701.727V24.1582H703.727ZM703.727 132V134H705.727V132H703.727ZM678.941 132H676.941V134H678.941V132ZM678.941 24.1582H680.941V22.1582H678.941V24.1582ZM640.006 24.1582H638.006V26.1582H640.006V24.1582ZM640.006 4.03125V2.03125H638.006V4.03125H640.006ZM743.189 4.03125H745.189V2.03125H743.189V4.03125ZM743.189 22.1582H703.727V26.1582H743.189V22.1582ZM701.727 24.1582V132H705.727V24.1582H701.727ZM703.727 130H678.941V134H703.727V130ZM680.941 132V24.1582H676.941V132H680.941ZM678.941 22.1582H640.006V26.1582H678.941V22.1582ZM642.006 24.1582V4.03125H638.006V24.1582H642.006ZM640.006 6.03125H743.189V2.03125H640.006V6.03125ZM741.189 4.03125V24.1582H745.189V4.03125H741.189ZM822.467 92.1855L820.599 92.8998L820.608 92.9236L820.617 92.9471L822.467 92.1855ZM818.512 86.5605L819.88 85.1015L819.856 85.0795L819.832 85.0582L818.512 86.5605ZM810.953 81.9023L810.087 83.7048L810.107 83.7148L810.128 83.7243L810.953 81.9023ZM799.527 77.8594L799.001 79.7889L799.007 79.7906L799.527 77.8594ZM780.807 70.8281L779.889 72.6051L779.897 72.6092L780.807 70.8281ZM759.977 50.877L758.137 51.6615L758.142 51.6729L758.147 51.6842L759.977 50.877ZM784.674 4.82227L785.245 6.73904L785.254 6.73626L785.263 6.73338L784.674 4.82227ZM820.885 5.17383L820.222 7.06093L820.229 7.06309L820.885 5.17383ZM835.211 13.2598L836.534 11.7601L836.528 11.7546L836.522 11.7491L835.211 13.2598ZM847.867 41.5605V43.5605H849.867V41.5605H847.867ZM823.785 41.5605L821.787 41.6421L821.865 43.5605H823.785V41.5605ZM822.203 33.6504L820.325 34.3376L820.332 34.3576L820.34 34.3775L822.203 33.6504ZM818.248 27.4102L819.662 25.9959L819.639 25.9724L819.614 25.9496L818.248 27.4102ZM811.48 23.4551L810.774 25.326L810.798 25.3354L810.823 25.3441L811.48 23.4551ZM793.375 23.1914L793.954 25.1058L793.968 25.1016L793.981 25.0973L793.375 23.1914ZM786.959 26.4434L785.71 24.8816L785.694 24.8941L785.679 24.9069L786.959 26.4434ZM782.916 31.6289L781.106 30.7773L781.101 30.7893L781.095 30.8013L782.916 31.6289ZM783.355 44.4609L781.645 45.4975L781.656 45.5162L781.668 45.5347L783.355 44.4609ZM788.629 49.6465L789.767 48.0021L789.753 47.9921L789.738 47.9824L788.629 49.6465ZM796.891 53.9531L796.148 55.8101L796.159 55.8146L796.891 53.9531ZM807.965 57.5566L808.504 55.6307L808.496 55.6286L808.489 55.6265L807.965 57.5566ZM831.52 68.1035L832.714 66.499L832.682 66.4753L832.649 66.4529L831.52 68.1035ZM844.615 113.455L842.841 112.532L842.836 112.541L844.615 113.455ZM835.299 124.441L834.099 122.841L834.091 122.847L834.084 122.853L835.299 124.441ZM821.061 131.385L821.594 133.312L821.603 133.31L821.613 133.307L821.061 131.385ZM784.059 130.857L783.464 132.767L783.475 132.77L783.486 132.774L784.059 130.857ZM767.799 122.42L766.525 123.961L766.538 123.973L766.552 123.984L767.799 122.42ZM757.34 109.588L755.56 110.499L755.564 110.508L755.568 110.516L757.34 109.588ZM753.561 92.2734V90.2734H751.561V92.2734H753.561ZM777.818 92.2734L779.817 92.2129L779.759 90.2734H777.818V92.2734ZM785.025 108.973L786.285 107.419L786.275 107.411L786.265 107.403L785.025 108.973ZM792.848 112.84L792.328 114.771L792.337 114.774L792.848 112.84ZM811.744 112.928L811.177 111.01L811.165 111.013L811.744 112.928ZM822.291 104.93L824.08 105.824L824.085 105.813L824.091 105.802L822.291 104.93ZM825.697 98.6016C825.697 96.0712 825.242 93.6722 824.316 91.424L820.617 92.9471C821.332 94.6833 821.697 96.5616 821.697 98.6016H825.697ZM824.335 91.4713C823.445 89.144 821.931 87.0246 819.88 85.1015L817.144 88.0196C818.843 89.6122 819.965 91.2427 820.599 92.8998L824.335 91.4713ZM819.832 85.0582C817.711 83.1942 815.009 81.5434 811.778 80.0804L810.128 83.7243C813.108 85.0737 815.445 86.5285 817.191 88.0629L819.832 85.0582ZM811.82 80.0998C808.627 78.565 804.694 77.1791 800.047 75.9281L799.007 79.7906C803.502 81.0006 807.185 82.31 810.087 83.7048L811.82 80.0998ZM800.054 75.9298C793.069 74.025 786.962 71.7268 781.716 69.0471L779.897 72.6092C785.433 75.4372 791.806 77.8265 799.001 79.7889L800.054 75.9298ZM781.724 69.0511C776.521 66.3636 772.327 63.4521 769.1 60.3366L766.322 63.2142C769.892 66.6612 774.428 69.7849 779.889 72.6051L781.724 69.0511ZM769.1 60.3366C765.872 57.22 763.451 53.7976 761.806 50.0697L758.147 51.6842C760.018 55.9251 762.753 59.7683 766.322 63.2142L769.1 60.3366ZM761.816 50.0924C760.231 46.3758 759.428 42.3094 759.428 37.8691H755.428C755.428 42.8039 756.323 47.4093 758.137 51.6615L761.816 50.0924ZM759.428 37.8691C759.428 32.7708 760.506 28.199 762.63 24.1141L759.081 22.2687C756.635 26.9729 755.428 32.1863 755.428 37.8691H759.428ZM762.63 24.1141C764.776 19.9863 767.748 16.4604 771.566 13.5275L769.129 10.3553C764.862 13.6333 761.505 17.6074 759.081 22.2687L762.63 24.1141ZM771.566 13.5275C775.392 10.5886 779.942 8.31873 785.245 6.73904L784.103 2.90549C778.391 4.60706 773.389 7.08327 769.129 10.3553L771.566 13.5275ZM785.263 6.73338C790.559 5.09959 796.335 4.27344 802.604 4.27344V0.273438C795.982 0.273438 789.804 1.14651 784.084 2.91115L785.263 6.73338ZM802.604 4.27344C809.09 4.27344 814.956 5.21199 820.222 7.06092L821.547 3.28674C815.798 1.26848 809.477 0.273438 802.604 0.273438V4.27344ZM820.229 7.06309C825.583 8.92298 830.129 11.4985 833.9 14.7704L836.522 11.7491C832.324 8.107 827.32 5.29186 821.541 3.28456L820.229 7.06309ZM833.888 14.7594C837.665 18.0925 840.603 22.0286 842.713 26.5812L846.342 24.8993C843.999 19.8425 840.725 15.4583 836.534 11.7601L833.888 14.7594ZM842.713 26.5812C844.807 31.1007 845.867 36.084 845.867 41.5605H849.867C849.867 35.5528 848.701 29.9892 846.342 24.8993L842.713 26.5812ZM847.867 39.5605H823.785V43.5605H847.867V39.5605ZM825.784 41.479C825.658 38.4118 825.093 35.554 824.066 32.9233L820.34 34.3775C821.188 36.5515 821.678 38.9671 821.787 41.6421L825.784 41.479ZM824.081 32.9632C823.105 30.2958 821.632 27.9655 819.662 25.9959L816.834 28.8244C818.38 30.3704 819.543 32.2003 820.325 34.3376L824.081 32.9632ZM819.614 25.9496C817.566 24.0335 815.058 22.5819 812.138 21.5661L810.823 25.3441C813.294 26.2033 815.297 27.3884 816.882 28.8707L819.614 25.9496ZM812.187 21.5841C809.273 20.4833 805.918 19.9609 802.164 19.9609V23.9609C805.559 23.9609 808.414 24.4347 810.774 25.326L812.187 21.5841ZM802.164 19.9609C798.719 19.9609 795.579 20.3912 792.769 21.2856L793.981 25.0973C796.327 24.351 799.046 23.9609 802.164 23.9609V19.9609ZM792.796 21.277C790.073 22.1002 787.697 23.2916 785.71 24.8816L788.208 28.0051C789.737 26.7826 791.638 25.8061 793.954 25.1058L792.796 21.277ZM785.679 24.9069C783.706 26.5511 782.173 28.5105 781.106 30.7773L784.726 32.4805C785.534 30.7629 786.697 29.2653 788.239 27.9798L785.679 24.9069ZM781.095 30.8013C780.089 33.0141 779.598 35.4084 779.598 37.957H783.598C783.598 35.9354 783.985 34.1109 784.737 32.4565L781.095 30.8013ZM779.598 37.957C779.598 40.7011 780.272 43.2316 781.645 45.4975L785.066 43.4243C784.095 41.8231 783.598 40.0177 783.598 37.957H779.598ZM781.668 45.5347C783.075 47.7449 785.048 49.6628 787.52 51.3106L789.738 47.9824C787.64 46.5833 786.097 45.0441 785.043 43.3872L781.668 45.5347ZM787.49 51.2909C789.925 52.9764 792.819 54.4784 796.148 55.8101L797.633 52.0962C794.517 50.8497 791.903 49.4806 789.767 48.0021L787.49 51.2909ZM796.159 55.8146C799.521 57.1351 803.283 58.3582 807.441 59.4868L808.489 55.6265C804.444 54.5286 800.823 53.3493 797.622 52.0916L796.159 55.8146ZM807.426 59.4826C811.733 60.6886 815.833 62.1512 819.726 63.8689L821.34 60.2092C817.265 58.4113 812.986 56.8856 808.504 55.6307L807.426 59.4826ZM819.726 63.8689C823.606 65.5807 827.159 67.5435 830.39 69.7541L832.649 66.4529C829.2 64.0932 825.429 62.013 821.34 60.2092L819.726 63.8689ZM830.326 69.708C835.172 73.3148 839.002 77.4894 841.846 82.2282L845.276 80.1702C842.142 74.9481 837.945 70.3922 832.714 66.499L830.326 69.708ZM841.846 82.2282C844.626 86.8618 846.043 92.2398 846.043 98.4258H850.043C850.043 91.6039 848.472 85.4976 845.276 80.1702L841.846 82.2282ZM846.043 98.4258C846.043 103.774 844.959 108.459 842.841 112.532L846.39 114.378C848.842 109.662 850.043 104.328 850.043 98.4258H846.043ZM842.836 112.541C840.751 116.602 837.846 120.031 834.099 122.841L836.499 126.041C840.72 122.875 844.026 118.98 846.394 114.369L842.836 112.541ZM834.084 122.853C830.324 125.728 825.81 127.94 820.508 129.462L821.613 133.307C827.326 131.666 832.305 129.249 836.514 126.03L834.084 122.853ZM820.527 129.457C815.215 130.926 809.391 131.67 803.043 131.67V135.67C809.703 135.67 815.89 134.89 821.594 133.312L820.527 129.457ZM803.043 131.67C796.855 131.67 790.72 130.762 784.632 128.941L783.486 132.774C789.936 134.703 796.457 135.67 803.043 135.67V131.67ZM784.653 128.948C778.656 127.081 773.462 124.378 769.046 120.856L766.552 123.984C771.393 127.844 777.039 130.767 783.464 132.767L784.653 128.948ZM769.073 120.878C764.878 117.41 761.563 113.34 759.112 108.66L755.568 110.516C758.273 115.68 761.931 120.164 766.525 123.961L769.073 120.878ZM759.12 108.677C756.771 104.087 755.561 98.6397 755.561 92.2734H751.561C751.561 99.1494 752.87 105.245 755.56 110.499L759.12 108.677ZM753.561 94.2734H777.818V90.2734H753.561V94.2734ZM775.819 92.334C775.942 96.3913 776.652 99.9721 778.014 103.021L781.666 101.389C780.567 98.9303 779.929 95.8899 779.817 92.2129L775.819 92.334ZM778.014 103.021C779.368 106.051 781.29 108.572 783.786 110.542L786.265 107.403C784.308 105.858 782.773 103.867 781.666 101.389L778.014 103.021ZM783.766 110.526C786.178 112.482 789.046 113.887 792.328 114.771L793.368 110.909C790.556 110.152 788.209 108.979 786.285 107.419L783.766 110.526ZM792.337 114.774C795.632 115.644 799.204 116.07 803.043 116.07V112.07C799.499 112.07 796.275 111.676 793.358 110.906L792.337 114.774ZM803.043 116.07C806.474 116.07 809.576 115.673 812.323 114.842L811.165 111.013C808.873 111.706 806.174 112.07 803.043 112.07V116.07ZM812.311 114.846C815.075 114.029 817.476 112.876 819.465 111.351L817.031 108.176C815.505 109.347 813.569 110.303 811.177 111.01L812.311 114.846ZM819.465 111.351C821.449 109.829 822.999 107.986 824.08 105.824L820.502 104.035C819.708 105.624 818.562 107.003 817.031 108.176L819.465 111.351ZM824.091 105.802C825.168 103.58 825.697 101.169 825.697 98.6016H821.697C821.697 100.604 821.289 102.413 820.491 104.057L824.091 105.802Z" fill="#DCDCDC" mask="url(#path-1-outside-1_118_355)"/>
<defs>
<linearGradient id="paint0_linear_118_355" x1="-11" y1="62.5" x2="854" y2="62.5" gradientUnits="userSpaceOnUse">
<stop offset="0.125" stop-color="#252525"/>
<stop offset="0.475" stop-color="#2D2D2D"/>
<stop offset="0.857867" stop-color="#252525"/>
<stop offset="1" stop-color="#252525"/>
</linearGradient>
</defs>
</svg>
